<svg version="1.0" xmlns="http://www.w3.org/2000/svg" width="682.667" height="682.667" viewBox="0 0 512 512"><g fill="#6b7280"><path d="M209.5 173.5c-.4 1.1-2.4 3.4-4.4 5.1-3.5 3.1-3.6 3.4-3.9 11.5-.2 4.6-.9 9-1.4 9.6-.6.7-.7 2.1-.3 3 .8 2.1.6 19.3-.2 20.7-.4.5-.5 6.1-.4 12.3.2 7.5-.1 11.3-.8 11.3-.6 0-1.1.7-1.1 1.5s.4 1.5.9 1.5c.4 0 .6 7.7.3 17l-.5 17.1 12.4-.3 12.4-.3-.4-16.6c-.2-11.6 0-16.9.8-17.3.8-.5.7-1.4-.4-2.9-1.8-2.6-2.2-20.2-.4-21.3.8-.5.8-.9-.1-1.4-1.7-1-2.6-19.5-1.1-21.4.7-.8.8-1.7.3-2s-1.2-4.4-1.6-9.1c-.6-8.9-2.3-12.9-5.6-14-1-.3-2.3-1.8-2.8-3.3-.9-2.5-1-2.6-1.7-.7m5.9 7.9c.8 1.1 1.7 5.8 2 10.3.6 8.1.6 8.3-1.7 8.8-1.3.4-4.6.5-7.3.3l-4.9-.3-.3-7.9c-.2-5.9.1-8.4 1.3-10.3 3-4.5 8.4-5 10.9-.9m2.8 31.4c.2 5.3.2 10 0 10.4-.2.5-4 .8-8.4.8h-8.1l.5-10.1c.3-5.6 1-10.4 1.6-10.7.5-.4 3.9-.6 7.5-.4l6.5.4zm.8 23c.3 5.1.4 9.7.2 10.2-.2.6-4.4 1-9.3 1H201v-3.8c0-2 .3-6.8.7-10.5l.6-6.8 8.1.3 8.1.3zm1.2 27.2c.1 7.1.2 14.2.2 15.7l.1 2.8h-20l-.3-6.5c-.2-3.6-.1-10.7.3-15.8l.7-9.2H220zm81.5-88.9c-.3 1.4-1.8 3.1-3.2 3.7-4.3 2-5.3 6.1-5.9 26.7-.5 13.1-1.1 19.2-1.9 19.7-.9.6-.9 1 .2 1.7s1.3 2.8.7 10.7c-.4 5.6-1.2 10.1-1.8 10.5-.9.6-.8 1.2.1 2.3 1 1.2 1.2 5.5 1 17.8l-.4 16.3 12.4.3 12.4.3-.7-16.7c-.5-12.5-.4-16.9.5-18.1.9-1 .9-1.7.2-2.1-1.6-1-2.7-18.5-1.4-21.1.7-1.1.8-2.1.3-2.1-1.4 0-2.1-19.1-.8-21.2.8-1.3.7-2.1-.2-3-.7-.7-1.2-4-1.2-7.9 0-8.3-1.1-11.5-4.9-13.6-1.6-.9-3.3-2.8-3.8-4.2l-.9-2.6zm5 6.3c2.7 2.3 2.8 2.8 2.8 11.3v8.8l-4.9.3c-2.7.2-6.1 0-7.4-.3-2.4-.6-2.4-.8-2-9 .4-8.6 1.5-11 5.3-12.5 3-1.3 3.1-1.2 6.2 1.4m3.3 27c0 2.3.3 7.1.6 10.5l.7 6.1h-8.1c-4.4 0-8.2-.3-8.4-.8-.2-.4-.2-5.1 0-10.5l.4-9.7H310zm1.3 25.3c.4 3.8.7 8.5.7 10.5v3.8h-8.9c-4.9 0-9.1-.4-9.3-1-.1-.5-.2-5.2 0-10.5l.3-9.5h16.6zm1.1 32.3c.4 8.2.5 15.4.1 16-.8 1.2-19.2 1.4-19.9.1-.3-.5-.3-7.7.1-16l.6-15.1h18.4zM209 288l-20.5.6 21.3.2c14 .1 21.1-.1 20.7-.8-.3-.6-.7-.9-.8-.8s-9.4.5-20.7.8m73 .2c0 .5 9.6.7 21.3.6 21.5-.2 19-.6-7.1-1-7.8-.2-14.2 0-14.2.4m-27.4 2.7c-.3.4-3.4 1.1-6.8 1.5-6.9.7-14 2.6-18.6 5-4 2.1-4 2.1-4.4-1.2l-.3-2.7-14.2-.3-14.3-.3-.1 65.8c0 36.2-.1 69.2-.2 73.3l-.2 7.5h-89v-82h60l.3 38.8c.1 24.6.6 38.7 1.2 38.7s1-9.4 1-25.5V384h11.9c16.2 0 16.9-1.9.9-2.2l-12.3-.3-.3-12.5c-.2-8.4-.7-12.7-1.5-13.2-1.4-.9-59.8-1.1-62.1-.2-1.3.5-1.6 2.6-1.6 13V381H77v-14.5c0-9-.4-14.5-1-14.5s-1 5.3-1 14c0 11.8-.3 14.2-1.5 14.7-1.4.5-1.4.7 0 2.3 1.3 1.5 1.5 5.4 1.3 29.1l-.3 27.4-6.7.3c-3.8.2-6.8.6-6.8 1s88 .7 195.5.7 195.5-.3 195.5-.7-3-.8-6.7-1l-6.8-.3-.3-28.3c-.2-24.6 0-28.2 1.3-28.2.8 0 1.5-.5 1.5-1 0-.6-.7-1-1.5-1-1.3 0-1.5-2.3-1.5-15.1 0-9.7-.4-14.8-1-14.4s-1 6.5-1 15.1V381h-27v-12.4c0-11.3-.2-12.5-1.9-13.1-2.3-.7-60.9-.3-62.1.5-.5.3-1.1 6.2-1.2 13l-.3 12.5-11.7.3c-15.7.4-15.5 2.2.2 2.2h12v25.5c0 16.1.4 25.5 1 25.5s1.1-14.1 1.2-38.7l.3-38.8h60v82h-89l-.2-66.5c-.2-36.6-.3-69.5-.3-73.3v-6.8l-14.2.3-14.3.3-.3 2.8c-.3 2.3-.7 2.7-2 2.1-6.1-2.7-15.6-5.4-21-6-3.4-.3-6.5-1-6.8-1.5-.7-1.1-3.1-1.2-3.8 0m22.9 6c7.5 2.7 11 5.3 10.2 7.5-.6 1.5-3.7 1.6-31.4 1.4-30-.3-30.8-.3-30.8-2.3 0-2.3 6-5.6 14.5-8 8.3-2.2 29.5-1.5 37.5 1.4m-55.1-.3c.3.9.6 3.3.6 5.4 0 7.1.1 7-13.1 7H198v-14h11.9c9.9 0 12 .3 12.5 1.6m92.1 5.4v6.5h-24l-.3-5.4c-.5-8.4-.9-8.2 12.5-7.9l11.8.3zm-26.7 11.7.3 6.3H225v-5.8c0-3.2.3-6.2.7-6.5.4-.4 14.4-.6 31.2-.5l30.6.3zm-66-2.2c.7.7 1.2 50.2.5 52.7-.4 1.6-1.9 1.8-12.4 1.8H198v-27.4c0-17.4.4-27.6 1-27.8 1.7-.5 22.2 0 22.8.7m93 27.2.2 27.3h-25v-27c0-22.2.2-27 1.4-27.7.8-.4 6.3-.6 12.3-.3l10.8.5zM287.5 381v58.5l-2.2.3c-1.3.2-2.4.2-2.5 0s-.5-19.7-.8-43.3c-.5-42.6-.5-43-2.8-47.7-1.3-2.6-4.2-6.8-6.5-9.4-4.5-5.1-13.5-11.4-16.3-11.4-4.9 0-18.1 11.8-22.6 20.1-2.3 4.4-2.3 4.5-2.5 45.9-.2 22.8-.5 42.5-.8 43.8-.4 1.7-1.2 2.2-2.8 2l-2.2-.3-.3-57.5c-.1-31.6 0-58.1.3-58.8.3-1 7.1-1.2 31.2-1l30.8.3zm-25.4-48.2c6.4 4.1 13.5 12.5 15.9 18.8 1.9 5.3 2 7.2 1.8 46.7l-.3 41.2-23.2.3-23.3.2-.1-3.7c-.3-17.9.2-78.3.7-80.7 1.7-8 9.8-18.4 18.4-23.5 4.5-2.7 4.7-2.7 10.1.7m-40.2 36.8c.6.5.8 51.5.3 53.1-.3 1-3.7 1.3-12.3 1.3H198v-27.3c0-15.1.2-27.6.4-27.8.5-.5 23 .1 23.5.7m83.9-.6h9.2v55h-25v-27.4c0-28.9 0-29 4.5-28.1 1.1.3 6.2.5 11.3.5m-202 42.2-.3 28.3-13.2.3-13.3.3V383h27zm332.2.3v28.6l-13.2-.3-13.3-.3-.3-28.3-.2-28.2h27zm-213.6 16.1c.9 2.3.7 9.7-.2 11.2-.6.9-3.8 1.2-12.3 1l-11.4-.3-.3-6.8-.3-6.7h11.9c10 0 12.1.3 12.6 1.6m92.4 5.1-.3 6.8h-24l-.3-5.4c-.5-8.3-.9-8.1 12.8-8.1h12.1z"/><path d="M189.1 306.3c-.7.7-1.1 6.7-1.1 16.4V338h-56c-60.5 0-57.7-.3-56.8 5.2.4 2.3.5 2.3 1.6-.4l1.1-2.7h57.7c31.7 0 57.9-.3 58.2-.6.4-.3-.4-.8-1.6-1.2-2.1-.5-2.2-.9-2.2-14.7 0-14.3.3-15.9 3-16.8 1-.3.8-.6-.7-1-1.2-.3-2.6-.1-3.2.5m131 .3c2.5.7 2.9 3.4 2.9 18.1 0 11.2-.2 13.3-1.5 13.3-.8 0-1.5.4-1.5 1s5.2 1 13.5 1 13.5-.4 13.5-1-4.3-1-11-1h-10.9l-.3-15.8-.3-15.7-3-.2c-1.6-.1-2.3.1-1.4.3"/><path d="M138.6 319.5c-.4 1-2 1.5-5.4 1.5-9.9 0-23 5-28.6 10.9-4.5 4.7-2.3 5 2.7.4 14.4-13.3 51-13.3 65.4 0 5.2 4.7 7.1 4.2 2.4-.7-5.5-5.6-13.9-8.7-30.3-11.1-2.1-.3-3.8-1-3.8-1.5 0-1.6-1.7-1.2-2.4.5m232.6 0c-.7.9-3 1.5-5.3 1.5-9.4 0-22.9 5.2-28.3 10.9-4.5 4.7-2.3 5 2.7.4 8.3-7.6 24.9-11.6 39.9-9.5 4.5.7 8.3 1 8.6.7.9-.8-4.9-2.5-8.8-2.5-2.1 0-4.5-.7-5.4-1.5-1.8-1.8-1.8-1.8-3.4 0m24.8 5.3c0 .5 1.2 1.7 2.6 2.7 1.7 1.1 2.5 1.3 2.2.4-.5-1.6-4.8-4.4-4.8-3.1m9.5 7.5c4 3.6 5.5 4.4 5.5 2.9 0-1.4-4.3-4.9-7-5.7-2.1-.6-1.9-.2 1.5 2.8M370 339c0 1 21.2 1.4 51.2 1l13.8-.2 1.2 2.9c1.1 2.7 1.2 2.7 1.6.5.9-5.3 1.9-5.2-34.3-5.2-21.7 0-33.5.4-33.5 1m-9.2.7c1.2.2 3 .2 4 0 .9-.3-.1-.5-2.3-.4-2.2 0-3 .2-1.7.4M72 348c0 .7 20.8 1 60.5 1s60.5-.3 60.5-1-20.8-1-60.5-1-60.5.3-60.5 1m248 .1c0 .5 23.4.9 60.5.9 39.9 0 60.5-.3 60.5-1s-20.6-1-60.5-.9c-37 0-60.5.4-60.5 1M129.2 367c-6.4 4.3-9.4 7.7-13.3 15-2.3 4.3-2.4 5.4-2.7 29.2-.2 17.1 0 24.8.7 24.8.8 0 1.1-7.4 1.1-23 0-20 .2-23.6 1.9-27.9 2.5-6.6 6.5-11.5 13.4-16.1 5.8-3.9 5.9-3.9 9-2.4 5.4 2.8 13.4 11.2 15.8 16.7 2.3 4.9 2.4 6.5 2.7 28.9.2 15 .7 23.8 1.3 23.8.7 0 .9-8.6.7-24.3-.3-27.6-1-30.2-9.1-38.5-4.3-4.4-12.5-10.2-14.4-10.2-.6 0-3.8 1.8-7.1 4m240.7-.4c-6.4 4.2-10 8.1-13.7 14.9l-2.7 5-.3 24.7c-.2 17.1 0 24.8.7 24.8.8 0 1.1-7.2 1.1-22.3 0-24.9.6-28.5 6.1-36.2 1.8-2.5 6-6.4 9.2-8.6l5.9-3.9 3.9 2.2c5.5 3.1 12.5 10.4 15.1 15.7 2.2 4.3 2.3 6.1 2.6 28.8.2 15.3.7 24.3 1.3 24.3.7 0 .9-8.5.7-24.3-.3-22.8-.4-24.5-2.6-29.3-3.2-7-16.4-19.4-20.7-19.4-.7 0-3.7 1.6-6.6 3.6M67 449c0 .7 33.7 1 99 1s99-.3 99-1-33.7-1-99-1-99 .3-99 1m212 0c0 .7 28.5 1 83.5 1s83.5-.3 83.5-1-28.5-1-83.5-1-83.5.3-83.5 1"/></g></svg>