<svg version="1.0" xmlns="http://www.w3.org/2000/svg" width="682.667" height="682.667" viewBox="0 0 512 512" class="dark:fill-white"><g fill="#6b7280"><path d="M256.8 181.4c-1 .7-2.2 2.5-2.8 4-1.2 3.3-1.4 18.6-.1 18.6.5 0 1.1-4.3 1.3-9.6.4-10.3 1.5-12.4 6.4-12.4 4.3 0 5.4 2.4 5.4 12.1v8.9h-4c-2.2 0-4 .4-4 1 0 .5 2.3 1 5 1h5v-9.9c0-8.4-.3-10.2-2.1-12.5-2.3-2.9-7.1-3.5-10.1-1.2m-18.7 30.7c-9.6 5.9-21.2 16.4-24.6 22.3-3.6 6.2-4 10.6-1.7 15.9 1.1 2.5 2.9 5 4 5.6 1.4.7 16.4 1.1 46.2 1.1h44.1l2.5-2.7c1.3-1.4 2.9-4.3 3.6-6.4 2.7-9.3-7.1-22.2-26.9-35.3-3.9-2.7-7.7-4.6-8.4-4.4s2.9 3.2 8.1 6.6c9.1 5.8 17.9 13.6 16.8 14.7-.3.3-18.9.4-41.3.3l-40.9-.3 4.5-4.3c2.4-2.4 8.5-7 13.4-10.4 7.7-5.1 10.8-7.8 9.3-7.8-.2 0-4.1 2.3-8.7 5.1m68.8 22.5c1.2 1.5 2.6 4.5 3.3 6.7 1.1 3.6 1 4.4-1.3 8.6l-2.4 4.6h-89.8l-2.1-2.8c-2.9-4-2.8-11 .2-16l2.4-3.7h87.7zM210 261.5c0 1.2.7 1.6 2.8 1.3 2.7-.3 2.7-.2 3 5.7.4 8.6 2.2 9.5 2.2 1.2V263h86v5.9c0 8.1 1.8 8.8 2.2.9l.3-6.3 3.3-.3c1.7-.2 3.2-.7 3.2-1.3 0-.5-19.6-.9-49.9-.9-27.5 0-50.6-.3-51.5-.6-1.1-.4-1.6-.1-1.6 1.1m-45 5c0 5.4 0 5.4 3.5 6.1 4.7.8 6.5 0 6.5-3.1 0-3-1.5-3.3-2.3-.5-.3 1.4-1.4 2-3.1 2-2.5 0-2.6-.3-2.6-5 0-2.8-.4-5-1-5-.5 0-1 2.5-1 5.5m183.8-4.5c-.4.8-.8 3.7-1 6.3l-.3 4.8 5-.3c5.5-.3 5.9-1 4.4-8.8-.6-3.1-.7-2.9-.8 1.8-.1 5.2-.2 5.3-2.8 5s-2.8-.7-3.4-5.3c-.3-2.8-.8-4.3-1.1-3.5"/><path d="M155.6 276.5c-12.9 8.9-17.4 17-13 23.3 1.5 2.2 1.8 2.2 27.4 2.2h25.9l1.6-3c.8-1.6 1.5-3.7 1.5-4.8 0-3-5.5-10.4-10.7-14.3-8.1-6.1-10.3-7.3-10.3-5.7 0 .7 1.7 2.2 3.7 3.3 5.4 2.9 14.1 11.6 14.9 14.8.3 1.6.2 3.9-.5 5.3L195 300h-24.8c-18 0-25.1-.3-26-1.2-.7-.7-1.2-2.7-1.2-4.5 0-4 6.3-11.4 14.1-16.4 2.7-1.7 4.9-3.5 4.9-4 0-1.5-1.2-1-6.4 2.6m181.2 1.8c-11.1 7.6-15.3 15.7-11.2 21.5 1.5 2.2 1.8 2.2 27.4 2.2s25.9 0 27.4-2.2c3.6-5 .4-12.9-7.5-18.9-7.6-5.8-7.9-4.8-.6 2.3 6.7 6.5 7.7 7.9 7.7 10.9 0 1.9-.5 4-1.2 4.7-1.7 1.7-49.9 1.7-51.6 0-1.8-1.8-1.4-5.9.8-9.5 1.7-2.8 5.6-6.3 15.5-13.7 4.6-3.5-.9-1.2-6.7 2.7M201.5 281c-.4.7 19.8 1 60 1s60.4-.3 60-1c-.4-.6-21.5-1-60-1s-59.6.4-60 1m6.5 18.5c0 9 .4 14.5 1 14.5s1-5.3 1-14v-14l51.3.2 51.2.3.3 13c.4 18.5 2.2 18.7 2.2.2V285H208z"/><path d="M219 303.9c0 6.1.4 10.1 1 10.1s1-3.8 1-9.4c0-5.3-.4-9.8-1-10.1-.6-.4-1 3-1 9.4m14 .8c0 7.3.3 10.3 1 9.3 1.3-2 1.3-18.7 0-19.5-.6-.4-1 3.2-1 10.2m13.7-9c-.8 2.7-.9 14.2-.2 16.4 1.5 4.5 2.5 1.2 2.5-8.1 0-5.5-.4-10-.9-10s-1.2.8-1.4 1.7m14.7 8.3c0 5.8.1 8.1.3 5.2.2-2.8.2-7.6 0-10.5-.2-2.8-.3-.5-.3 5.3m13.3-9.3c-1.1 1.1-.8 19.3.3 19.3.6 0 1-4 1-10 0-10-.1-10.6-1.3-9.3m13.3 9.2c0 6.1.4 10.1 1 10.1s1-3.8 1-9.4c0-5.3-.4-9.8-1-10.1-.6-.4-1 3-1 9.4m14 .7c0 6.7.4 10.3 1 9.9.6-.3 1-5 1-10.6 0-5.9-.4-9.9-1-9.9s-1 4.2-1 10.6m-160 .4c0 .6 10 1 28 1s28-.4 28-1-10-1-28-1-28 .4-28 1m183.5 0c-.4.7 9 1 27.4 1 18.1 0 28.1-.4 28.1-1s-9.8-1-27.4-1c-17.3 0-27.7.4-28.1 1M142 316.9c0 4.4.5 8.3 1 8.6.6.4 1-1.8 1-5.9 0-10.4-2.3-9.6 26.1-9.6H195v3.4c0 1.9.5 3.8 1 4.1.6.4 1-1.2 1-3.9V309h-55z"/><path d="M325.6 310.6c-.3.9-.6 2.7-.6 4v2.4h-63.2c-43.3 0-62.9.3-62.2 1 1.2 1.2 125.8 1 126.9-.2.4-.4 1-2.2 1.4-4l.7-3.3 23.9-.3c27.7-.4 26.5-.8 26.5 9.2 0 4.3.3 5.7 1 4.6 1.1-1.7 1.3-10.9.4-13.4-.5-1.4-3.9-1.6-27.4-1.6s-26.9.2-27.4 1.6m-139 15.9c-1.6 1.2-6.9 1.5-28 1.7l-26.1.3 25.3.2c19.1.3 25.2.6 25.2 1.6 0 .6-1.4 3.2-3 5.7l-3 4.5 83.7.3c46 .1 83.8 0 84.1-.3.3-.2-.7-2.2-2.1-4.4-1.5-2.2-2.8-4.6-2.9-5.3-.2-1 5.1-1.4 25.2-1.8l25.5-.6-26.6-.2c-22.3-.2-26.9-.4-27.9-1.7-1.1-1.3-9.3-1.5-64.9-1.3l-63.6.3 62.7.2 62.7.3 2.8 3.4c1.5 1.9 3.6 4.8 4.6 6.5l1.8 3.1h-80.5c-44.3 0-80.6-.2-80.6-.5 0-.4 5.8-9 7.8-11.5.2-.3 3.4-.8 7-1.1l6.7-.6-7-.1c-4.8-.1-7.6.3-8.9 1.3"/><path d="M142 387v55h-41.5c-27 0-41.5.3-41.5 1s66.2 1 196.5 1 196.5-.3 196.5-1c0-.6-12.5-1-35.4-1-27.4 0-35.5-.3-35.8-1.3-.2-.6-.3-24.7-.1-53.5.2-47.6 0-56.2-1.4-54.8-.3.2-.6 24.9-.6 54.8l-.2 54.3h-234l-.3-54.8c-.1-35.3-.6-54.7-1.2-54.7-.7 0-1 19.3-1 55"/><path d="M60 342.1c0 .5 16.7.9 39.5.9 26.4 0 39.5-.3 39.5-1s-13-1-39.5-.9c-22.7 0-39.5.5-39.5 1m324-.1c0 .6 11.8 1 33.5 1s33.5-.4 33.5-1-11.8-1-33.5-1-33.5.4-33.5 1m-149.5 4-50 .5 49 .3c62.6.4 103.7.3 104.3-.3.8-.8-51.2-1-103.3-.5m-73.2 3.1c-5.1 1.5-6.7 4.8-7.1 15.5-.3 5.1-.1 10.9.2 12.9l.7 3.5H175v-12.8c0-14.3-.7-16.4-6.6-18.8-1.8-.8-3.5-1.4-3.6-1.3-.2 0-1.8.5-3.5 1m8.8 3.8c2.9 2.9 2.9 3.1 2.9 14.5V379h-17.2l.4-12.1c.3-11.8.4-12.1 3.1-14.5 3.8-3.2 7.2-3.1 10.8.5m184.3-3.4c-5.7 2.4-6.4 4.5-6.4 18.7V381h20v-13.3c0-13.2 0-13.3-2.7-15.9-3.6-3.3-7-4-10.9-2.3m7.1 1.5c4.1 1.6 5.6 6.6 5.3 17.8l-.3 9.7-8.2.3-8.3.3v-11.8c.1-12.1.5-13.8 4.5-16.1 2.5-1.4 3.7-1.5 7-.2m-177 2c-.4 1.1-.5 3.5-.4 5.3.2 1.8.1 3.7-.1 4.2-.3.6-.3 14.4 0 30.8.3 16.5.2 30.1-.2 30.3-.4.3-.5 1.9-.2 3.7 1 5.6 1.7 6.4 2.3 2.7l.6-3.5 7.3-.3 7.2-.3v3.6c0 1.9.4 3.5.9 3.5 1.1 0 1.8-31.8 1.3-62.3l-.3-19.7H194c-8 0-8.9.2-9.5 2m16.5 5v5h-15v-4.3c0-2.4.3-4.7.7-5 .3-.4 3.7-.7 7.5-.7h6.8zm-3.4 8h3.4v57.7l-6 .6c-9.7 1.1-9 3.4-9-29.3 0-31.1-.1-30.3 5.4-29.5 1.6.3 4.4.5 6.2.5m87.7 26.5.2 42 .5-40.5c.3-22.3.2-41.2-.2-42s-.7 17.4-.5 40.5m18.4-40.8c-1.2 1.1-.8 81.3.3 81.3.7 0 1-14.3 1-41 0-22.6-.1-41-.3-41s-.7.3-1 .7m16.2.5c-.1 2.6.1 78.4.2 79.8.1.8.4-.1.8-2l.6-3.5 6.9-.3c7.2-.3 9.1.6 8 4-.2.9 0 1.9.6 2.3.6.3 1-.3 1-1.5s.5-3.1 1.1-4.3c.9-1.6.9-2.2 0-2.5-1.6-.5-1.4-54.4.2-57.9.8-1.7.7-2.7-.1-3.5-.7-.7-1.2-3.6-1.2-6.5V351h-9c-6.5 0-9 .3-9.1 1.2m16.3 2c.4 1.1.3 6.2-.1 8.5 0 .5-3.5.7-7.6.5l-7.5-.4v-4.2c0-2.4.3-4.6.7-4.9 1.2-1.3 14.1-.8 14.5.5m0 38.5c.1 15 .2 28.3.2 29.5.1 2.1-.3 2.2-7.4 2.3h-7.5l-.3-28.5c-.1-15.7-.1-28.9.2-29.5.2-.6 3.4-1.1 7.5-1h7.1zM218 363.2c0 6.2-.3 19.7-.6 29.9-.7 19.7.2 40.3 1.7 39.3 1.3-.8 1.2-80.4-.1-80.4-.6 0-1 4.4-1 11.2m18 29.3c0 26.3.3 40.5 1 40.5.9 0 1.3-14.6 1.2-40 0-2.5-.1-12.7-.1-22.8-.1-11.4-.5-18.2-1.1-18.2-.7 0-1 14.2-1 40.5m148-31.3c0 .5 15.4.7 34.3.6 34.1-.2 30.2-.6-12.1-1-12.2-.2-22.2 0-22.2.4m-305.2.5c11.1.2 29.3.2 40.5 0 11.1-.1 2-.2-20.3-.2s-31.4.1-20.2.2m23.4 11.6c-1.9 2-2.2 3.5-2.2 11.5v9.2h7c4 0 7-.4 7-1s-2.7-1-6-1h-6v-7.9c0-8.9 1.4-11.4 5.9-10.9 3.2.4 5.1 3.9 5.1 9.7 0 3.3.3 4.2 1.1 3.4 1.9-1.9.2-12-2.4-13.8-3.1-2.2-7-1.8-9.5.8m22.2-.8c-1.8 1.4-1.6 1.5 1.9.9 6.1-1 7.7 1.2 7.7 10.6 0 8.7-.2 8.9-6.7 8.2l-4.3-.4v-6.9c0-3.9-.4-6.9-1-6.9s-1 3.3-1 8v8h15v-9c0-8.3-.2-9.3-2.5-11.5-2.8-2.8-6.2-3.2-9.1-1m264.8.8c-1.9 2-2.2 3.5-2.2 11.5v9.2h15v-8c0-4.7-.4-8-1-8s-1 3-1 6.9v6.9l-5.1.4c-2.8.1-5.3.1-5.5-.1s-.4-4.2-.4-8.7c0-7.4.2-8.4 2.1-9.5 1.2-.6 3.7-.8 5.8-.5 3.4.6 3.5.5 1.7-.9-2.9-2.2-6.9-1.8-9.4.8m21.3.2c-2 1.9-2.5 3.4-2.5 7.5 0 2.7.5 5 1 5 .6 0 1-2.2 1-4.8 0-5.3 2-8.2 5.8-8.2 4.2 0 5.3 2.6 5 11.4l-.3 8.1-5.7-.3c-3.7-.3-5.8 0-5.8.7s2.6 1.1 7 1.1h7v-9c0-8.3-.2-9.3-2.5-11.5-1.3-1.4-3.6-2.5-5-2.5s-3.7 1.1-5 2.5m-255.9 15.7c-.9 3.7-.7 25.4.4 28.2.9 2.5 1.2 2.6 10.5 2.6h9.5v-33h-9.9c-9.4 0-9.9.1-10.5 2.2m18.4 14.3v14.6l-8.2-.3-8.3-.3-.3-12.9c-.1-7.2 0-13.6.2-14.3.4-.9 2.9-1.3 8.6-1.3h8zm175.2-.3.3 16.3 9.8.3 9.7.3V387h-20zm18.3.3v14l-8.2.3-8.3.3v-29.2l8.3.3 8.2.3zm-262-4.5c-4.2 1.7-4.6 3.1-4.3 18.6l.3 14.9 6.4.3c4.5.2 6.7-.1 7.2-1 1.2-1.8 1.1-8.6-.1-9.3-.6-.4-1 .9-1 3.2 0 5.3-.8 6-6.2 5.5l-4.8-.4v-13.7c0-12.4.2-14 2-15.6 2.6-2.3 6.8-1.3 8 2.1.6 1.4 1 5.5 1.1 9.2.1 4.9.3 6 .9 4.2 2.2-6.8.4-16.1-3.6-17.8-2.9-1.4-3.2-1.4-5.9-.2m20.8 0c-2.1.9-4.3 3.9-4.3 5.9s1.5 1.1 3.2-1.9c2-3.5 5.6-4 8.1-1.2 1.4 1.5 1.7 4.2 1.7 15.5 0 8.4-.4 13.7-1 13.8-.5 0-2.6.1-4.5.1s-3.9-.1-4.5-.1c-.6-.1-1-4.2-1-10.1 0-6.2-.4-10-1-10-.7 0-1 3.8-.8 10.7l.3 10.8h14l.3-14.6c.2-12.8 0-14.9-1.5-16.7-2.1-2.5-6-3.5-9-2.2m266 0c-3.7 1.5-4.3 4.2-4.3 19.5v14.6l7.3-.3 7.2-.3.3-10.8c.2-6.6-.1-10.7-.7-10.7s-1.1 4.1-1.3 9.7l-.3 9.8-5.2.3-5.3.3v-13.9c0-12.2.2-14.1 1.8-15.5 2.9-2.6 6.1-2.1 8 1.3 1.8 3.1 3.2 3.9 3.2 1.7-.1-1.7-2.1-4.2-4.7-5.5-2.5-1.4-3-1.4-6-.2m20.9 0c-1.2.5-2.7 2.1-3.2 3.5-1.3 3.4-1.3 16.5 0 16.5.6 0 1-3.1 1-7.3 0-8.1 1.6-11.7 5.4-11.7 4.8 0 5.6 2.5 5.6 17.3V431h-11v-4.5c0-2.5-.5-4.5-1.1-4.5s-.9 2.1-.7 5.2l.3 5.3 7.3.3 7.2.3v-14.9c0-12.8-.3-15.3-1.7-17-2.2-2.5-6-3.5-9.1-2.2M166 438c0 .7 32.5 1 95.5 1s95.5-.3 95.5-1-32.5-1-95.5-1-95.5.3-95.5 1M59.5 452c.9 1.4 392.5 1.4 392.5 0 0-.7-66.2-1-196.6-1-130.7 0-196.3.3-195.9 1"/></g></svg>