<svg version="1.0" xmlns="http://www.w3.org/2000/svg" width="682.667" height="682.667" viewBox="0 0 512 512"><g fill="#6b7280"><path d="M245.8 227.6c-1 .9-1 7.6 0 8.9.8 1.1 15.3 1.8 19 1 1.9-.5 2.2-1.2 2.2-5.6 0-3.1-.4-4.8-1-4.4-.5.3-1 2.4-1 4.6 0 3.6-.2 4-2.2 3.7-1.9-.2-2.4-1.1-2.9-4.8l-.6-4.5-.1 4.8c-.2 4.7-.3 4.8-2.9 4.5-2.5-.3-2.9-.8-3.4-4.8l-.5-4.5-.5 4.5c-.3 3.7-.8 4.6-2.6 4.8-1.9.3-2.2-.2-2.5-4.3-.2-2.6-.6-4.3-1-3.9m-.8 12.6c0 .2-3.4 8.7-7.5 18.8-4.1 10.2-7.5 19.1-7.5 19.7 0 1 5.9 1.3 26 1.3 20.4 0 26-.3 26-1.3 0-.7-3.4-9.6-7.5-19.7l-7.5-18.5-11-.3c-6-.1-11-.1-11 0m20.7 2c1 1.3 14.3 34 14.3 35.2 0 .3-10.8.6-24 .6s-24-.2-24-.5c0-.8 12.1-30.7 13.6-33.7 1.4-2.8 1.6-2.8 10.3-2.8 5.9 0 9.2.4 9.8 1.2m-22.5 51.5.3 11.8h25l.1-11.5v-11.5l-.5 10.5-.6 10.5-10.9.3c-6.7.2-11.2-.1-11.6-.7-.3-.6-.5-5.4-.5-10.6.1-5.3-.2-9.8-.7-10.1s-.7 4.8-.6 11.3"/><path d="M251 284.2c-3.1 2.1-3.5 2.9-3.8 7.4-.2 4.3.1 5.3 2.3 7.4 3.7 3.5 9.6 3.4 13.2-.3 8.1-8.1-2.2-20.9-11.7-14.5m10.5 2.3c5 4.9 1.5 13.5-5.5 13.5-1.9 0-4-.9-5.5-2.5-1.6-1.5-2.5-3.6-2.5-5.5s.9-4 2.5-5.5c1.5-1.6 3.6-2.5 5.5-2.5s4 .9 5.5 2.5"/><path d="M255 290.8c0 1.6.9 3.7 2 4.7s2 1.3 2 .7-.4-1.4-1-1.7c-.5-.3-1-1.9-1-3.6 0-1.6-.4-2.9-1-2.9-.5 0-1 1.3-1 2.8m-28.5-6.9c.3.6 3.1 1.1 6.2 1.1 7 0 6.6-.6-1-1.5-4.1-.4-5.7-.3-5.2.4m48.3-.2c.7.3 1.6.2 1.9-.1.4-.3-.2-.6-1.3-.5-1.1 0-1.4.3-.6.6m5 0c1.2.2 3.2.2 4.5 0 1.2-.2.2-.4-2.3-.4s-3.5.2-2.2.4"/><path d="M230 366.4c0 43.1-.3 79.1-.6 79.9-.4 1.2 3.8 1.5 30.5 1.5 18.8.1 31.3-.3 31.6-.8.4-.6.1-1-.4-1-.7 0-1.1-2.6-1.1-6.4 0-4.9.5-6.9 2.1-9 3.5-4.5 9.8-3.1 11.8 2.5 1.5 4.2 1.4 11.6-.1 12.5-.7.4-3.4.6-6 .5-2.9-.1-4.8.2-4.8.8 0 .7 6.8 1 21.3.9l21.2-.2-.3-7.6c-.4-8.5-1.7-11.1-6.1-13-2.5-1-3.7-1-6.1 0-4.1 1.7-6 5.7-6 12.8 0 3.2-.2 6.1-.4 6.3s-2.7.2-5.5.1l-5.1-.4V439c0-5.2-.4-7.3-2-9.3-2.6-3.3-7-4.3-10.8-2.3-3.6 1.8-5.2 6-5.2 13.1 0 5.5-1.3 7.1-4.5 5.9-1.3-.5-1.5-10.3-1.5-79.5 0-51.9-.3-78.9-1-78.9s-1 27-1 78.9v78.9l-2.5.4c-1.4.3-2.9 0-3.4-.6s-1-6-1-12c-.2-12.8-1.5-16.5-7.3-20.3-5.6-3.7-12.1-4.1-17.8-1.1-7 3.8-8.4 7.2-9 21.2-.5 12.4-1.5 14.8-5.4 13.3-1.5-.6-1.6-7.4-1.6-79.7 0-52-.3-79-1-79s-1 26.8-1 78.4m31 46.1c3.4 1 8 5.3 9.6 9.2.9 2.1 1.4 7 1.4 13.7 0 8.9-.2 10.5-1.6 10.8-.9.2-8.1.2-16 0l-14.4-.3v-10.5c0-11.4 1.1-15.4 5.3-19.2 2.8-2.7 9.4-5.3 11.7-4.7.8.2 2.6.7 4 1m69.7 17.7c2 1.8 2.3 3.1 2.3 8.9 0 3.7-.4 6.9-1 7.1-.5.2-3.7.1-7 0l-6-.4v-6.6c0-5.4.4-7 2.2-8.9 2.7-2.9 6.5-2.9 9.5-.1"/><path d="M243 313.3c-4 2-5 5.3-5 16.9 0 9.3-.2 10.7-1.7 11.1-1 .3 8.1.5 20.2.5s21.3-.2 20.5-.5c-2.6-1-3-2.6-3-13.4 0-8.9-.3-11.1-1.9-13-2.5-3.1-8.3-3.2-11.4-.1-2 2-2.2 3.4-2.5 14.2-.3 9.5-.7 12-1.8 12s-1.4-2.1-1.4-10.5c0-11.8-1.3-15.9-5.6-17.5-3.2-1.2-3.4-1.2-6.4.3m8 3.4c1.8 2.4 2 3.7 1.8 13.2l-.3 10.6-6.2.3-6.3.3v-11.6c0-10.2.2-11.7 2-13.5 2.8-2.8 6.4-2.5 9 .7m20-.7c1.8 1.8 2 3.3 2 13.5V341h-13v-11.5c0-10.2.2-11.7 2-13.5 1.1-1.1 3.1-2 4.5-2s3.4.9 4.5 2m-187.7 4.9c.2 2.2.1 4.3-.3 4.8-1.4 1.4-11.9 28.7-11.4 29.5.3.5 9.3.8 20 .8H111v11H73v-3.9c0-2.2-.4-4.3-1-4.6-.6-.4-1 1.2-1 3.9 0 2.9-.4 4.6-1.2 4.6-.9 0-.9.3 0 1.2s1.2 7.1 1.2 21.7c0 11.2.3 20.1.6 19.8.4-.4 1-9.7 1.3-20.7l.6-20.1h37l.3 38.4c.2 41.3.4 40.3-4.7 39-1.7-.4-2.1-1.3-2.1-4.9 0-9.3-5-15.4-12.5-15.4S79 432.1 79 441.4c0 4.9-.9 6.1-4 5.1-1.9-.6-2-1.5-2-17.5 0-10.2-.4-17.1-1-17.5-.7-.4-1 5.5-1 16.9 0 11.1-.4 17.6-1 17.6-.5 0-1 .4-1 1 0 .5 10.4.9 27 .9 14.9 0 27-.3 27-.8 0-.4-.5-1.2-1.1-1.8-.7-.7-1-3.5-.7-7.4.5-6.8 2.8-9.9 7.3-9.9s6.8 3.1 7.3 9.9c.6 7.9-.3 8.9-6.8 8.3-3.3-.3-5-.1-5 .7 0 .7 2.6 1.1 7.5 1.1 4.3 0 7.5-.4 7.5-1s-.4-1-1-1-1-3-1-6.9c0-5.9-.4-7.4-2.4-9.7-3.3-3.9-8.9-3.9-12.2 0-2 2.3-2.4 3.8-2.4 9.5 0 6.8 0 6.9-2.8 7.3-1.6.2-3.4.2-4 0-1.7-.5-1.7-76.3 0-78 .9-.9.9-1.2 0-1.2-.8 0-1.2-2.1-1.2-6.6 0-5.6-.8-8.4-5.6-20.2-3.1-7.5-5.9-14.1-6.4-14.5-.4-.5-.5-2.7-.2-4.9.4-3 .2-3.9-.6-3.4-.7.4-1.2 1.6-1.2 2.7 0 3.2-5.4 2.2-5.9-1.1l-.4-2.5-.6 2.5c-.5 1.8-1.5 2.6-3.4 2.8-2.3.3-2.7 0-2.7-2.2 0-1.4-.5-2.6-1.1-2.6-.8 0-1 1.4-.6 3.9m16 6.3c5.1 11.9 10.6 26.2 10.3 26.5-.2.2-8.3.5-18 .6-15.3.2-17.6 0-17.6-1.3 0-1.9 8.8-24 10.2-25.8.7-.7 3.6-1.2 7.8-1.2 4.5 0 7 .4 7.3 1.2m-3.9 101.2c4.9 2 6.6 5.1 6.6 11.8v5.8H81v-5.3c0-6.6 2.7-11.3 7.2-12.6 1.8-.5 3.4-1 3.6-1 .1-.1 1.8.5 3.6 1.3m316.9-107.5c.2 2.2.1 4.3-.3 4.8-.8.9-12 28.5-12 29.6 0 .4 9 .7 20.1.7h20l-.3 5.2-.3 5.3h-38l.3-3.6c.2-2.1-.1-4-.7-4.4-.7-.4-1.1 1-1.1 3.9s-.4 4.6-1.2 4.6c-.9 0-.9.3 0 1.2s1.2 11 1.2 39.4c0 40.7.1 40-4.8 38.8-1.6-.5-2-1.7-2.5-7.7-.5-5.8-1.1-7.5-3.1-9.6-3.6-3.6-9-3.5-12.2.3-2 2.3-2.4 3.8-2.4 9.7v6.9h-4c-2.2 0-4 .4-4 1 0 1.1 9.3 1.4 10.3.3.4-.3.2-1.2-.4-2-.8-.8-1-3.6-.6-7.5.6-7 2.8-9.8 7.7-9.8 4.4 0 6.4 3.2 6.8 11.1l.4 6.9h-5.6c-3.1 0-5.6.4-5.6 1 0 .7 4 .9 11 .8l11.1-.3.2-39.3.2-39.3h17.8c9.7 0 18.2.3 18.7.6.6.4 1 14.4 1 37.7 0 33.2-.2 37.3-1.7 39-1.6 1.7-1.3 1.8 6 1.7 4.3-.1 7.7-.5 7.7-1.1 0-.5-.8-.8-1.7-.7-1 .1-3.5.1-5.5 0l-3.8-.1v-38.3c0-26.2.3-38.6 1.1-39.4s.8-1.3 0-1.7c-.6-.4-1.1-3.4-1.1-6.8 0-4.9-.9-8.1-5.1-18.1-2.7-6.7-5.5-13.3-6.1-14.7-.7-1.4-1.1-4.2-.9-6.3.2-2.2-.2-3.7-.8-3.7s-1.1 1.2-1.1 2.6c0 2.2-.4 2.5-2.7 2.2-2.1-.2-2.9-.9-3.2-2.8l-.4-2.5-.6 2.5c-.5 1.8-1.5 2.6-3.4 2.8-2.3.3-2.7 0-2.7-2.2 0-1.4-.5-2.6-1.1-2.6-.8 0-1 1.4-.6 3.9m15.7 5.3c0 .2 1.4 3.7 3.1 7.8 6.2 14.9 7.9 19.4 7.5 19.8-1 .9-35.1.2-35.4-.7-.3-1 3.7-12.2 8-22.4l2-4.7h7.4c4.1 0 7.4.1 7.4.2m-185.8 34.5c-2.9 1.2-4.2 6.2-4.2 16.8 0 8.7-.3 10.5-1.5 10.5-.8 0-1.5.4-1.5 1s7.8 1 21.5 1c19.2 0 25.5-.7 19.5-2.3-1.9-.5-2-1.4-2-11.9 0-10.7-.2-11.6-2.3-13.6-1.3-1.2-3.5-2.2-4.9-2.2-7.1 0-8.8 3.4-8.8 17.5 0 8.7-.3 10.5-1.5 10.5s-1.5-1.9-1.5-10.9c0-10.3-.1-11.1-2.6-14-2.5-3-6.4-3.9-10.2-2.4m8.3 2.8c2.4 2.3 2.5 3.1 2.5 13.5v11h-13v-11.2c0-10.1.2-11.4 2.2-13.5 2.8-3 5.3-2.9 8.3.2m20 0c2.4 2.3 2.5 3.1 2.5 13.5v11h-13v-11.2c0-10.1.2-11.4 2.2-13.5 2.8-3 5.3-2.9 8.3.2M131 362c-9.1.3 9.1.7 40.4.8s56.7 0 56.4-.4c-.8-.7-76.3-1-96.8-.4"/><path d="M306.5 362c-14.5.4-2.9.6 34.3.8 30.9.1 56.2-.1 56.2-.6 0-.8-57.9-1-90.5-.2M86 378.8c-6 2.9-7 6.5-7 23.9 0 9.6.4 15.3 1 15.3s1-5.9 1-15.6c0-12.8.3-16.1 1.7-18.4 4.1-7 14.5-6.6 18.2.7 1.6 3.2 1.5 33.3-.1 33.4-.7 0-4.3 0-8-.1s-6.9.3-7.3.9c-.4.8 2.8 1.1 10.1 1.1 8.4 0 10.5-.3 9.6-1.2-.8-.8-1.2-5.8-1.2-16 0-16.9-1-20.6-6.2-23.8-4.1-2.5-7.2-2.5-11.8-.2m328.2.2c-5.3 3.3-6.2 6.9-6.2 23.8 0 10.2-.4 15.2-1.2 16-.9.9 2.1 1.2 13.7 1.2s14.6-.3 13.7-1.2c-.8-.8-1.2-5.8-1.3-15.7 0-8.6-.5-16-1.2-18-2.4-6.9-11.3-10-17.5-6.1m13.1 2.4c3.6 3.3 3.8 4.9 3.5 22.1l-.3 15h-20l-.3-15.5c-.3-12.9 0-16 1.3-18.6 3.1-5.8 11.2-7.3 15.8-3M115 383c0 .7 19.5 1 56.5 1s56.5-.3 56.5-1-19.5-1-56.5-1-56.5.3-56.5 1m168.5 0c.4.6 20.5 1 57.1 1 36.9 0 56.4-.3 56.4-1s-19.7-1-57.1-1c-37.7 0-56.8.3-56.4 1m-160.8 11.8c-1.2 1.3-1.7 3.7-1.7 8 0 4.8-.4 6.3-1.7 7.1-1.3.7 14.7 1 51.2 1.1h53.1l-.7-7.7c-.4-5.7-1-7.9-2.4-9-4.6-3.3-6.9-.9-7.5 7.9-.4 6.1-.8 7.3-2.4 7.6-2.6.5-3.6-1.5-3.6-7.9 0-4.1-.5-6-1.8-7.2-2.4-2.2-3.8-2.1-6.2.3-1.6 1.6-2 3.3-2 8.6 0 6.2-.1 6.5-2.2 6.2s-2.3-1-2.8-7.3c-.5-6.2-.8-7.1-3.2-8.4-2.4-1.4-2.8-1.4-4.7.3-1.6 1.4-2.1 3.3-2.3 8.5-.3 6-.5 6.6-2.5 6.9-2.2.3-2.3 0-2.3-6.2 0-5.3-.4-7-2-8.6-4.4-4.4-7.8-1.2-8.2 8-.2 5.4-.6 6.5-2.2 6.8-2.7.5-3.6-1.5-3.6-8 0-4.9-.3-6-2.4-7.3-4.8-3.1-7.6.6-7.6 10.1 0 5.2-.2 5.5-2.2 5.2-2.1-.3-2.3-1-2.8-7.3s-.7-7.1-3.3-8.5c-2.7-1.4-2.9-1.4-4.8.9-1.4 1.8-1.9 3.9-1.9 8.7 0 6.2-.1 6.4-2.5 6.4s-2.5-.2-2.5-6.5c0-5.2-.4-6.9-2-8.5-2.5-2.5-4.2-2.5-6.3-.2m5.7 1.8c.3.9.6 4.3.6 7.5v6l-3.2-.3c-3.2-.3-3.3-.4-3.6-5.5-.2-2.9.2-6.2.8-7.3 1.3-2.4 4.5-2.7 5.4-.4m15.6.4c.6 1.1 1 4.4.8 7.3-.3 5.1-.4 5.2-3.5 5.5l-3.3.3v-6.9c0-3.8.3-7.2.7-7.5 1.3-1.4 4.3-.6 5.3 1.3m14.9-.6c.7.9 1.1 3.8.9 7.3-.3 5.7-.3 5.8-3.3 5.8s-3-.1-3.3-5.8q-.45-8.7 3.3-8.7c.7 0 1.8.6 2.4 1.4m14.9-.2c.7.7 1.2 3.9 1.2 7.6v6.3l-3.2-.3c-3.2-.3-3.3-.4-3.6-5.5-.4-7.6 2.2-11.5 5.6-8.1m16.2.8c.6 1.1 1 4.4.8 7.3-.3 5.1-.4 5.2-3.5 5.5l-3.3.3v-6.9c0-3.8.3-7.2.7-7.5 1.3-1.4 4.3-.6 5.3 1.3m15 0c.6 1.1 1 4.4.8 7.3-.3 5.1-.4 5.2-3.5 5.5l-3.3.3v-6.3c0-6.3 1.1-8.8 3.7-8.8.7 0 1.7.9 2.3 2m14.8-.8c.7.7 1.2 3.9 1.2 7.6v6.3l-3.2-.3c-3.3-.3-3.3-.4-3.6-6.1-.4-7.5 2.2-10.9 5.6-7.5m71.8-1.6c-1.9 1.8-2.4 4-2.8 11.2l-.3 5.2h104l-.5-6.9c-.7-9.9-4.5-13.6-9.1-9-1.7 1.7-2 3-1.7 8.2.3 6 .2 6.2-2.2 6.2s-2.5-.3-2.8-6.8c-.3-5.9-.6-6.9-2.7-8.3-2.3-1.5-2.7-1.5-5 0-2.1 1.4-2.4 2.4-2.7 8.3-.3 6.2-.5 6.8-2.5 7.1-2.2.3-2.3 0-2.3-6.2 0-5.3-.4-7-2-8.6-4.5-4.5-7.4-1.9-8 7.2-.4 6.1-.8 7.3-2.4 7.6-2.7.5-3.6-1.5-3.6-8 0-8.1-3.6-11.2-8-6.8-1.6 1.6-2 3.3-2 8.6 0 6.2-.1 6.5-2.2 6.2s-2.3-.9-2.6-7.1c-.3-5.9-.6-6.9-2.7-8.3-2.3-1.5-2.7-1.5-5 0s-2.5 2.3-2.5 8.7c0 6.7-.1 7-2.2 6.7s-2.4-1-2.8-7.1c-.4-5.3-1-7.2-2.4-8.3-4.6-3.3-7.4-.2-7.8 8.6-.3 5.8-.5 6.5-2.4 6.8-2 .3-2.2-.2-2.6-6.9-.3-5.5-.8-7.4-2.3-8.5-2.4-1.8-4-1.8-5.9.2m5.3 1.8c.7.9 1.1 3.8.9 7.3-.3 5.7-.3 5.8-3.5 6.1l-3.3.3v-6.3c0-6.2 1.1-8.8 3.6-8.8.6 0 1.7.6 2.3 1.4m15.9 6.4.3 7.3-3.3-.3c-3.2-.3-3.3-.4-3.6-5.5-.4-6.3 1.1-9.5 4.1-9.1 2 .3 2.2 1 2.5 7.6M328 397c.6 1.1 1 4.4.8 7.3-.3 5.1-.4 5.2-3.5 5.5l-3.3.3v-6.9c0-3.8.3-7.2.7-7.5 1.3-1.4 4.3-.6 5.3 1.3m14.9-.6c.7.9 1.1 3.8.9 7.3-.3 5.7-.3 5.8-3.3 5.8s-3-.1-3.3-5.8q-.45-8.7 3.3-8.7c.7 0 1.8.6 2.4 1.4m15.5.2c.3.9.6 4.3.6 7.5v6l-3.2-.3c-3.3-.3-3.3-.4-3.6-6.1-.2-3.5.2-6.4.9-7.3 1.5-1.9 4.5-1.8 5.3.2m15.6.4c.6 1.1 1 4.4.8 7.3-.3 4.9-.5 5.2-3.2 5.5-1.6.2-3.2-.2-3.7-.9-.7-1.2-.3-9.6.7-12.7.6-1.9 4.2-1.4 5.4.8m15 0c.6 1.1 1 4.4.8 7.3-.3 5-.4 5.2-3.3 5.2s-3-.2-3.3-4.9c-.2-2.7-.1-6 .3-7.3.7-2.9 4-3.1 5.5-.3m-246.3 19.7c15.5.2 41.1.2 57 0 15.8-.1 3.2-.2-28.2-.2s-44.3.1-28.8.2m169 0c15.5.2 41.1.2 57 0 15.8-.1 3.2-.2-28.2-.2-31.3 0-44.3.1-28.8.2m-158.2 10.4c-3.7 2.1-4.5 4.1-4.5 11.1 0 7.5-1.5 9.4-6.7 8.2-2.1-.4-2.4-.3-1.4.4 1.8 1.3 21.1 1.3 21.1.1 0-.5-2.7-.9-6-.9h-6v-6.4c0-4.9.5-6.9 2.1-9 2.5-3.1 7-3.5 9.8-.7 2.2 2.2 3.8 13.8 2.2 15.4-.6.6-1.1 1.4-1.1 1.8 0 1.1 32.8 1 33.5-.1.3-.5.1-1-.4-1-.7 0-1.1-2.5-1.1-6 0-7.3-1.8-11.3-6-13-6.9-2.9-12 2.8-12 13.4 0 3-.5 5.6-1 5.8-.6.2-3.1.2-5.5 0l-4.5-.4V439c0-5.7-.4-7.3-2.2-9.4-2.6-3-7.4-4.1-10.3-2.5m37.3 2.9c1.4 1.3 2.3 3.4 2.3 5.5.1 1.9.2 5 .3 6.7l.1 3.3-7.2.3-7.3.3v-6.7c0-5.6.4-7.2 2.2-9.1 2.7-2.8 6.7-3 9.6-.3m20.1-2.5c-3.5 1.9-4.2 3.6-4.8 12l-.6 7-3.9-.3c-2.2-.2-3.6 0-3.2.6.3.5 7.1 1 15.3 1 9.9.1 14.1-.2 12.6-.8-1.9-.8-2.3-1.7-2.3-5.7 0-7.5-1.7-12.1-5-13.8-3.5-1.8-4.7-1.8-8.1 0m8.8 2.7c2 1.8 2.3 3.1 2.3 8.9v6.7l-6 .4c-3.3.1-6.5.2-7 0-.6-.2-1-3.3-1-7 0-5.4.4-7 2.2-8.9 2.7-2.9 6.5-2.9 9.5-.1m131.8-3.2c-3.8 1.5-5 4.1-5.5 11.9l-.5 7.6-3.7-.3c-2.3-.2-3.8.1-3.8.7 0 .7 3.5 1.1 10 1.1 6 0 10-.4 10-1s-2.2-1-5-1h-5v-7c0-5.8.3-7.2 2.2-9 3.1-2.8 7.2-2.6 9.7.6 1.6 2.1 2.1 4.1 2.1 9 0 4.1-.4 6.4-1.2 6.7-.9.3-.7.7.5 1.2.9.4 2.5.4 3.5 0 1.1-.5 1.3-.9.5-1.2s-1.3-2.3-1.3-5.1c0-7.4-1.7-12-5-13.7-3.2-1.7-4.5-1.8-7.5-.5m62.1 1.1c-3.7 2.9-4.9 5.5-5.5 12.4-.4 3.6-1.1 6-1.8 6-.6 0-1.4.3-1.8.6-.3.4 6.4.7 15 .8 9.9.1 15.5-.2 15.5-.9 0-.5-.4-1-1-1-.5 0-1-1.7-1-3.8 0-10-4.8-16.2-12.4-16.2-2.9 0-5.2.7-7 2.1m10.8.3c4.9 2 6.6 5.1 6.6 11.8v5.8h-21v-5.8c0-6.6 1.7-9.7 6.4-11.8 3.9-1.7 4-1.7 8 0M60 447c0 .5.5 1 1 1 .6 0 1-.5 1-1 0-.6-.4-1-1-1-.5 0-1 .4-1 1m21.3 4.7c9.2.2 24.2.2 33.5 0 9.2-.1 1.6-.3-16.8-.3s-26 .2-16.7.3m58.9-.2c.6.7 306 .7 306.6 0 .3-.3-68.7-.5-153.3-.5s-153.6.2-153.3.5"/></g></svg>