<svg xmlns="http://www.w3.org/2000/svg" width="682.667" height="682.667" viewBox="0 0 512 512" fill="#6b7280"><path d="M201.5 87.9c-1.1 1.9 6.6 2.2 54.4 1.9 37.7-.2 48.5-.6 48.9-1.6.3-.9-10.4-1.2-51.2-1.2-31.4 0-51.7.4-52.1.9m-45.9 26.3c-.3 9.5-.2 16.6.3 17.1 2.4 2.4 3.1-.9 3.1-15.4V101l94.3.2 94.2.3v15c0 12.7.2 15 1.5 15s1.5-2.6 1.8-16.8L351 98H156.3zm-28.4 45 .3 17.3 125.7.3 125.8.2.5-2.2c.3-1.3.4-9.1.3-17.3l-.3-15-126.3-.3L127 142zm249.6.1.3 14.7H130v-29l121.8-.3c66.9-.1 122.4-.2 123.2-.2 1.3 0 1.5 2.5 1.8 14.8M115 187.9c0 1.6 10.1 1.7 145.4 1.6 103.8 0 131-.3 131.4-1.3.3-.9-27.8-1.2-138.2-1.2-83.5 0-138.6.4-138.6.9M235 200l-109.5.5-.3 39.2-.2 39.3h-2.5c-1.4 0-2.5.4-2.5 1 0 .5 1.1 1 2.5 1h2.5v40h-2.5c-1.6 0-2.5.6-2.5 1.5s.9 1.5 2.5 1.5h2.5v83h-2.4c-1.4 0-2.8.4-3.1 1-.4.6.7 1 2.4 1h3.1v23h-9.6c-6.1 0-9.3.4-8.9 1 .8 1.4 293.5 1.4 293.5 0 0-.5-4.2-1.1-9.2-1.2l-9.3-.3v-22l2.8-.3c3.6-.4 3.5-1.8-.3-2.6l-3-.6v-82h2.5c1.6 0 2.5-.6 2.5-1.5s-.9-1.5-2.5-1.5H381l.2-19.8.3-19.7 2.8-.3c3.3-.4 2.6-2.2-.9-2.2H381v-78.8l-13.7-.5c-7.6-.3-15.8-.5-18.3-.4s-53.8.4-114 .7m142.8 40.7.2 38.3h-9.7l-.7-5.3c-.3-2.8-.6-7.1-.6-9.5V260h-44.9l-.3 9.2-.3 9.3-5.2.3-5.3.3-.2-33.8-.3-33.8-57.2-.3-57.3-.2v68h-10.9l-.3-9.3-.3-9.2h-45l-.3 9.3-.3 9.3-5.2-.3-5.2-.3-.3-36c-.1-19.8 0-37 .3-38.3l.5-2.2 124.3.2 124.2.3zm-70.3 5.3v32.5h-13l-.6-7.1c-.8-8.9-2.3-13.5-6.4-19.9-6.1-9.7-15.6-15.7-28.1-17.8-17-2.9-35.1 6.4-42.5 21.8-3 6.1-3.4 7.7-4.4 17.7l-.6 5.8H199v-66l54.3.2 54.2.3zm-41.1-7.9c10.6 3.9 18.5 11.8 22.7 22.6l2.2 5.8.1 82.5.1 82.5h-76l-.3-79.5c-.3-84-.2-87.2 4.3-96 2.5-5 11.3-13.8 16.3-16.4 9.5-4.9 20.2-5.4 30.6-1.5M182 271v8h-19.9c-17.2 0-20-.2-20.5-1.6-.8-2.1-.8-12.9.1-13.7.3-.4 9.6-.7 20.5-.7H182zm183 0v8l-20.2-.2-20.3-.3-.3-7.8-.3-7.7H365zm-226.2 30.3.2 19.8-5.2-.3-5.3-.3-.3-18.5c-.1-10.1 0-19 .3-19.8.3-.9 2-1.2 5.2-1l4.8.3zm43-.1.2 19.8h-39.7l-.7-18.3c-.4-10-.4-19-.1-20 .7-1.6 2.4-1.7 20.4-1.5l19.6.3zm14 0 .2 19.8h-11v-19.3c0-10.7.3-19.7.7-20.1s2.8-.6 5.3-.4l4.5.3zM212 300c.3 10.2.3 19.1.1 19.7-.2.9-2.4 1.3-6.7 1.3H199v-40.1l6.3.3 6.2.3zm95.8 1.3.2 19.8-6.7-.3-6.8-.3-.3-18.5c-.1-10.1 0-19 .3-19.8.3-.9 2.2-1.2 6.7-1l6.3.3zm13.6-.3-.1 19.5-5.1.3-5.2.3v-40.2l5.3.3 5.2.3zm43.6 0v20l-20.2-.2-20.3-.3-.3-18.5c-.1-10.1 0-19 .2-19.7.4-1 5.2-1.3 20.6-1.3h20zm12.8.2.2 19.8h-4.8c-4.9 0-4.9 0-5.6-3.8-.8-4.9-.8-29.1 0-33.1.6-3.1.8-3.2 5.3-2.9l4.6.3zm-196 64.1-.3 41.2-19.7.3-19.8.2-.6-2.6c-.8-3 .1-78.8.9-80.1.3-.4 9.3-.7 20.1-.5l19.6.3zm29.7-41.2c.2.2.5 18.8.6 41.4l.3 41h-12.9l-.3-40.5c-.1-22.3 0-41 .2-41.7.4-.8 2.4-1.1 6.1-.9 3.1.2 5.8.6 6 .7m153 41.1v41.3h-40v-82l3-.5c1.7-.4 10.7-.5 20-.4l17 .3zm10.1-41.2h3.4l-.2 41.2-.3 41.3-4.6.3c-4.4.3-4.7.2-5.2-2.7-.8-4.1-.9-72.1-.1-77.2.5-2.9 1.1-3.9 2.1-3.5.8.4 3 .6 4.9.6M139 365.6v41.5l-5.2-.3-5.3-.3-.3-40c-.1-22 0-40.6.3-41.2.3-.8 2.4-1.3 5.5-1.3h5zm57-.7c0 26.3-.4 41.2-1 41.6-.6.3-3 .3-5.5-.1l-4.5-.6V324h11zm111.8.3-.3 41.3-5 .2c-9.4.3-8.5 4.5-8.5-41.8V324h14zm13.5.3.2 41-2.9.3c-1.6.2-3.9.1-5.2-.2l-2.4-.6v-82.1l5 .3 5.1.3zM138.8 417c.4 9.5 2.2 11.9 2.2 2.9 0-3.5.3-7.4.6-8.7l.6-2.2 19.7.2 19.6.3.3 7.7c.2 5.9.6 7.8 1.7 7.8s1.5-1.9 1.7-7.8l.3-7.7h10v22h-67l-.3-9.9c-.1-5.5 0-10.6.3-11.3.3-1 1.9-1.3 5.2-1.1l4.8.3zm73.5 2.7c.3 6 .3 11.1 0 11.5-.2.5-3.3.8-6.9.8H199v-23h12.7zm95.2.8v11h-13l-.3-9.9c-.1-5.5 0-10.6.2-11.3.4-1 2.2-1.3 6.8-1.1l6.3.3zm14.3-2.8c.2 4.6.7 8.3 1.2 8.3s1-3.7 1.2-8.3l.3-8.2 20.3-.3 20.2-.2v8.5c0 5 .4 8.5 1 8.5s1-2.1 1-4.8c0-2.6.3-6.4.6-8.5l.7-3.8 4.6.3 4.6.3v22h-66l-.3-11.3-.3-11.3 5.3.3 5.3.3z"/><path d="M155.3 224c-11.3 6.9-8.3 23.3 4.7 25.5 5.1.9 10.6-1.7 13.7-6.4 7.7-11.5-6.6-26.4-18.4-19.1m14.6 4.5c4.5 5.1 4.4 10.4-.3 15.1-2.8 2.8-4.2 3.4-7.6 3.4s-4.8-.6-7.6-3.4-3.4-4.2-3.4-7.6.6-4.8 3.4-7.6c2.9-2.9 4.1-3.4 7.9-3.4 3.9 0 4.9.5 7.6 3.5m167.4-4.4c-4.5 2.9-6.5 6.5-6.6 11.9-.1 6.1 2.2 9.6 8 12.2 7.8 3.4 15.6.4 18.7-7.2 4.8-12.1-9.1-23.9-20.1-16.9m11 1.3c4.4 1.8 6.7 5.6 6.7 10.8-.1 6.7-4.4 10.8-11.3 10.8-4.1 0-9.2-4.2-10.3-8.4-.9-3.9 1.6-9.7 5.5-12.3 3.9-2.7 5-2.8 9.4-.9"/></svg>