<svg version="1.0" xmlns="http://www.w3.org/2000/svg" width="682.667" height="682.667" viewBox="0 0 512 512"><g fill="#6b7280"><path d="M256.6 61.2c-.3 1.3-1.4 11.7-2.5 23.3-1.1 11.5-2.6 26.8-3.2 33.9-.7 7.1-1.7 13-2.3 13.1-.6.2-6.3.9-12.6 1.4-38.2 3.5-44.4 4.2-44.7 4.5-.2.1.3 1.6 1.1 3.2 2.2 4.3 4.9 27.4 4.8 39.9 0 6-.3 16.5-.7 23.2-.6 10.4-.5 12.3.8 12.3 1.4 0 2.3-14.8 2.6-45.5.2-10.9.8-17.1 2.2-19.7 1.2-2.2-.7-3.4-2.7-1.7-1.9 1.6-2.3 1.1-3-4.4l-.7-4.7h4.1c3.6 0 4.2.3 4.8 2.5.3 1.4.3 3.6 0 4.9-.3 1.4-.2 2.7.3 3s1.5 6 2.1 12.6c1.2 10.9 2.1 14.2 3.7 12.7.3-.3 0-4.5-.6-9.4-.6-4.8-1.3-10.8-1.6-13.3s-.8-6-1.1-7.9c-.4-2-.2-3.6.4-4s5.7-.3 11.4.1c28.7 2.1 40.4 2.4 52.3 1.6 7.2-.4 18.1-1.2 24.3-1.6s11.8-.4 12.4-.1c.6.4.8 2 .4 4-.7 3.2-1.4 9.2-3.1 24.1-.5 4.7-.4 6.8.3 6.8 1.4 0 1.9-1.9 3.2-13 1.3-11.2 1.7-13 3.4-13 2.9 0 3.6 2.5 3.6 13.6 0 6.2.4 11.6 1 11.9 1.2.7 1.7-1.5 3-12.5 2.6-21.3 2.8-22.1 4.6-23.5 1.1-.7 1.6-1.6 1.3-1.9s-7.9-1.2-17-2c-37.6-3.5-41.4-3.9-42-4.8-.6-1-1.7-10.7-4.9-43.8-2.6-26.3-2.9-28-4-28-.5 0-1.2 1-1.4 2.2m4.4 42.9c2.8 29.4 3 27.1-2.7 26.7l-4.8-.3.2-7.5c.2-6.9 1.5-24.3 2.9-38 1-9.3 2.3-3.6 4.4 19.1m11 29.9c15.8 1.3 26.8 2.8 27.5 4 .3.4-3.9 1.1-9.2 1.5-22.4 1.7-75.7.5-73.6-1.6.9-.9 10-2.2 25.8-3.7 13.3-1.3 14.8-1.3 29.5-.2m48 10.3c0 2.4-.2 4.6-.5 4.9-1 1-6.8-.7-7.8-2.3-.5-.9-.7-2.8-.3-4.2.6-2.4 1.1-2.7 4.6-2.7h4z"/><path d="M214.7 150.1c3.9.9 4.3 1.3 5 5.2 1 5.1 2.8 5.1 2.8-.1v-3.7l7 .1c9 .1 46.8.1 56.5 0l7.5-.1.3 3.7c.4 4.7 1.8 4.9 2.6.4.8-4 2-5.2 6.1-5.9 1.7-.3-6.7-.2-18.5.1-25.1.8-25.1.8-52.5 0-14.8-.5-19.8-.4-16.8.3m6.9 15.7c-.3.5 1.7 18.4 4.4 39.8 2.8 21.4 5.7 44.3 6.5 50.9s2.4 18.5 3.5 26.5 2.9 22.4 4 32c1.2 9.6 2.7 18.6 3.3 20 1.1 2.3 1.2 2 1.7-3.5l.5-5.9 6-1.9c6.2-1.8 10.2-1.5 17.8 1.5 2.6 1 2.7 1.3 2.1 5.9-.4 3.3-.3 4.9.5 4.9 1.3 0 1.6-1.4 3.6-17.5.9-7.2 2.5-19.8 3.5-28 5.7-43.1 11.4-87 14.6-111.9.8-6.5 1.2-12.1.9-12.4-1.4-1.4-2.4 2.2-3.9 13.8-1 6.9-2 12.8-2.4 13.2-.6.6-6-.8-25.4-6.8-4.4-1.3-5.3-1.3-11 .5-16.9 5.2-24 7.2-24.3 6.9-.1-.2-1-6.4-2-13.8-1.7-13-2.6-16.3-3.9-14.2m53.4 27.1c6.3 1.8 11.9 3.6 12.4 4.1.4.4.2 5.5-.5 11.4-1.1 8.9-1.6 10.6-3 10.6-1 0-7.1-1.6-13.6-3.6l-11.8-3.6-12.7 3.7c-7 2.1-13.4 3.5-14.1 3.2-1.7-.6-4.5-20.4-3.1-21.7.5-.5 6.3-2.4 12.9-4.4 14.4-4.2 17.6-4.2 33.5.3m-3.9 25.7c6.8 2 12.7 3.9 13.1 4.3.9.8-.9 17.5-2.2 20.7l-.9 2.2-8.5-2.8c-13.7-4.5-13.6-4.5-26.2-.9-6.3 1.7-11.6 3-11.9 2.7-1-.9-2.5-11.3-2.5-16.9s.1-5.9 2.8-6.5c1.5-.4 7-1.9 12.2-3.5 5.2-1.5 10-2.8 10.6-2.8.6-.1 6.6 1.5 13.5 3.5m-.9 26.4c5.6 1.7 10.4 3.3 10.7 3.5.5.5-1.8 21.5-2.5 22.7-.2.3-3.5-.5-7.3-1.7-11.4-3.9-12.9-4-23.5-.9-5.3 1.5-9.9 2.5-10.1 2.2-.7-.6-2.4-14.3-2.5-19 0-3.6.1-3.7 5.8-5.3 3.1-.9 7.5-2.2 9.7-2.9 6.1-2 8.7-1.9 19.7 1.4m.5 26.7c6 1.5 7.3 2.2 7.3 3.8 0 4.2-2.2 20-2.9 20.8-.4.4-4.4-.2-8.9-1.4l-8.2-2.2-8.1 2.1c-4.4 1.2-8.4 2-8.9 1.7-.9-.6-3.4-19.8-2.8-21.6.7-2 18.7-6.7 22.3-5.8 1.6.4 6.3 1.6 10.2 2.6m-4.1 25.7c7.9 2.3 7.9 2.3 7.8 5.7-.2 6-1.7 17.7-2.4 18.9-.5.9-2.4.7-7.2-.8-6.3-2-6.6-2-13.1-.2-5 1.4-6.9 1.6-7.4.7-1.1-1.6-3.3-18.8-2.7-20.8.3-1 3.2-2.4 7.7-3.7 9.2-2.6 8-2.6 17.3.2m49.9-118.2c-.4 1-.2 11.4.4 23 .6 11.7 1.1 26.5 1.1 32.8s.5 20.2 1.2 30.7c.6 10.6.8 19.6.4 20s-2.1.7-3.9.8c-4.8 0-4.9 2-.1 2.3 3.8.3 4.2.6 4.8 3.5.5 2.3.9 2.8 1.4 1.7 1.4-2.6-2.3-112.2-3.8-114.9-.8-1.4-.9-1.4-1.5.1"/><path d="M195.7 220.6c-.3.3-.6 8.7-.7 18.7s-.7 31-1.3 46.7l-1.2 28.5-10.9.3c-6.1.1-11.6.8-12.3 1.4-.9.7-1.3 4.3-1.3 12.4 0 6.5-.4 11.5-1 11.9-.7.4-.7 1.2 0 2.5.5 1 1 4.4 1 7.5s-.5 6.5-1 7.5c-.7 1.3-.7 2.1 0 2.5.5.3 1 3.7 1 7.4 0 9.9-1.4 11.3-10.5 10.9l-7-.3-.3-7.3-.3-7.2H136c-15.3 0-14.7-.3-14.1 6 .1 1.3 0 3.9-.4 5.7-.6 3.2-.6 3.2-7.3 3.5l-6.7.3-.6 17.5c-.3 9.6-.6 17.6-.7 17.7-.1.2-.9.3-1.7.3s-1.5.7-1.5 1.5.6 1.5 1.4 1.5c1.9 0 2.6 3.2 2.6 13.2 0 11.6-.1 11.8-6.5 11.8-3 0-5.7.4-6 1s0 1 .7 1h320.6c.7 0 1-.4.7-1s-1.9-1-3.5-1-3-.7-3.4-1.6c-.3-.9-.6-11.2-.6-23 0-16.4-.3-21.4-1.2-21.5-9.4-.4-68.9.1-69.7.6-1.7 1-1.5 26.8.2 26.3.8-.3 1.4-4.1 1.7-12.4l.5-11.9 5.4-.5c3-.3 7.3-.3 9.5 0l4.1.5.3 21.8.2 21.8-9.7-.3-9.8-.3-.3-5.8c-.2-4.1-.7-5.7-1.7-5.7s-1.5 1.6-1.7 5.7c-.3 5.8-.3 5.8-3.7 6.1-1.8.2-3.8-.1-4.3-.6s-1.4-14.2-1.8-30.3c-.5-16.2-1.2-36.5-1.6-45.2l-.7-15.7h28.5l-.6-2.3c-.3-1.2-.6-6.9-.6-12.7s-.4-11.1-.9-11.9c-.6-1-3.7-1.3-12-1.3-10.5 0-13.3.4-11.8 1.8.3.3 5.1.7 10.6.8 5.6.2 10.3.5 10.5.7s.6 5.2.8 11.2l.3 10.7h-24.3l-.6-9.3c-.3-5-.8-15.7-1.1-23.7-.7-14.8-1.9-19.7-3.1-12.2l-.7 4.2h-6.3c-8.5 0-8.2 1.8.4 2.2l6.7.3v17l-8.7.3c-11.6.4-11.4 2.2.1 2.2 10.3 0 10.1-.2 10.1 10.1v6.9h-11.5c-10.8 0-11.5.1-11.5 2s.5 2 11.4 1.5l11.3-.5.6 8.1c.4 4.5.4 8.6.1 9-.3.5-6.6.9-14 .9-18 0-17.8 1.9.4 2.2l13.7.3.3 8.7.3 8.8H307c-13.6 0-16 .2-16 1.5s2.4 1.5 16 1.5c18.4 0 17.4-.7 16.8 11l-.3 6.5-18 .2c-11.5.1-18.1.6-18.3 1.3-.3.7 5.7 1 18.2 1h18.5l.6 3.2c.4 1.8.5 5.8.3 8.8l-.3 5.5-20.7.3c-12.4.1-20.8.6-20.8 1.2s8.4 1.1 20.8 1.2l20.7.3.3 6.3.3 6.2H260v-4.3c.1-2.3.5-6.2 1-8.7 1-5.5-.2-7.3-2.4-3.4-.8 1.6-1.5 2.4-1.6 1.7 0-1.5-2.7-23.8-4-33.3-.6-4.1-2.4-18-3.9-30.9-1.6-12.8-3.4-23.8-4-24.4-2-2-1.9-.7 4.8 52.3 2.2 17.3 4.5 34.9 5 39 .6 4.1 1.1 8.5 1.1 9.7v2.3h-65.1l.3-6.2.3-6.3 20.8-.3c27.5-.3 27.5-2.1 0-2.4l-20.8-.3-.3-5.5c-.2-3-.1-7 .3-8.8l.6-3.2h18.4c11.7 0 18.5-.4 18.5-1s-6.5-1-17.4-1c-20.7 0-20.2.3-19.3-10.1.3-3.9.8-7.3 1-7.5s7.4-.4 15.9-.5c12.6 0 15.7-.3 16.2-1.5s-2.1-1.4-16-1.4h-16.5l.3-8.8.3-8.7 13.8-.3c18.1-.3 18.3-2.2.2-2.2-10 0-13.7-.3-14-1.3-.2-.6-.1-4.6.3-8.7l.7-7.5 10-.1c13-.2 12.5-.2 12.5-1.9 0-1.2-1.9-1.5-10.9-1.5-6.1 0-11.3-.4-11.6-1-.3-.5-.3-4.3.1-8.5l.7-7.5h8.3c11.3 0 11.9-1.8.7-2.2l-8.8-.3v-17l6.3-.3c7.9-.4 8.1-2.2.2-2.2h-6v-18h4.6c5.3 0 5.8-2.5.6-2.6-1.8 0-3.6-.4-4.1-1-.9-.8 0-37.7 1.3-57.7.4-5.9.2-7.7-.8-7.7-.7 0-1.5.3-1.9.6m-3.5 98.6c.3.7.1 9.4-.3 19.3-.5 9.9-1.4 30.1-2 45-.6 14.8-1.3 27.2-1.4 27.5-.2.3-4.1.3-8.7 0l-8.3-.5-.3-7.3-.3-7.2h7.5c7.6 0 10.8-1.4 6.1-2.6-1.4-.4-4.6-.4-7-.2-2.4.3-4.8.2-5.5-.2s-1-3.2-.8-7.6l.3-6.9 7.8-.3c4.2-.2 7.7-.7 7.7-1.2s-3.5-1-7.7-1.2l-7.8-.3-.3-7.3-.3-7.2h8.1c6.3 0 8-.3 8-1.5 0-1.1-1.8-1.5-7.7-1.7l-7.8-.3v-14l7.8-.3c5.9-.2 7.7-.6 7.7-1.7 0-1.2-1.7-1.5-8-1.5h-8v-10.3c0-5.7.3-10.7.7-11 1.3-1.3 20.1-.8 20.5.5m-44.7 53.3v6l-11.1.3c-10.9.3-11.2.2-11.8-2-.8-3-.8-7.2 0-9.2.5-1.4 2.3-1.6 11.8-1.4l11.1.3zm20.3 40V443l-29.2-.2-29.1-.3-.3-11.9c-.2-8.9.1-12.2 1-12.8.7-.5 12.3-.8 25.8-.7 17.4.1 24.5-.2 24.8-1s-6.3-1.1-24.1-1.1c-13.5 0-25.2-.3-26.1-.6-1.4-.5-1.6-2.9-1.6-15.8 0-8.4.3-15.6.7-15.9.3-.4 13.6-.7 29.4-.7h28.7zm215.7-11.3c.3 1.3.4 11.1.3 21.8l-.3 19.5h-20l-.3-20.5c-.1-11.2 0-21 .2-21.7.4-.9 3.3-1.3 10-1.3 9.1 0 9.6.1 10.1 2.2m23 0c.3 1.3.4 11.1.3 21.8l-.3 19.5-9.4.3c-6.9.2-9.7-.1-10.3-1-.9-1.4-1-39.1-.1-41.4.4-1.1 2.7-1.4 9.9-1.4 8.9 0 9.4.1 9.9 2.2m-217.7 18c.5 8.7-.2 9.3-9.5 9.3h-7.8l-.3-7.2-.3-7.2 7.3-.4c11-.5 10.3-.9 10.6 5.5m-1.3 17.4v5.9h-16l-.3-4.9c-.2-2.7-.1-5.4.1-6 .3-.8 3.2-1.1 8.3-1.1l7.9.1z"/><path d="M269.1 346.7c-.5 3.8-1.3 9.5-1.6 12.8-.5 5.1-4.2 33.9-6 47.2-.5 3.5-.3 4.3.9 4.3.9 0 1.6-.5 1.6-1.1 0-1.4 3.4-28.4 6-48.4 1.1-8.3 2.2-16.5 2.5-18.3.2-2.2 0-3.2-1-3.2-.9 0-1.7 2.3-2.4 6.7m80.1 26.2c.2 12.6.7 20.1 1.3 20.1 1.6 0 1.3-39.2-.3-39.8-1-.3-1.2 3.8-1 19.7m-243.8 77c-.2.2-.4.8-.4 1.3 0 .4 37.4.8 83.1.8 66 0 83-.3 82.6-1.2-.3-1-17.7-1.3-82.6-1.3-45.3 0-82.5.2-82.7.4m177.1-.1c-1.6 1.6.2 2.3 5.8 2 3.4-.2 6.2-.8 6.2-1.3 0-1-11-1.7-12-.7m20.5.9c0 1 11 1.3 51.5 1.3 42.1 0 51.5-.2 51.5-1.3s-9.4-1.3-51.5-1.3c-40.5.1-51.5.4-51.5 1.3"/></g></svg>