<svg version="1.0" xmlns="http://www.w3.org/2000/svg" width="682.667" height="682.667" viewBox="0 0 512 512"><g fill="#6b7280"><path d="M150.8 62.7c-.3 4.2-.7 5-3.3 6.2-3.6 1.6-7.3 4.8-8.8 7.6-1 1.8-2.8 15.7-2.6 19.5 0 .8.3 7.9.5 15.7.3 8 .9 14.3 1.5 14.3.5 0 1-1.2 1-2.8.1-1.5.4-7.9.8-14.2l.6-11.5h24l.6 13.5c.3 7.4.9 14.3 1.3 15.2.7 1.5-.5 1.7-13.4 2-7.8.2-14.4 0-14.6-.4-.3-.4-1.8-.2-3.5.4-2.9 1-3 1.2-2.7 6.7l.3 5.6h40l.3-3.9c.5-5.7-.5-8.6-2.8-8.6-1.9 0-2-.7-2-14.6 0-8 .5-15.4 1-16.4.7-1.3.7-2.1 0-2.5-.5-.3-1-3.4-1-6.8-.1-8.8-2.5-13.6-8.9-17.5-4.9-3.1-5.1-3.3-5.1-7.7 0-3.3-.4-4.5-1.4-4.5-1.1 0-1.6 1.4-1.8 4.7m7.1 9.7c4.8 2.6 6.5 6.2 6.6 14.6v7.5h-24l-.3-5c-.5-7.8.6-11.6 4.5-15.2 3.9-3.7 8.4-4.3 13.2-1.9m-16.5 59.9c.3 1.2.3 3.3-.1 4.5-.8 3.2-5 3-6.5-.4-1.1-2.3-1-2.9 1.1-4.5 3.1-2.5 4.8-2.4 5.5.4m27.5-.9c.7.8 1.1 2.7.9 4.3-.2 2.2-.8 2.8-2.7 2.8-3.3 0-4.8-2.6-3.3-5.9 1.3-2.9 3.3-3.3 5.1-1.2m-9.1.8c3.4 3.4-.3 6.8-7.3 6.8s-10.7-3.4-7.3-6.8c1.6-1.6 13-1.6 14.6 0M354 62.9c0 4.8-.1 5-4.5 7.1-5.9 2.8-8.1 6.8-8.9 15.8-.3 4.1-1 8.2-1.5 9.1-.6 1-.6 2.3 0 3.2.5.7.9 6.9.9 13.6 0 10.3.2 12.3 1.5 12.3s1.5-2.1 1.5-12.9.3-13 1.6-13.5c3.2-1.2 22.4-.7 22.9.6.3 1.1 1.5 20.8 1.5 25.5 0 .7.5 1.3 1 1.3.6 0 1-4.9 1-12.8 0-8.5.4-13.2 1.2-14 .9-.9.9-1.7 0-3.4-.6-1.3-1.2-5.5-1.4-9.4-.4-8.5-3.1-12.9-9.7-15.9-4-1.8-4.1-1.9-4.1-6.7 0-3.6-.4-4.8-1.5-4.8s-1.5 1.2-1.5 4.9m7.1 9.6c4.9 2.6 6.9 6.9 6.9 15.2V95h-24l-.6-2.6c-1-3.8.2-13 2-15.5 3.8-5.5 10.1-7.2 15.7-4.4m-25.6 57.8c-.4 1.3-.5 4.1-.3 6.3l.3 3.9h40v-12l-19.7-.3-19.8-.2zm9.5 4.1c0 3.2-2.6 5.3-4.8 3.9-2.4-1.4-2.7-5.4-.7-7 2.4-1.7 5.5.1 5.5 3.1m27.4-2.8c1.9 1.8 2 2.8.6 5.5-1.9 3.5-7 1.7-7-2.4 0-1.8 2.5-4.6 4.2-4.7.4 0 1.4.7 2.2 1.6m-8.8 2.1c.9 3.6-1.5 5.2-8 5.1-5.7 0-7.6-1-7.6-4.3 0-3.2.7-3.5 8.1-3.5 6.6 0 6.9.1 7.5 2.7m-226.5 11.1c-1.5 2.8-.9 44.4.7 44.9.9.4 1.2-4.7 1.2-23.1 0-13-.2-23.6-.5-23.6-.2 0-.9.8-1.4 1.8m29.1 21.9c.2 15 .7 23.8 1.3 23.8s1.2-1.1 1.4-2.5c.6-4.8-1.1-45-2-45-.6 0-.8 10-.7 23.7m174-21.5c-1.6 1.6-1.7 43.4-.1 44.3.6.4 1.2.5 1.4.4.7-.8 1.3-43.6.6-44.7-.5-.9-1-.9-1.9 0m29.3-.1c-.3.8-.4 11.1-.3 22.9.2 17.3.6 21.5 1.7 21.5s1.3-4 1.2-22c-.2-19.8-1-26.6-2.6-22.4m-37.8 7.6c-.4.3-.7 7.1-.7 15 0 11.8-.3 14.5-1.5 14.9-1.2.5-1.5 3.2-1.5 16 0 8.9.4 15.4.9 15.4 1.7 0 2-3.2 1.8-14.9-.3-9.7 0-11.7 1.5-13.6 1.5-2 1.9-4.7 2.2-16 .4-16.1-.1-19.4-2.7-16.8M174 168.5c0 12.9.3 15.7 1.5 16.1 1.2.5 1.5 3.1 1.5 14.5 0 11.7.2 13.9 1.5 13.9.8 0 1.5-.6 1.6-1.3 0-.6 0-7-.1-14.2-.1-10.3-.4-13.3-1.7-14.7-1.3-1.5-1.6-4.2-1.4-15.8.2-12.1 0-14-1.3-14-1.4 0-1.6 2.1-1.6 15.5"/><path d="M133.2 194.2c-.7.7-1.2 3.4-1.2 6 0 3.7.4 5 1.7 5.5 1 .4 8.6.7 17 .7l15.2.1.5 25.5c.2 14 .7 26.3 1.1 27.2.7 1.6-.2 1.8-10.1 1.9-6 .1-14.6.1-19.1 0-7.3-.2-8.3 0-9.2 1.8-.7 1.2-1.1 10.6-1.1 25.4 0 21 .2 23.5 1.8 25 1.4 1.3 5.2 1.5 23.4 1.6 21.7 0 21.8 0 22.3-2.2.3-1.2.4-13.2.3-26.7l-.3-24.5h-5l-.3-15.3-.3-15.2h83.5c65.7 0 83.7.3 84.3 1.2.4.7.8 6.4.8 12.7 0 7.7.4 11.5 1.2 11.8.7.3 1.3-2.8 1.8-9.9.9-14 .3-37.3-1-37.3-.5 0-1.2 2-1.5 4.5l-.5 4.5h-169l-.6-5.5c-.3-3-.2-5.7.3-5.8 3.6-1.5 5.4-10.2 2.6-13-.8-.8-6.6-1.2-19.3-1.2s-18.5.4-19.3 1.2M170 199c0 3.1-1.1 5-2.9 5-4.3 0-5.8-6.4-1.8-7.9 2.6-1 4.7.3 4.7 2.9m-28.5-1c.8 2.6-1.1 6-3.5 6-2.7 0-4.4-3.4-3-6s5.7-2.7 6.5 0m18.5-.5c1.6 1.9.4 5.2-2.3 5.9-8.7 2.3-16.9-1.8-12.5-6.2 1.8-1.8 13.3-1.6 14.8.3m178.5 25.6c.4.5.4 2.1.1 3.5l-.6 2.4H170v-7h83.9c57.9 0 84.2.3 84.6 1.1M172.3 264c.4 0 .6 8.4.5 18.6l-.3 18.6-19.9-.1c-11-.1-20.3-.4-20.8-.7-.4-.3-.8-8.1-.8-17.4 0-12.6.3-17.2 1.3-18.2 1.2-1.1 18-1.5 40-.8m.7 42.1c.9 1.5.8 2.5-.2 4.1-1.3 1.9-2.3 2-20.3 1.8-19.2-.1-21.5-.5-21.5-3.9 0-3.8 1.9-4.1 21.7-4.1 18.4 0 19.3.1 20.3 2.1"/><path d="M165.6 270.7c-.8.8-.8 25.6 0 27.7 1.6 4.1 2.4-.7 2.4-13.4 0-12.6-.6-16.1-2.4-14.3M137 285c0 11.8.2 14 1.5 14s1.5-2.2 1.5-14-.2-14-1.5-14-1.5 2.2-1.5 14m14 0c0 10.9.3 14.1 1.3 13.7.9-.3 1.2-3.9 1.2-13.7s-.3-13.4-1.2-13.8c-1-.3-1.3 2.9-1.3 13.8m185.2-90.8c-1.4 1.4-1.6 10.4-.2 11.3.8.5 33.1 1 38.8.6.9-.1 1.2-1.8 1-6.4l-.3-6.2-19-.3c-14-.2-19.4.1-20.3 1m8.6 4.6c.7 4.9-5.2 7.4-6.4 2.7-1-3.9.2-5.7 3.3-5.3 2 .2 2.9.9 3.1 2.6m18-1.6c1.8 1.8 1.5 4.6-.6 5.7-2 1-11.1.9-13-.3-1.3-.8-1.6-4.8-.5-5.9 1.1-1.2 12.8-.8 14.1.5m10.2.3c1.7 2.1-.2 6.5-2.8 6.5-2.2 0-4.2-1.9-4.2-4 0-3.7 4.7-5.3 7-2.5m-237.4 14.6c-.3 1.7-.6 12.8-.6 24.6 0 16.7.3 21.4 1.3 21.1 2.5-.9 3.6-47.7 1.1-48.5-.6-.2-1.4 1-1.8 2.8m234.6 20.7c.2 17.8.6 24.4 1.6 25.4s1.2-3.6 1-23.6c-.2-19.8-.6-25-1.6-25.4-1.1-.4-1.3 3.8-1 23.6m-186.9 6.7c-1.7.7-3.6 2.2-4.2 3.4-1.4 2.5-1.4 10.1-.1 10.1.6 0 1-1.3 1-2.9 0-3.7 4.4-9.1 7.4-9.1 1.2 0 3.2.9 4.4 2 1.8 1.7 2.2 3.2 2.2 8v6h-4.1c-2.8 0-3.9.4-3.6 1.2.2.8 2.2 1.3 5.3 1.3h4.9l.3-6.4c.4-8.1-1.1-11.9-5.4-13.7-4-1.7-4.1-1.7-8.1.1m33.2-.3c-2.4 1.4-3.5 2.9-2.9 4 .3.5 1.8.1 3.4-.9 4.4-2.6 8.1-.9 10 4.4 1 3.1 1.1 5 .4 7-.9 2.6-1.3 2.8-6.9 2.8h-6l-.5-3.9c-.8-6-3-5.9-3 .2 0 2.8.6 5.4 1.3 6 .6.5 4.7 1 9 1.1 7.5.2 7.8.1 8.7-2.4 2.4-6.2.3-14.8-4.3-17.5-3.6-2.2-6.3-2.5-9.2-.8m31.5 1.5c-2.9 2.6-3.4 3.7-3.8 9-.6 9 .1 9.8 9.7 10.1 6.8.2 8.1 0 8.1-1.3 0-1.2-1.3-1.5-7-1.5-6.6 0-7-.1-7.6-2.6-.9-3.5.2-9.3 2.2-11.5 3.8-4.2 10.2-.9 11.3 5.7.8 5 2.6 4.6 2.5-.7-.1-5-3.5-8.7-8.6-9.5-2.9-.5-4.1-.1-6.8 2.3m35.3-1.2c-1.7.7-3.6 2.2-4.2 3.4-1.3 2.4-1.9 14.6-.8 15.7 1 1.1 13 1.8 16.2 1 2.4-.6 2.5-1 2.5-7.2 0-7.9-1.8-11.8-6.1-13.3-3.9-1.3-3.7-1.3-7.6.4m8.6 3.9c1.8 1.9 2.2 3.3 1.9 7.7l-.3 5.4-5.3.3c-6 .3-7.7-.6-8.5-4.6-.5-2.9 2.4-9.7 4.5-10.5 2.9-1.2 5.6-.6 7.7 1.7m22.6-2.1c-3.3 3.3-3.5 3.8-3.5 10.6s.1 7.1 2.4 7.1c1.3 0 3.8.3 5.5.6 2.4.5 3.1.3 3.1-.9 0-1.1-1.1-1.7-3.7-1.9l-3.8-.3-.3-5.4c-.3-4.4.1-5.8 1.9-7.7 4.7-5 10.2-1.9 11.4 6.5.9 6.3 2.5 5.7 2.5-.9 0-6-2.8-9.6-8.2-10.6-3.4-.6-4.1-.3-7.3 2.9m57.1 19.4c-.2.2-8.9.4-19.4.3-14.2 0-19.3.3-19.9 1.2-.4.7-.7 12.5-.6 26.2.1 19 .5 25.1 1.4 25.7 2 1.2 44.1 1 45.6-.3 1.8-1.5 1.9-50.1.1-51.5-1.4-1.1-6.5-2.3-7.2-1.6m4.6 4.6c.4.7.7 8.8.5 18.2l-.2 17-20.7.3-20.8.2v-18.4c0-16.4.2-18.5 1.7-18.8.9-.2 10-.2 20.2 0 13.2.2 18.7.6 19.3 1.5m.4 41.2c1.3 5.2-.1 5.6-21.5 5.3l-19.6-.3-.3-2.3c-.8-5.2-.7-5.2 20.7-5.2H376z"/><path d="M354.6 271.6c-1 2.5-.7 27.2.3 27.8 1.6 1 2.1-2.4 2.1-15.4 0-11.8-.9-16.4-2.4-12.4m-13.7.6c-.4 6.6.4 25.5 1.2 26.3.5.5.9-4.3.9-12.7 0-8.1-.4-13.9-1-14.3-.5-.3-1 0-1.1.7m27.8-.5c-.4.3-.7 6.4-.7 13.4 0 10.3.3 12.8 1.5 13.3 1.3.5 1.5-1.4 1.5-13.4 0-12.8-.4-15.2-2.3-13.3m-162.4-5.9c-23.5.2-29.4.8-24.9 2.5 2 .8 143.9.9 145.9.1.9-.3 1.7-1 1.7-1.5 0-.9-76.4-1.6-122.7-1.1m-25.6 28.9c-1 .3-1.6 1-1.4 1.6.3.9 19.3 1.3 75 1.5 63.5.2 74.7 0 74.7-1.2 0-.8-.7-1.7-1.6-2-1.8-.7-143.9-.6-146.7.1m-1.2 9.3c-.3.6 0 1.2.7 1.5s34.3.4 74.7.3c57.7-.2 73.5-.6 73.9-1.6.5-1.6-148.3-1.8-149.3-.2m-8.7 13.2c-.2.2-.5 27.9-.8 61.7l-.5 61.4-17-.2c-11.8-.2-17.2-.6-17.7-1.4-.4-.7-.8-28.1-.8-61 0-42.9-.3-59.8-1.1-59.5s-1.1 17.5-1 59.8c.1 32.7-.3 60.1-.8 60.9s-3.1 1.4-7.5 1.5c-3.6 0-6.6.5-6.6 1.1 0 .7 46.2 1 136.5 1 90.2 0 136.6-.3 136.8-1 .1-.6-2.7-1.1-6.5-1.3l-6.8-.3V379c0-53.6-.2-61-1.5-61-1.7 0-1.8 4.3-1.6 76 .1 22.3-.1 41.7-.5 43.3l-.6 2.7H338v-2.8c0-1.5-.1-28.8-.3-60.7-.2-50.8-.4-58-1.7-58s-1.5 7.4-1.7 59.5c-.1 32.7-.2 60.1-.2 60.7-.1 2.1-13.7 1.8-14.5-.3-.3-.9-.6-28.3-.6-61V318l-64.7.2-64.8.3-.5 60.5-.5 60.5-6.9.3c-4.9.2-7.2-.1-7.7-1-.5-.7-.9-28.2-.9-61 0-38.7-.4-59.9-1-60.3-.5-.3-1.1-.5-1.2-.3m86 3.8H316v58.9c0 45.9-.3 59-1.2 59.7-.7.5-28.6.8-62 .6L192 440v-59.3c0-32.7.3-59.7.7-60.1s1.7-.5 2.8-.2 28.7.6 61.3.6"/><path d="M204.4 331.1c-2.5 1.3-5.4 6-5.4 8.9 0 6.1 6 10.8 12.3 9.6 5.1-.9 7.2-3.9 7.2-9.8 0-4.3-.4-5.3-3-7.4-3.2-2.5-7.5-3-11.1-1.3m9.4 3.9c4.4 4.2 1.5 12-4.5 12-3.4 0-7.3-3.6-7.3-6.9s3.7-7.1 7-7.1c1.4 0 3.6.9 4.8 2m78.3-1.5c-4.2 4.8-4.2 9.2 0 13.4 4.4 4.4 8.9 4.3 13.6-.4 3.2-3.2 3.5-4 3-7.3-.8-4.9-5.5-9.2-10.1-9.2-2.6 0-4.1.8-6.5 3.5m11.6 1.7c2.9 2.7 2.9 6.5.1 9.5-2.7 2.9-7.1 3-9.8.1-2.6-2.8-2.6-6.6.2-9.5 2.7-2.9 6.5-2.9 9.5-.1m-61.5 1.7c-10.6 4-17.4 10.1-22.1 20l-2.6 5.6-.3 36.9c-.2 24.8.1 37.3.8 38s1-9 1-31.9c0-36 .8-43.1 5.5-51 7.9-13.6 25.3-19.7 40.9-14.5 8 2.6 15.8 9.6 19.7 17.5 2.4 5 2.4 5.3 2.9 41.9.4 28.8.8 37 1.8 37.4 1 .3 1.2-6.9 1-37l-.3-37.3-3.2-6.6c-3.9-7.9-10.2-14-18.1-17.7-7.7-3.6-19.3-4.1-27-1.3M127.8 450.1c-.6.4-.7 1.2-.4 1.8.5.8 15.3 1.1 51.6 1.1 48.3 0 54-.3 51.6-2.7-.8-.8-101.4-1-102.8-.2m122 0c-.6.4-.7 1.2-.4 1.8.8 1.3 131.2 1.6 132 .3.2-.4.2-1.2-.2-1.8-.8-1-129.7-1.3-131.4-.3"/></g></svg>