<svg version="1.0" xmlns="http://www.w3.org/2000/svg" width="682.667" height="682.667" viewBox="0 0 512 512"><g fill="#6b7280"><path d="M254.1 293c-2.1 2.9-2.9 9-1.2 9 .6 0 1.1-1.7 1.3-3.8.2-2.9.7-3.7 2.3-3.7s2.1.9 2.6 4.5l.6 4.5.1-4.3c.1-2.9-.4-5.2-1.7-6.7l-1.8-2.4zm-8.3 12.4c-5.2 1.4-13 7.3-15.9 12-2.4 4-1.5 4.7 1.3 1 3.6-4.6 7.9-8.4 11.9-10.5 5.5-2.8 20.6-2.7 26.4.1 8.4 4.1 14.5 12.2 16.6 22.1.9 4.2.9 5.3-.2 6-1.6 1-31.5 1-48.4 0l-11-.6V332c.1-1.9.4-4.5.9-5.8.4-1.3.3-2.2-.2-2.2-1.3 0-2.2 3.6-2.2 9.2v4.8h63v-4.5c0-10.5-7.1-21.4-17.2-26.4-5.2-2.6-7.2-3.1-13.2-3-3.9 0-9.2.6-11.8 1.3M92 329.5c0 .8-1.6 2.1-3.5 2.9-5.3 2.3-7.5 6.7-7.4 15.1l.2 7 .8-6.5c1.2-9.8 1.7-10.9 5.2-13 3.7-2.3 6.5-2.5 10.1-.8 3.9 1.7 5.5 5 6.2 12.5.7 9 1.4 9.3 1.4.7 0-8.3-2.3-12.8-7.5-15-1.9-.8-3.5-2.1-3.5-2.9s-.4-1.5-1-1.5c-.5 0-1 .7-1 1.5m324-.3c0 1.1-1.4 2.4-3.5 3.2-5.2 2.2-7.5 6.7-7.5 14.8 0 3.9.4 6.8 1 6.8s1-3.1 1-7.4c0-6.3.3-7.6 2.4-9.9 2.8-3 6.5-4.2 10.2-3.3 1.4.4 3.7 1.9 5 3.3 2.1 2.3 2.4 3.6 2.4 9.9 0 4.8.4 7.4 1.1 7.4.8 0 1-2.6.8-7.9-.4-6.7-.8-8.3-2.8-10.5-1.3-1.4-3.4-2.8-4.5-3.2-1.2-.3-2.9-1.6-3.8-2.8-1.5-1.8-1.8-1.9-1.8-.4m-192.2 14c.7.9.5 2.4-.6 5-1.6 3.5-2 3.8-5.9 3.8-6 0-8.3 3.2-8.3 11.6 0 3.6.4 6.4 1 6.4s1-2.7 1-6.1c0-3.3.4-6.9 1-7.9 2.2-4.2 9.9-2.9 11.5 2 .4 1.1 1.1 1.8 1.6 1.4.6-.3.2-2-1-4s-1.6-3.6-1-3.9c.5-.4 1.7-2.3 2.7-4.3l1.7-3.7h15l.3 6.2.3 6.3h-4c-4 0-4 0-4.4-4.3l-.4-4.2-.1 4.2c-.2 3.8-.5 4.2-2.9 4.5-2.3.2-2.9.8-3.1 3.5-.2 1.8.1 4.1.7 5 .8 1.4 1 1 1.1-2.5V358l26.3.2 26.2.3.6 3.5c.6 3.3.6 3.2.8-1.3.1-4.4-.1-4.7-2.4-4.7-2.4 0-2.5-.2-2.5-6.5V343h3.4c3 0 3.6.4 4.6 3.4.6 1.9 1.7 4 2.5 4.6 1.2 1 1.1 1.6-.6 4.3-2.1 3.5-2.4 4.7-1 4.7.5 0 1.4-1.4 2.1-3 1.5-3.6 5.1-4.8 8.6-3 2.8 1.5 4.9 7.8 4 12.1-.3 1.6-.1 3.1.4 3.4.6.4 1-2 1-6 0-8.2-2.5-11.5-8.8-11.5-3.4 0-4-.4-5.5-3.6-1.4-2.8-1.5-3.9-.6-5 1-1.2-3.9-1.4-32.6-1.4-26.9 0-33.5.3-32.7 1.2m27.2 5.2c0 3 .5 5.8 1 6.1.6.4 1-1.7 1-5.4V343h7v6.1c0 3.7.4 5.8 1 5.4.6-.3 1-3.1 1-6.1v-5.5l3.3.3c3.1.3 3.2.4 3.8 6.3l.6 6 .1-6.3.2-6.2h6.8l.4 6.5.3 6.5H244v-5.8c0-3.2.3-6.2.7-6.5.3-.4 1.9-.7 3.5-.7 2.7 0 2.8.1 2.8 5.4"/><path d="M90 346.9c-.5 1.1-1 3.6-1 5.5v3.6h-6.9c-3.9 0-7.3.4-7.6 1-1.1 1.7-.7 56.2.5 57.4.7.7 1 .3 1-1.2 0-2.2.2-2.2 17-2.2h17l-.2 16.2-.3 16.3h-33l-.5-13c-.6-15.5-1.9-14.6-2.2 1.5l-.3 11.5-4.5.6c-2.5.3 73.8.6 169.5.6s171.3-.3 168-.6l-6-.6-.3-16.3-.2-16.2h17c16.8 0 17 0 17 2.2 0 1.6.3 1.9 1.1 1.1s1.1-8.1 1-22.8c-.1-15.3.2-22.1 1-23.1.8-.9.8-1.4.1-1.4-.6 0-1.2-2.4-1.4-5.3l-.3-5.2-7.2-.3-7.3-.3v-3.5c0-4.4-1.5-7.4-3.8-7.4-2.9 0-4.2 2.1-4.2 6.7v4.3h-7c-7.7 0-7.3-.4-8.3 8.7-.5 4.6.5 6.2 2.7 4.4.9-.8 6.7-1.1 17.2-.9l15.9.3v41h-33l-.3-17.8c-.1-10.7-.6-17.7-1.2-17.7s-1 6.9-1.1 17.7c0 9.8-.1 25.4-.2 34.8l-.2 17h-85l-.3-15.1c-.2-13.7-.1-15.3 1.5-16 1-.5 19-1 40.1-1 21.1-.1 38.6-.5 38.9-.8.4-.3-17.7-.6-40-.6H312v-14.5c0-13.2.2-14.5 1.9-15.5 1.3-.6 16.3-1 42-1 26.1 0 40.1-.3 40.1-1 0-.6-3.8-1-9.5-1H377v-5.9c0-6.5-1.5-9.1-5.4-9.1-3.8 0-5.6 3-5.6 9.3v5.7l-25.5.1c-14 .1-26 .2-26.7.3s-1.5-1-1.8-2.4c-.6-2.4-.9-2.5-9.7-2.7-5.2-.2-9.5.2-9.8.7-.4.6 2.7 1 8.3 1 9 0 10.2.5 10.2 4.1 0 .5-4.9.9-11 .9-6.7 0-11 .4-11 1s4.2 1 10.5 1h10.6l-.3 15.1-.3 15-9.7.3c-13.3.2-13.7 1.6-.5 1.6H310v31.1l-11.2-.3-11.3-.3-.3-34.3c-.1-22.2-.6-34.1-1.2-33.7-.6.3-1 1.5-1 2.6 0 1.6-.7 1.9-4 1.9-3.7 0-4-.2-4-2.7 0-1.4-.3-2.4-.6-2-.3.3-.6 15.3-.5 33.4.1 18-.2 33.3-.6 33.9-.6.8-5.6 1.1-16.3 1l-15.5-.1-.3-20c-.3-22.2.3-26 4.8-29.9 4.3-3.6 9-4.2 13.6-2 7.5 3.8 7.8 4.9 8.5 29.2l.5 21.7v-22.7l-.1-22.8-3.7-3.6c-3-3.1-4.5-3.8-8.9-4.2-6.4-.6-10.9 1.5-14.2 6.7-2.1 3.4-2.2 4.8-2.4 25.6-.2 20.3-.4 22-2 22-1.7 0-1.8-2.3-2.3-34-.3-18.7-.6-33-.8-31.8-.2 2-.8 2.3-4.7 2.3-4.2 0-4.5-.2-4.7-2.8-.2-1.5-.5 12.8-.8 31.8l-.5 34.5h-23l-.3-14.4c-.1-8.5.1-14.8.7-15.5.7-.8.7-1.6 0-2.3-.6-.6-.8-6.7-.7-15.4l.3-14.4 10.8-.3c14.3-.4 14-2.2-.4-2.2-10.9 0-11 0-10.7-2.3.3-2.1.9-2.2 9.8-2.7 11.3-.6 8.7-2.1-3-1.7-7 .2-7.4.3-8 2.7-.4 1.5-1.3 2.5-2.3 2.4-.9 0-12.9-.1-26.7-.2l-25-.2v-5.5c0-8-4.4-11.8-9.5-8.1-1.3 1-2 3-2.3 7.5l-.4 6.1h-10.4c-6.3 0-10.4.4-10.4 1 0 .7 14.6 1 41.8 1 39.3 0 42 .1 43.5 1.8 1.4 1.5 1.7 4.2 1.7 15.5V410h-42.2c-23.2 0-41.8.3-41.5.7.4.3 17.9.6 39 .5 24.7-.1 39.4.2 41.5.9l3.3 1.1-.3 15.1-.3 15.2h-88l-.2-16.5c-.1-9.1-.2-24.9-.3-35.3 0-11.5-.4-18.7-1-18.7s-1.1 7.2-1.2 18.2l-.3 18.3-16.8.3-16.7.2.2-20.7.3-20.8 15.9-.3c11.1-.2 16.3.1 17.3.9 1.1 1 1.8.9 3.1-.4.9-1 1.1-1.7.5-1.7-.7 0-1.3-2.1-1.5-5.3l-.3-5.2-7.2-.3-7.3-.3v-3.5c0-4.5-1.6-7.4-4-7.4-1.1 0-2.4.9-3 1.9m5 4.6c0 3.8-.3 4.5-2 4.5s-2-.7-2-3.8c0-4.1.6-5.2 2.7-5.2.9 0 1.3 1.4 1.3 4.5m324 0c0 3.8-.3 4.5-2 4.5s-2-.7-2-3.8c0-4.1.6-5.2 2.7-5.2.9 0 1.3 1.4 1.3 4.5m-309 11v4.5H76v-9h34zm324 0v4.5h-34v-9h34zm-289.2 8.2.3 6.3H137v-5.3c0-6 1.3-7.9 5-7.5 2.3.3 2.5.7 2.8 6.5m230-5.5c.7.7 1.2 3.6 1.2 6.5v5.3h-9v-4.6c0-2.5.5-5.4 1-6.5 1.2-2.1 5-2.5 6.8-.7m-139.3 41.3v24l-3.2.3c-1.8.2-3.3.7-3.3 1.2s1.5 1 3.3 1.2c3.1.3 3.2.4 3.2 5.3v5h-8l-.3-29.4c-.1-16.2 0-30.1.3-30.8.3-1 1.7-1.3 4.2-1.1l3.8.3zm49.7-4c.1 30.8.3 28.5-3.2 28.5-1.6 0-3 .4-3 1 0 .5 1.3 1 2.9 1 2.6 0 3 .4 3.6 4 .9 5.1-.7 7.2-4.9 6.8l-3.1-.3-.3-30.8-.3-30.8 4.2.3 4.1.3z"/><path d="m230.3 366.8-7.3.3v2.9c0 1.9.6 3.1 1.8 3.4 2.1.7 60.9.6 63.5-.1 1.1-.3 1.7-1.4 1.7-3.4V367l-13.2-.1c-7.3 0-19.1-.1-26.3-.2-7.1-.1-16.3-.1-20.2.1M288 370c0 2-.7 2-31.3 2-17.3 0-31.6-.3-32-.6-.3-.3-.3-1.2 0-2 .4-1.2 5.9-1.4 31.9-1.4 30.7 0 31.4 0 31.4 2M89.6 388.2c-1.7 2.4-2.1 10.4-.7 12.6.5.8 2.3 1.2 4.7 1l3.9-.3.3-5.3c.5-8.7-4.4-13.4-8.2-8m6.2 6 .3 5.8H93c-3 0-3-.1-3-5.3 0-6 .5-6.9 3.5-6.5 1.7.3 2 1.1 2.3 6m317.7-5.8c-1.1 1.6-1.5 4.1-1.3 7.8l.3 5.3 4.3.3 4.2.3v-7c0-5.9-.3-7.2-1.9-8.1-2.9-1.5-3.9-1.3-5.6 1.4m6.3 5.8c.3 4.9 0 5.7-1.7 6.3-3.3 1-4.1-.2-4.1-5.9 0-5.9.5-6.8 3.5-6.4 1.7.3 2 1.1 2.3 6m-209.1-3.4c-1.3 1.4-1.7 3.8-1.7 9.5v7.7h11v-7.3c0-8.1-1.6-11.7-5.4-11.7-1.3 0-3 .8-3.9 1.8m7.1 8.4.3 7.8H211v-7.3c0-4.1.3-7.7.7-8.1s1.9-.6 3.3-.4c2.4.3 2.5.6 2.8 8m76.9-8.4c-1.3 1.4-1.7 3.8-1.7 9.5v7.7h11v-7.8c0-6.4-.4-8.2-1.8-9.5-2.4-2.2-5.5-2.1-7.5.1m6.7 1.1c1.1 1.6 1.6 12.6.7 13.9-.5.8-2.2 1.2-4.2 1-3.4-.3-3.4-.3-3.7-6-.2-3.2.2-6.7.8-7.8 1.1-2 5.4-2.8 6.4-1.1m-178.2-.6c-1.3 1.5-1.9 11.8-.8 13.6.8 1.2 4.5 1.5 7 .5 1.9-.7 2.3-10.3.6-13.5-1.2-2.2-5.2-2.5-6.8-.6m5.8 7.3c0 5.3 0 5.4-3 5.4s-3-.1-3-5.5c0-4.1.4-5.6 1.7-6.4 2.9-1.6 4.3.6 4.3 6.5m17.1-7.2c-.7.9-1.1 4-.9 7.8l.3 6.3h8l.3-6.3c.3-7-.7-9.2-4.3-9.2-1.2 0-2.8.6-3.4 1.4m6.5 4.1c.3 1.9.3 4.6 0 6.1-.5 2-1.2 2.5-3.4 2.2-2.3-.2-2.8-.8-3-3.7-.6-5.5.5-8.1 3.3-8.1 2 0 2.5.6 3.1 3.5m30.1-3.7c-2 2.2-2.3 11.2-.5 13 1.3 1.3 4.7 1.6 7.2.6 1.9-.7 2.3-10.3.6-13.5-1.3-2.4-5.2-2.5-7.3-.1m6.8 5.3c.7 5.2-.2 7.1-3.3 6.7-2.5-.3-2.7-.7-3-5.3-.6-8.5 5.2-9.9 6.3-1.4m133.7-5.9c-.7.7-1.2 3.9-1.2 7.5 0 5.8.2 6.3 2.4 6.9 5.2 1.3 6.1.4 6.4-6.4.2-3.9-.2-6.9-.9-7.8-1.4-1.7-5.1-1.8-6.7-.2m6.4 3.2c.3 1.3.4 3.8.2 5.7-.3 3-.6 3.4-3.3 3.4-3.4 0-4.2-2.1-3-8.1.5-2.8 1.1-3.4 3-3.4 1.8 0 2.6.7 3.1 2.4m30.5-3c-.7.9-1.1 4-.9 7.8l.3 6.3h8l.3-5.7c.2-3.2-.2-6.7-.8-7.8-1.2-2.3-5.2-2.7-6.9-.6m5.9 6.6c0 5.7-.1 6-2.5 6s-2.5-.3-2.5-6 .1-6 2.5-6 2.5.3 2.5 6m14-6c-.6 1.1-1 4.6-.8 7.8l.3 5.7h8l.3-6.3c.2-3.8-.2-6.9-.9-7.8-1.7-2.1-5.7-1.7-6.9.6m6.8 6.2.3 5.8H384c-3 0-3-.1-3-5.3 0-6 .5-6.9 3.5-6.5 1.7.3 2 1.1 2.3 6m-181.8 14c0 .5 4.1.8 9 .8 5 0 9-.4 9-.9 0-.4-4-.8-9-.7-4.9 0-9 .4-9 .8m-58.8 6c-.7.7-1.2 3.9-1.2 7.5v6.3h9v-6.3c0-6.7-1-8.7-4.5-8.7-1.2 0-2.6.5-3.3 1.2m6.1 4.1c.5 2 .6 4.9.3 6.3-.5 2-1.2 2.5-3.4 2.2-2.4-.3-2.7-.8-3-4.5-.6-8.2 4.4-11.4 6.1-4m207.9-4.1c-.7.7-1.2 3.9-1.2 7.5v6.3h9v-6.3c0-6.7-1-8.7-4.5-8.7-1.2 0-2.6.5-3.3 1.2m5.6 6.6c.3 6.1.2 6.2-2.3 6.2-2.4 0-2.5-.2-2.5-5.8 0-6.3.5-7.4 3-7 1.1.2 1.6 1.9 1.8 6.6m-155.1-5c-1.3 1.4-1.7 3.8-1.7 9.5v7.7h11v-7.3c0-8.1-1.6-11.7-5.4-11.7-1.3 0-3 .8-3.9 1.8m5.4.2c1.6.9 1.9 2.2 1.9 8.5v7.5h-7v-7.3c0-4.3.5-7.8 1.2-8.5 1.5-1.5 1.5-1.5 3.9-.2m78.6-.2c-1.3 1.4-1.7 3.8-1.7 9.5v7.7h11v-7.8c0-6.4-.4-8.2-1.8-9.5-2.4-2.2-5.5-2.1-7.5.1m5.2.2c2.1 1.1 3.6 9.3 2.5 13.5-.6 2.3-1.1 2.6-4.3 2.3l-3.6-.3-.3-5.8c-.2-4.1.2-6.6 1.3-8.3 1.7-2.7 1.9-2.8 4.4-1.4M434 430.5c0 10.8-.2 12.5-1.7 13.4-1.3.8.2 1 5.7.9 6.3-.1 6.8-.2 3-.7l-4.5-.6-.3-12.8c-.3-16.7-2.2-16.9-2.2-.2m-343.8-5.2c-1.5 1.8-2.6 9.1-1.8 12.2.6 2.4 1.1 2.6 4.9 2.3l4.2-.3.3-5.3c.2-3.7-.2-6.2-1.3-7.8-1.7-2.6-4.6-3.1-6.3-1.1m5.6 6.6c.3 5.7-.6 7.2-3.9 6.4-1.5-.4-1.9-1.5-1.9-4.8 0-5.9.8-7.7 3.4-7.3 1.8.3 2.1 1.1 2.4 5.7m317.7-5.5c-1.1 1.6-1.5 4.1-1.3 7.8.3 4.8.5 5.3 2.8 5.6 2.2.2 2.3.1.8-.8-1.3-.8-1.8-2.4-1.8-5.8 0-5.6 1-7.5 3.6-7 1.6.3 2 1.4 2.2 6.6.2 3.4.6 6.2 1.1 6.2 1.5 0 0-12.5-1.7-13.8-2.4-1.8-4-1.5-5.7 1.2m4.8 18.3c.9.2 2.5.2 3.5 0 .9-.3.1-.5-1.8-.5s-2.7.2-1.7.5M59 450c0 .7 47.5 1 134.1 1 73.7 0 133.8-.4 133.5-.8-.8-1.3-267.6-1.4-267.6-.2m284.4.2c-.3.4 16 .7 36.3.7 24.7-.1 34.8-.4 30.8-1-7.7-1.1-66.4-.9-67.1.3m80.6-.1c-1.9.4 3.6.7 12.3.8 11.2.1 15.6-.2 15.1-1-.7-1.1-20.7-1-27.4.2"/></g></svg>