<svg version="1.0" xmlns="http://www.w3.org/2000/svg" width="682.667" height="682.667" viewBox="0 0 512 512"><g fill="#6b7280"><path d="M183.8 207.6c-1.5.8-3.5 2.8-4.3 4.4-1.7 3.3-2.1 10.5-.5 9.5.6-.3 1-2.2 1-4.1 0-7 8.6-11.8 15.1-8.4 2.4 1.3 4.9 6.1 4.9 9.4 0 1.4.5 2.8 1.1 3.2.9.5 1-.6.6-4.2-1-9.1-10.1-14.1-17.9-9.8m126 0c-1.5.8-3.5 2.8-4.3 4.4-1.7 3.3-2 9-.5 9 .6 0 1-1.6 1-3.6 0-2.6.8-4.3 2.9-6.5 6.4-6.3 17.1-1.6 17.1 7.5 0 1.4.5 2.8 1 3.1 1.8 1.1 1.1-6.9-.9-9.9-3.6-5.5-10.6-7.2-16.3-4m-134.9 32.1c-.2 45.5.2 79.8.9 80.5.5.5 6.9.7 14.3.6l13.4-.3.3-13.8c.2-9.6.6-13.7 1.4-13.7.9 0 .9-.3 0-1.2-1.7-1.7-1.7-33.4.1-34.1.9-.4.9-.7 0-1.4-.9-.6-1.3-5.6-1.5-16.3l-.3-15.5-14.2-.3-14.3-.3zM202 241v15h-25v-14.3c0-7.9.3-14.7.7-15 .3-.4 6-.7 12.5-.7H202zm0 33.5v16.6l-12.2-.3-12.3-.3-.3-15c-.1-8.2 0-15.5.2-16.2.4-1 3.6-1.3 12.6-1.3h12zm0 31.5v13h-25v-12.3c0-6.8.3-12.7.7-13 .3-.4 6-.7 12.5-.7H202zm100-66.2c0 11-.4 16.2-1.2 17-.9.9-.9 1.2 0 1.2s1.2 7.8 1.1 30.5c0 16.8.3 31 .6 31.5.8 1.3 27.2 1.3 28 0 .7-1.2.7-93.8 0-95.1-.4-.5-6.9-.9-14.6-.9H302zm26.8 1.4.3 14.8H304v-30.1l12.3.3 12.2.3zm-.3 33.3v16l-12.2.3-12.3.3v-33.2l12.3.3 12.2.3zm.3 31.7.3 12.8H304v-26.1l12.3.3 12.2.3zM209 244c0 .7 15.4 1 44.1 1 29.1 0 43.8-.3 43.4-1-.4-.6-16.2-1-44.1-1-28.3 0-43.4.3-43.4 1"/><path d="M85.7 285.7c-.4.3-.7 3-.7 6 0 4-.4 5.3-1.5 5.3-.8 0-1.5.4-1.5 1 0 .5.7 1 1.5 1 1.3 0 1.5 1.9 1.3 12.7l-.3 12.8-5.5.6-5.5.6 5.8.1 5.7.2v113H73.5c-6.8 0-11.5.4-11.5 1 0 1.3 380 1.2 382.1-.1.9-.5-3.1-.9-10.8-.9H421V326l5.8-.2 5.7-.1-5.5-.6-5.5-.6-.3-12.4c-.2-10.9-.1-12.5 1.5-13.7 1.7-1.2 1.7-1.3.1-1.4-1.4 0-1.8-1.1-2-5.8l-.3-5.7-42.2-.3c-27.7-.1-42.3.1-42.3.8 0 .6 14.6 1.1 41.3 1.2l41.2.3v9l-41.8.3c-27.2.1-41.6.6-41.2 1.2s15.8 1 42.1 1h41.5l-.3 12.7-.3 12.8-39 .5-39 .5 39 .5 39 .5v11l-39.5.5-39.5.5 39.1.3c34.7.2 39.3.4 39.8 1.8.3.9.6 23.4.6 50V439h-85v-55.5c0-36.3-.3-55.5-1-55.5s-1 14.5-1 41.5v41.6l-15.1-.3-15-.3.1-41.3c0-33.3-.2-41.2-1.2-41.2-1.1 0-1.4 10.4-1.3 55.2v55.3l-4.7.3-4.7.3-.3-40.8-.3-40.8-3.4-6.3c-4.4-8.1-12.4-15.4-19.9-18.2-8-3-22.5-2.6-29.5.9-5.5 2.7-14.1 10.9-16.7 16.1-4.1 7.9-4.3 11.2-4.4 50.5l-.1 38-4.7.3-4.8.3.1-48.8c0-65.1.1-63.5-1.1-62.8-.6.4-1 15.5-1 42.1V411h-30v-41.5c0-27-.3-41.5-1-41.5-.9 0-1.5 53.3-1 97.2l.1 13.8H87l.2-49.8.3-49.7 39.5-.5 39.5-.5-39.5-.5-39.5-.5-.3-5.8-.3-5.7 39.3-.2 39.3-.3-39-.5c-21.4-.3-39.1-.7-39.2-.8-.2-.1-.3-5.8-.3-12.7V299h41.5c26.7 0 41.5-.4 41.5-1s-14.9-1.1-41.2-1.2l-41.3-.3v-9l41.3-.3c26.3-.1 41.2-.6 41.2-1.2 0-1.1-83.2-1.4-84.3-.3m179.7 49.1c6.6 2.2 15.7 10.7 19.2 17.7 3.5 7.3 4.4 19.9 4.1 57l-.2 29-35.3.3-35.3.2.3-40.2c.3-46 .2-44.9 9.5-54.9 10.1-10.8 23.3-13.9 37.7-9.1M204 426v13h-30v-26h30zm127.8.2.3 12.8H302v-26.1l14.8.3 14.7.3z"/><path d="M209.5 289c-.4.6 2.1 1 6.4 1h7.1v9.5c0 5.7.4 9.5 1 9.5s1-3.8 1-9.5V290h17v9.5c0 5.7.4 9.5 1 9.5s1-.6 1.1-1.3c0-.6.1-4.8.2-9.2l.2-8 8.3-.3 8.2-.3v9c0 12.1 1.8 12.9 2.2.9l.3-9.3h17l.3 9.2c.4 12.3 2.2 12.1 2.2-.2V290h7.1c4.3 0 6.8-.4 6.4-1-.8-1.3-86.2-1.3-87 0m.5 28.8c-.6.2-.8.8-.5 1.2.8 1.3 87.8 1.3 87.3 0-.3-1-84.1-2.1-86.8-1.2m-40 6.2c0 .6 7 1 19 1s19-.4 19-1-7-1-19-1-19 .4-19 1m128 0c0 .6 6.8 1 18.5 1s18.5-.4 18.5-1-6.8-1-18.5-1-18.5.4-18.5 1m-83.8 4.3c-2.7 2.9-2.8 5.1-.2 7.7 2.7 2.7 6.5 2.6 8.4-.2 2.2-3.2 2-6.4-.6-8.2-3.1-2.2-5.1-2-7.6.7m6.8 1.2c1.5 1.8 1 4.5-1.2 5.9-1.4.8-2.2.6-4-1.1-2.1-2.2-2.1-2.3-.3-4.3 2.1-2.4 3.8-2.5 5.5-.5m62.1-.9c-1.2 1.5-2.1 3-2.1 3.4 0 1.9 4.4 6 6.4 6 4.9 0 7.5-7 3.8-10.3-2.7-2.4-5.8-2.1-8.1.9m6.7.6c1.7 1.7 1.5 4.3-.4 5.9-3.1 2.6-7-2.5-4.4-5.6 1.5-1.8 3.2-1.9 4.8-.3M117 391.5c0 28.3.3 43.5 1 43.5s1-14.8 1-42.5V350h23.5c15 0 23.5-.4 23.5-1s-8.8-1-24.5-1H117zM340 349c0 .6 8.5 1 23.5 1H387v42.5c0 27.7.3 42.5 1 42.5s1-15.2 1-43.5V348h-24.5c-15.7 0-24.5.4-24.5 1"/><path d="M136.4 356.4c-3.9 1.7-8.2 6.1-9.9 10.1-1.8 4.1-3.3 68.5-1.6 68.5.8 0 1.1-4.5 1.1-14.8 0-8.1.3-22.8.6-32.7.6-16.5.8-18.3 3-22.2 3.4-5.9 8.4-8.7 15.5-8.8 4.8 0 6.4.5 10 3 8.1 5.7 8.2 6.1 8 43-.1 19.4.2 32.5.7 32.5 1.3 0 2.1-59.2 1-64.5-1.1-5.1-4.2-9.5-8.6-12.6-4.3-2.9-14.9-3.7-19.8-1.5m215.1.2c-7.6 4.1-10.4 9.4-10.8 19.6-.6 18.8.3 58.8 1.4 58.8.8 0 1-9.4.7-32.8-.3-36.1-.4-36 6.1-41.5 7.2-6 16.5-6 23.3.1 6 5.4 6.8 8.1 6.8 23.4 0 23.4 1.3 50.8 2.3 50.8.7 0 .8-10.9.3-32.3-.6-30.6-.8-32.4-2.9-36.6-1.2-2.5-3.9-5.9-6-7.5-3.4-2.7-4.8-3.1-11-3.3-5.2-.3-8 .1-10.2 1.3M75 448c0 .7 20 1 58 1s58-.3 58-1-20-1-58-1-58 .3-58 1m139.5 0c.9 1.4 216.5 1.4 216.5 0 0-.7-36.9-1-108.6-1-72.1 0-108.3.3-107.9 1"/></g></svg>