<svg version="1.0" xmlns="http://www.w3.org/2000/svg" width="682.667" height="682.667" viewBox="0 0 512 512"><g fill="#6b7280"><path d="M194.8 264.1c-3.5 2.8-7.8 6.3-9.5 7.8-1.8 1.4-3.3 2.9-3.3 3.2s2.5.4 5.5.1c3-.2 7-.1 9 .2l3.5.7.2 10.2.2 10.2.5-10.5.6-10.5h107l.3 10.2c.4 13.4 2.2 13.6 2.2.3 0-9.8 0-10 2.5-10.6 1.4-.3 5.3-.4 8.5-.2 3.9.3 6 0 6-.6s-3.5-3.8-7.6-7.1c-10-8-11.4-8.9-11.4-7.8 0 .5 3.2 3.5 7 6.7 3.9 3.1 7 6.1 7 6.7 0 .5-26 .9-67.5.9-42.3 0-67.5-.4-67.5-1 0-.5 3.2-3.5 7.2-6.7l7.1-5.8h50.4c27.6 0 50.3-.3 50.3-.8 0-.4-22.9-.7-50.9-.7h-51z"/><path d="M220.9 282.9c-2.7 2.7-2.9 3.5-2.9 10.5 0 4.4.4 7.6 1 7.6s1-3.1 1-7.4c0-5.6.4-7.9 1.8-9.4 2.8-3.3 5.6-3.6 8.8-.9 2.5 2.2 2.9 3.3 3.4 10.3.4 5.2.9 7.3 1.4 6.1.5-.9.6-4.7.4-8.4-.4-5.7-.8-6.9-3.2-8.9-3.8-3.3-8-3.1-11.7.5m28.6-.4c-2.2 2.1-2.5 3.3-2.5 10 0 4.3.4 7.5 1 7.5s1-3.1 1-7.4c0-6.9.2-7.6 2.6-9.5 3.4-2.7 4.7-2.6 7.8.1 2.2 2 2.6 3.3 2.9 9.6.6 10.1 1.7 10.3 1.7.3 0-7.6-.2-8.4-2.6-10.6-3.6-3.3-8.7-3.3-11.9 0m28.8-.1c-2.5 2.1-2.8 3.1-3.1 10-.3 4.6 0 7.6.6 7.6.5 0 1.2-3.2 1.4-7.1.3-6.3.7-7.4 3.1-9.5 3.5-3 4.8-3 8.1.1 2.3 2.2 2.6 3.1 2.6 9.5 0 4.4.4 7 1.1 7 .8 0 1-2.5.7-7.6-.3-6.9-.6-7.9-3.1-10-3.6-3.1-7.8-3.1-11.4 0"/><path d="M141.4 294.9c-.2.2-.4 6.4-.4 13.8V322h-13c-8 0-13 .4-13 1s5 1 13 1h13l-.2 58.7-.3 58.8-14.3.3-14.2.3.2-70.3.3-70.2 7-1.3c13.3-2.4 17.5-3.4 17.5-4.2 0-.5-6 .4-13.2 1.8l-13.3 2.7-.5 70.4-.5 70.5h-26l-.5-34q-.9-59.55-1.2 2.7c-.1 16.4-.4 30.2-.8 30.7-.3.6-5.3 1.2-11 1.4-5.8.1 77.9.3 186 .3s191.6-.2 185.5-.3c-7.1-.3-11.2-.8-11.7-1.6-.5-.7-.8-15.4-.8-32.7.1-17.3 0-32-.2-32.5-.1-.6-.5 14.1-.8 32.5l-.5 33.5h-26L401 371l-.5-70.5-13-2.6c-7.1-1.4-13.2-2.4-13.4-2.2-1 .7 1.1 1.4 10.5 3.3 5.4 1.1 10.9 2.3 12.2 2.5l2.2.5v140h-29V324h12.4c7.3 0 12.7-.4 13.1-1s-4-1-12.4-1h-13l-.3-13.8-.3-13.7h-13.2c-7.3 0-13.3.3-13.3.7 0 .5 5.6.8 12.5.8H368v26h-29v-13.3c0-7.4-.2-13.6-.5-13.8-.4-.5-30.6 5.1-31.4 5.7-.2.2-.2.6.1 1 .5.4 22.9-3.7 28.1-5.2 1.6-.5 1.7.6 1.7 12.5V322h-29v-5c0-2.8-.4-5-1-5-.7 0-1 22.3-1 65v65H205v-9.5c0-12.3-1.8-12.5-2.2-.2l-.3 9.2-14.2.3-14.3.3v-24.5c0-15.2-.4-24.7-1-25.1-.7-.4-1 6.6-1.1 20.2 0 11.4-.1 22.6-.2 24.8l-.2 4h-28l-.3-58.8-.2-58.8 14.2.3 14.3.3.1 29.7c.1 16.4.5 29.9 1 30 .5.2 1-13 1.2-30l.2-30.2h29v46.1c0 30.4.3 45.8 1 45.4 1.6-1 1.3-111.7-.2-113.8-.8-.9-4.6-2.2-9.8-3.2-4.7-.9-10.4-2-12.7-2.5-2.3-.6-5.3-1-6.7-1H172v27h-29v-26h13.2c7.2 0 12.9-.3 12.5-.6-.6-.7-26.6-1.1-27.3-.5m48.5 4.5c6.2 1.3 11.7 3 12.2 3.7.5.8.9 5.3.9 10.1v8.8h-29v-12.5c0-14.7-1.6-13.7 15.9-10.1M337 354.5c0 19.7.4 30.5 1 30.5s1-10.8 1-30.5V324h29v118.1l-14.2-.3-14.3-.3-.3-24.8c-.1-15.3-.6-24.7-1.2-24.7s-1 9.3-1 25v25.1l-14.2-.3-14.3-.3-.3-58.8-.2-58.7h29z"/><path d="M185.2 306.2c-1.4 1.4-1.6 12.8-.2 12.8.6 0 1-2.7 1-6 0-5.2.3-6 1.9-6 1.5 0 2 1.1 2.7 6.2l.8 6.3.4-4.9c.5-7-.4-9.6-3.1-9.6-1.3 0-2.8.5-3.5 1.2M317 342.9c0 3.9.5 7.3 1 7.6.6.4 1-2.2 1-6.9 0-4.4-.4-7.6-1-7.6s-1 3-1 6.9m9.9-6.5c-.8.8.3 13.6 1.2 13.6.5 0 .9-3.2.9-7 0-6.1-.6-8-2.1-6.6m21.1 6.5c0 3.9.5 7.3 1 7.6.6.4 1-2.2 1-6.9 0-4.4-.4-7.6-1-7.6s-1 3-1 6.9m9.9-6.7c-.6 2.8-.2 13.7.5 13.5 1.1-.4 1.4-12.7.4-13.4-.5-.2-.8-.3-.9-.1M214 304c3.8 1.2 83.8 1.2 84.5 0 .4-.7-14.2-1-43.2-.9-24.1.1-42.7.5-41.3.9m-90.8 2.2c-1.4 1.4-1.6 12.8-.2 12.8.5 0 1-2.6 1.2-5.7.2-4.6.7-5.9 2.1-6.1 1.2-.3 1.9.5 2.3 2.7.7 3.5 2.4 4.2 2.4 1 0-5-4.7-7.8-7.8-4.7m34.6-.3c.7.4 1.7 3.7 2.1 7.2l.8 6.4.2-6.6c.1-5.3-.2-6.8-1.5-7.3-2.2-.9-3.1-.7-1.6.3m161.9-.2c-.4.3-.6 3.6-.5 7.2l.2 6.6.3-5.5q.75-9.45 3.9-6.9c.9.7 1.4 3.2 1.4 6.5 0 3 .5 5.4 1 5.4 1.4 0 1.2-11.4-.2-12.8-1.3-1.3-5-1.6-6.1-.5m31 0c-.4.3-.6 3.6-.5 7.2l.2 6.6.3-5.5q.75-9.45 3.9-6.9c.9.7 1.4 3.2 1.4 6.5 0 3 .5 5.4 1 5.4 1.3 0 1.3-9.6 0-12.1-1-1.8-5-2.6-6.3-1.2m30.3 1.2c-1.3 2.5-1.3 12.1 0 12.1.6 0 1-2.4 1-5.3 0-5.8 1.5-8.4 3.7-6.6.8.7 1.3 3.3 1.3 6.5 0 3 .5 5.4 1 5.4 1.3 0 1.3-9.6 0-12.1-.6-1.1-2.1-1.9-3.5-1.9s-2.9.8-3.5 1.9m-227.3-.2c-1.1 1-.8 11.3.3 11.3.6 0 1-2.7 1-6 0-6.1-.1-6.5-1.3-5.3m58.8 19.3c.4.6 15.8 1 43 1s42.6-.4 43-1c.4-.7-14.2-1-43-1s-43.4.3-43 1M86.2 340.2c-5.1 5.1-5.7 7.8-4.5 21l1 10.3.2-12.7.1-12.8 3.6-4 3.6-4h7.9c4.3 0 8.1-.5 8.4-1 .4-.6-2.4-1-7.8-1h-8.4zm43.8 3.3c0 4.3.4 7.5 1 7.5s1-3.2 1-7.5-.4-7.5-1-7.5-1 3.2-1 7.5m21.5-.9c-.4 4.4-.3 7 .4 7.7.8.8 1.1-1 1.1-6.6 0-4.2-.2-7.7-.4-7.7s-.7 3-1.1 6.6m10.2-5.9c-1.1 1-.8 13.1.3 13.8.6.4 1-2.2 1-6.9 0-7.6-.1-8.2-1.3-6.9m21 0c-1.1 1-.8 13.1.3 13.8.6.4 1-2.2 1-6.9 0-7.6-.1-8.2-1.3-6.9m33.2 2.2c-2.7 2.8-3.1 3.7-2.6 6.8.7 4.2 2.9 6.9 6.4 7.8 5.9 1.5 12.1-4.5 10.8-10.5-.8-3.7-3.4-6-7.8-6.7-3.1-.5-4-.1-6.8 2.6m11 1.7c2.7 3.5 2.6 5.9-.4 8.9s-5.4 3.1-8.9.4c-3.2-2.5-3.4-6.4-.4-9.6 2.9-3.1 7.1-3 9.7.3m57.3-3c-5.3 3.7-4.8 12 1 15 8.9 4.6 17-6.5 9.9-13.7-3.3-3.3-7.4-3.8-10.9-1.3m9.5 2.6c3.1 2.9 3 7.1-.3 9.7-3.5 2.7-5.9 2.6-8.9-.4s-3.1-5.4-.4-8.9c2.5-3.2 6.4-3.4 9.6-.4m86-3.5c-1.1 1-.8 13.1.3 13.8.6.4 1-2.2 1-6.9 0-7.6-.1-8.2-1.3-6.9m9.6 6.8c0 4.4.2 6.1.4 3.7.2-2.3.2-5.9 0-8-.2-2-.4-.1-.4 4.3M404 337c0 .6 3.4 1 8.3 1 8.2 0 8.4 0 11.8 3.6l3.4 3.5.6 12.2.5 12.2.2-12.5.2-12.6-4.3-4.2-4.3-4.2h-8.2c-4.8 0-8.2.4-8.2 1m-283.9 3.7c.1 2.1.5 5.1.9 6.8.5 2.4.7 1.6 1.1-3.8.3-4.9.1-6.7-.8-6.7-.8 0-1.3 1.4-1.2 3.7m71.9 2.8c0 3.7.4 6.5 1 6.5s1-2.8 1-6.5-.4-6.5-1-6.5-1 2.8-1 6.5m57.3 9c-11.9 6.7-21.2 17.4-25.5 29.1-1.9 5.2-2.2 8.4-2.6 27.8-.3 18-.2 21.8 1 21.4 1-.4 1.4-5 1.6-21.9.2-22.1.6-24.7 5-33.3 4.6-9.3 20.9-23.6 26.8-23.6 3 0 13.5 7.4 19.3 13.4 2.8 3.1 6.6 8.6 8.4 12.3l3.2 6.8.3 22.5c.2 12.4.7 22.9 1.3 23.5.5.5.9-7.2.9-21 0-25.3-.6-28.4-8-39.2-4.9-7.1-12.8-14.2-20.8-18.6l-4.8-2.6z"/><path d="M254.6 359.7c-.3.3-.6 4.5-.6 9.2v8.6l-8.6-.4c-5.4-.2-9 .1-9.7.8-.8.8 1.5 1.1 8.6 1.1h9.7v17.9l-9.2.4-9.3.3 9.3.2 9.2.2v18.5l-8.6-.3c-5.3-.2-9.1.1-9.7.7-.8.8 1.7 1.1 8.6 1.1h9.7v6.6c0 8.5 2.2 8.4 2.4-.1l.1-6 9.3-.3c5-.1 9.2-.7 9.2-1.2s-4.2-1.1-9.2-1.2l-9.3-.3-.3-6.5c-.5-11-.6-10.9 10.1-11.3l9.2-.3-9.2-.2c-10.7-.2-10.6-.1-10.1-11.2l.3-6.5 9.3-.3c5.7-.2 9.2-.7 9.2-1.3 0-.8-3-1-9-.7-8.9.5-9.1.4-9.6-1.9-.4-1.3-.4-5.3-.1-8.9.4-6-.1-8.2-1.7-6.7M96.2 370.5c-.1 5.3.2 8.4.7 7.5.5-.8.5-4.9.1-9l-.7-7.5zM413 370c0 4.7.4 8 1 8s1-3.3 1-8-.4-8-1-8-1 3.3-1 8m-200.5 66c-.4.7 14.2 1 42.9 1 28.4 0 43.6-.3 43.6-1s-15-1-42.9-1c-27.6 0-43.2.4-43.6 1M80.3 450.2c-.2.5 16.3.8 36.6.8 20.4 0 37.1-.3 37.1-.8 0-1-73-1-73.7 0m89.1 0c-.3.4 34.7.8 77.7.8s77.9-.3 77.5-.8c-1.1-1-154.5-1.1-155.2 0M337 450c0 .6 17 1 46.7 1 25.6 0 46.3-.3 46-.7-1.2-1.1-92.7-1.4-92.7-.3"/></g></svg>