<svg width="138" height="131" viewBox="0 0 138 131" fill="none" xmlns="http://www.w3.org/2000/svg">
<path d="M110.776 129.726C112.443 130.552 114.286 130.982 116.155 130.982C118.024 130.982 119.867 130.552 121.533 129.726C124.502 128.051 124.502 125.348 121.533 123.673C119.867 122.847 118.024 122.417 116.155 122.417C114.286 122.417 112.443 122.847 110.776 123.673C107.808 125.348 107.808 128.051 110.776 129.726Z" fill="#ECE3DD"/>
<path d="M118.762 107.804H121.927V126.357H118.762V107.804Z" fill="#5A3044"/>
<path d="M111.524 110.506C106.761 105.698 106.895 98.0343 111.824 93.3881C116.754 88.742 124.611 88.8731 129.375 93.681C134.138 98.4888 134.004 106.153 129.075 110.799C124.145 115.445 116.288 115.314 111.524 110.506Z" fill="#4D8451"/>
<path d="M112.05 98.2403C112.05 99.5353 112.444 100.801 113.181 101.878C113.919 102.955 114.967 103.794 116.194 104.289C117.421 104.785 118.77 104.914 120.072 104.662C121.375 104.409 122.571 103.786 123.509 102.87C124.448 101.954 125.088 100.788 125.347 99.5177C125.606 98.2476 125.473 96.9311 124.965 95.7348C124.457 94.5384 123.596 93.5159 122.492 92.7964C121.388 92.077 120.09 91.693 118.763 91.693C116.982 91.693 115.275 92.3828 114.016 93.6107C112.757 94.8385 112.05 96.5039 112.05 98.2403Z" fill="#68AE6A"/>
<path d="M89.2013 99.8242L69.4457 98.4522L12.8162 66.563L41.3327 50.7142L107.488 89.4736L89.2013 99.8242Z" fill="#ECE3DD"/>
<path d="M32.0761 66.6336V42.4518L59.3721 27.0066V51.1783L35.9032 68.8934L32.0761 66.6336Z" fill="#D7BEA3"/>
<path d="M35.9013 68.8934V44.7116L63.1973 29.2664V53.438L35.9013 68.8934Z" fill="#F8F1E4"/>
<path d="M55.4912 77.6501L37.3284 67.7333V49.6752L55.4912 60.1368V77.6501Z" fill="#583045"/>
<path d="M53.2781 61.5693L53.4746 61.2465L38.0528 52.3284L37.8563 52.6512L53.2781 61.5693Z" fill="#8B666F"/>
<path d="M53.2781 63.9199L53.4746 63.5971L38.0528 54.679L37.8563 55.0018L53.2781 63.9199Z" fill="#8B666F"/>
<path d="M53.2781 66.2703L53.4746 65.9475L38.0528 57.0294L37.8563 57.3522L53.2781 66.2703Z" fill="#8B666F"/>
<path d="M53.2781 68.6211L53.4746 68.2983L38.0528 59.3802L37.8563 59.703L53.2781 68.6211Z" fill="#8B666F"/>
<path d="M53.2781 70.9716L53.4746 70.6488L38.0528 61.7307L37.8563 62.0435L53.2781 70.9716Z" fill="#8B666F"/>
<path d="M53.2781 73.3222L53.4746 72.9994L38.0528 64.0813L37.8563 64.394L53.2781 73.3222Z" fill="#8B666F"/>
<path d="M53.2781 75.6627L53.4746 75.35L38.0528 66.4319L37.8563 66.7446L53.2781 75.6627Z" fill="#8B666F"/>
<path d="M54.0855 79.0624V54.5074L81.3711 39.0621V63.2338L60.1053 82.3512L54.0855 79.0624Z" fill="#D7BEA3"/>
<path d="M60.1065 82.3513V58.1696L87.4023 42.7243V66.896L60.1065 82.3513Z" fill="#F8F1E4"/>
<path d="M87.4434 93.5997L63.1987 80.6059V62.5377L87.4434 76.0762V93.5997Z" fill="#D7BEA3"/>
<path d="M86.8213 80.6464L79.6637 76.6111V90.0488L86.8213 94.074V80.6464Z" fill="white"/>
<path d="M80.0463 89.8367L86.4385 93.4281V80.8581L80.0463 77.2565V89.8367Z" fill="#583045"/>
<path d="M84.8153 86.8204C84.8153 87.1835 84.8981 87.4761 85.0119 87.4761C85.1256 87.4761 85.2188 87.1835 85.2188 86.8204C85.2188 86.4572 85.1256 86.1646 85.0119 86.1646C84.8981 86.1646 84.8153 86.4572 84.8153 86.8204Z" fill="white"/>
<path d="M86.532 97.6249L75.4853 91.4105V90.0587L78.0608 89.9578L89.1074 94.8405V96.1823L86.532 97.6249Z" fill="#D7BEA3"/>
<path d="M86.532 96.2833L75.4853 90.0588L78.0608 88.6161L89.1074 94.8407L86.532 96.2833Z" fill="#F8F1E4"/>
<path d="M32.0758 47.1833L89.7086 80.0309L116.994 64.5857V59.9854L58.6167 31.7986L32.0758 42.583V47.1833Z" fill="#A1443C"/>
<path d="M85.8804 97.3527V73.171L113.166 57.7257V81.8974L89.7075 99.6024L85.8804 97.3527Z" fill="#A1443C"/>
<path d="M32.0758 42.583L89.7086 75.4307L116.994 59.9854L58.6167 27.1983L32.0758 42.583Z" fill="#DD7369"/>
<path d="M57.1885 31.7077L34.9814 44.2879L32.075 42.5829V15.9699L57.1885 1.86639V31.7077Z" fill="#A1443C"/>
<path d="M87.3604 43.2186L60.1472 58.5832L59.961 32.0811L87.3604 16.6056V43.2186Z" fill="#F8F1E4"/>
<path d="M60.0947 30.1744L34.9812 44.288V17.6749L60.0947 3.57141V30.1744Z" fill="#CD5B4F"/>
<path d="M54.085 32.3534L37.6598 23.1125V42.7848L54.085 52.1064V32.3534Z" fill="white"/>
<path d="M53.7031 32.5753L38.0434 23.7581V42.5729L53.7031 51.4607V32.5753Z" fill="#6F92B2"/>
<path d="M54.0844 55.1228L60.1455 58.5831L59.9593 32.081L54.0844 28.8729V55.1228Z" fill="#D7BEA3"/>
<path d="M60.5699 36.0054L32.0845 19.965V16.0406L60.5595 3.9245L89.0449 19.965L60.5699 36.0054Z" fill="#A1443C"/>
<path d="M60.5699 32.081L32.0845 16.0406L60.5595 0.00012207L89.0449 16.0406L60.5699 32.081Z" fill="#DD7369"/>
<path d="M60.5699 36.0054V32.081L89.0449 16.0405V19.9649L60.5699 36.0054Z" fill="#CD5B4F"/>
<path d="M89.7086 99.6023V75.4307L116.994 59.9854V84.1571L89.7086 99.6023Z" fill="#CD5B4F"/>
<path d="M65.6587 68.7017V76.5907L71.3475 79.7887L71.7095 79.9905L77.5225 83.2591V75.3701L71.7095 72.1014L71.3475 71.8896L65.6587 68.7017Z" fill="white"/>
<path d="M66.0423 69.3474V76.3689L68.9798 78.0234L70.8209 79.0625L71.7415 79.577L72.3931 79.9503H72.4034L74.9065 81.3525L76.7373 82.3916L77.1406 82.6136V75.5921L75.3616 74.5833L74.6893 74.21L73.686 73.635H73.6757L71.5863 72.4647L69.4453 71.2541L68.7626 70.8808L67.7593 70.3058L66.0423 69.3474Z" fill="#6F92B2"/>
<path d="M71.348 71.8896V79.7888L71.71 79.9906V72.1015L71.348 71.8896Z" fill="white"/>
<g opacity="0.11">
<path d="M71.5854 72.4645V72.5251L74.9056 81.3423L76.7363 82.3511L73.6333 73.5944L71.5854 72.4645Z" fill="#F8F1E4"/>
</g>
<g opacity="0.11">
<path d="M74.6893 74.2101L77.1406 81.3829V79.8091L75.3616 74.5834L74.6893 74.2101Z" fill="#F8F1E4"/>
</g>
<g opacity="0.11">
<path d="M66.0407 69.3473V70.2048L68.9782 78.0233L70.8193 79.0624L67.7577 70.3057L66.0407 69.3473Z" fill="#F8F1E4"/>
</g>
<g opacity="0.11">
<path d="M69.4448 71.254L72.3926 79.9502L71.741 79.5769L68.7621 70.8807L69.4448 71.254Z" fill="#F8F1E4"/>
</g>
<path d="M51.0544 30.6687H51.1475V50.0282H51.0544V30.6687Z" fill="white"/>
<path d="M48.3649 29.3774H48.458V48.7369H48.3649V29.3774Z" fill="white"/>
<path d="M45.593 27.7126H45.8516V47.0722H45.593V27.7126Z" fill="white"/>
<path d="M42.987 26.4216H43.0801V45.7811H42.987V26.4216Z" fill="white"/>
<path d="M40.2985 24.7569H40.3916V44.1164H40.2985V24.7569Z" fill="white"/>
<path d="M53.6823 41.7457L53.7236 41.665L37.9812 32.9385L37.9295 33.0192L53.6823 41.7457Z" fill="white"/>
<path d="M33.791 87.0625L26.7576 91.0373L16.8487 90.3715L-0.000450134 80.7674L10.7358 74.5731L33.791 87.0625Z" fill="#ECE3DD"/>
<path d="M20.7078 86.891C20.7363 87.3815 20.8821 87.8587 21.1336 88.2844C21.385 88.7101 21.7351 89.0724 22.1559 89.3425C22.9627 89.7964 23.6143 89.4333 23.6143 88.5253C23.587 88.032 23.4407 87.5519 23.1873 87.1242C22.9339 86.6964 22.5805 86.3331 22.1559 86.0638C21.3595 85.64 20.7078 86.0032 20.7078 86.891Z" fill="#583045"/>
<path d="M19.2918 87.6982C19.319 88.1915 19.4653 88.6716 19.7187 89.0993C19.9722 89.5271 20.3256 89.8904 20.7502 90.1597C21.5467 90.6137 22.1982 90.2505 22.1982 89.3426C22.1705 88.8505 22.0252 88.3716 21.7738 87.9442C21.5223 87.5167 21.1718 87.1526 20.7502 86.881C19.9434 86.427 19.2918 86.8003 19.2918 87.6982Z" fill="#583045"/>
<path d="M20.1703 88.2024C20.1756 88.4038 20.2311 88.6009 20.332 88.7766C20.4329 88.9524 20.5762 89.1015 20.7495 89.2112C21.0598 89.3827 21.3184 89.2112 21.3184 88.8884C21.315 88.6877 21.2615 88.4909 21.1623 88.3151C21.0631 88.1393 20.9215 87.9897 20.7495 87.8796C20.3978 87.698 20.1703 87.8392 20.1703 88.2024Z" fill="white"/>
<path d="M23.1689 89.4736L21.7416 90.2706V88.5253L23.1689 89.4736Z" fill="#583045"/>
<path d="M21.1533 85.9832L19.6329 86.8407L20.4603 87.7284L20.75 86.881L21.1533 85.9832Z" fill="#583045"/>
<path d="M10.964 81.2718C10.9913 81.7651 11.1376 82.2452 11.391 82.673C11.6444 83.1007 11.9978 83.464 12.4224 83.7334C13.2292 84.1873 13.8809 83.8141 13.8809 82.9162C13.8536 82.4229 13.7073 81.9428 13.4539 81.5151C13.2005 81.0873 12.847 80.724 12.4224 80.4547C11.6156 80.0007 10.964 80.3639 10.964 81.2718Z" fill="#583045"/>
<path d="M9.55643 82.0688C9.58366 82.5621 9.72989 83.0422 9.98332 83.4699C10.2367 83.8977 10.5902 84.261 11.0148 84.5304C11.8112 84.9742 12.4629 84.6111 12.4629 83.7031C12.4344 83.2126 12.2886 82.7354 12.0371 82.3098C11.7857 81.8841 11.4356 81.5217 11.0148 81.2517C10.208 80.838 9.55643 81.1609 9.55643 82.0688Z" fill="#583045"/>
<path d="M10.4369 82.5631C10.4422 82.7645 10.4978 82.9616 10.5987 83.1373C10.6996 83.3131 10.8428 83.4623 11.0161 83.5719C11.3264 83.7535 11.585 83.5719 11.585 83.2491C11.5791 83.049 11.5244 82.8531 11.4255 82.6777C11.3266 82.5022 11.1862 82.3523 11.0161 82.2403C10.6955 82.0587 10.4369 82.21 10.4369 82.5631Z" fill="white"/>
<path d="M13.4355 83.8342L12.0082 84.6413V82.8859L13.4355 83.8342Z" fill="#583045"/>
<path d="M11.4189 80.3438L9.89845 81.2013L10.726 82.089L11.0155 81.2517L11.4189 80.3438Z" fill="#583045"/>
<path d="M8.70947 81.6249L18.6701 87.234L23.7693 90.1092L24.6795 90.6237C25.0777 90.8375 25.5215 90.958 25.9757 90.9755C26.4299 90.993 26.882 90.9071 27.2963 90.7246L33.7919 87.0625C34.1079 86.7639 34.3446 86.3948 34.4816 85.987C34.6185 85.5792 34.6516 85.1451 34.578 84.722C34.563 84.6172 34.5247 84.5168 34.4657 84.4279C34.4068 84.3391 34.3286 84.2638 34.2367 84.2075L14.7396 76.7119C13.9639 76.2781 11.6366 75.6324 10.0748 76.5706C10.0748 76.5706 6.53738 77.4786 6.4443 77.8216C5.7513 80.2529 7.98545 81.2516 8.70947 81.6249Z" fill="#583045"/>
<path d="M6.47462 77.8115L6.54703 77.7006L7.02285 76.9944C7.07571 76.9131 7.13445 76.8355 7.19867 76.7624C7.41635 76.4795 7.67404 76.2281 7.96406 76.0158L10.0327 74.9565C10.7378 74.5722 11.5201 74.3416 12.3254 74.2806C13.1308 74.2197 13.9401 74.3298 14.6975 74.6034L28.5265 81.1104L31.6295 80.0007C31.6295 80.0007 34.3084 82.6741 34.2256 84.2479C34.3147 84.3062 34.3902 84.3822 34.4472 84.4708C34.5043 84.5595 34.5415 84.6588 34.5566 84.7624C34.454 85.1844 34.2146 85.563 33.874 85.8419L27.3681 89.5039C26.9538 89.6864 26.5016 89.7724 26.0474 89.7549C25.5932 89.7373 25.1494 89.6169 24.7512 89.4031L8.79157 80.4143C8.24338 80.1016 6.65047 79.4055 6.42292 77.862L6.47462 77.8115Z" fill="#D7BEA3"/>
<path d="M24.9898 83.2692C24.9898 82.3411 26.9343 81.2516 27.1825 80.4142L28.5686 81.07L31.6715 79.9603C31.6715 79.9603 34.3504 82.6337 34.2677 84.2075C34.2755 84.3539 34.2371 84.4993 34.1576 84.6237C34.078 84.7482 33.9612 84.8459 33.8229 84.9036L27.3274 88.5656C27.1954 88.6301 27.0493 88.6624 26.9017 88.6595C26.7541 88.6567 26.6094 88.6189 26.4801 88.5494C26.3509 88.4799 26.2409 88.3808 26.1596 88.2606C26.0784 88.1404 26.0283 88.0027 26.0137 87.8594C25.8172 86.2756 25.7552 83.9452 24.9898 83.2692Z" fill="#F8F1E4"/>
<path d="M15.0385 77.6601L24.9887 83.2692C25.2082 83.3782 25.4509 83.435 25.6972 83.435C25.9435 83.435 26.1863 83.3782 26.4057 83.2692L31.5774 80.5655C31.9497 80.3537 31.898 80.0006 31.474 79.7585L21.534 74.1594C21.3176 74.0409 21.0757 73.9736 20.8278 73.9631C20.5798 73.9526 20.3328 73.9991 20.1066 74.0989L14.935 76.8127C14.573 77.0649 14.6144 77.4281 15.0385 77.6601Z" fill="#F8F1E4"/>
<path d="M20.5537 74.0082C20.5537 74.0082 18.7333 74.0889 17.3266 74.2403C15.9199 74.3916 14.7408 74.5631 14.7408 74.5631C13.8821 74.8641 13.0599 75.2566 12.2894 75.7333C11.4784 76.1849 10.7338 76.7414 10.076 77.3878L14.9373 76.8632L20.5537 74.0082Z" fill="#F8F1E4"/>
<path d="M7.82019 76.964C8.47017 77.2956 9.16748 77.5303 9.88885 77.6601L12.3298 76.0964L14.7295 74.563C13.972 74.2893 13.1627 74.1792 12.3573 74.2401C11.552 74.3011 10.7698 74.5317 10.0647 74.9161L7.99601 75.9754C7.85096 76.0508 7.74051 76.177 7.6868 76.3285C7.63309 76.48 7.64006 76.6458 7.70637 76.7925C7.73715 76.8539 7.7754 76.9115 7.82019 76.964Z" fill="#F8F1E4"/>
<path d="M14.926 76.8027L20.0977 74.1898C19.4667 74.1898 18.329 74.2907 17.3877 74.3916C16.0017 74.5429 14.8019 74.7144 14.7916 74.7144C13.3087 75.2691 11.9286 76.0562 10.7059 77.0448C10.6861 77.0616 10.6723 77.0842 10.6664 77.1091C10.6606 77.1341 10.663 77.1603 10.6733 77.1838C10.6837 77.2074 10.7014 77.2271 10.724 77.2402C10.7466 77.2533 10.7728 77.2591 10.799 77.2567L14.926 76.8027Z" fill="#583045"/>
<path d="M10.7377 77.075L12.6822 76.8732L14.5854 76.6614H14.9061L15.7128 76.2477L16.6024 75.7938L19.5605 74.2805C18.9296 74.2805 18.0711 74.3814 17.3471 74.4621C16.623 74.5428 15.9507 74.6235 15.4749 74.6841H15.0612H14.7716L14.2958 74.8656L13.9649 75.0069L13.1891 75.3902L12.3927 75.8341C11.8096 76.2062 11.2563 76.621 10.7377 77.075Z" fill="#6F92B2"/>
<path d="M15.039 77.6603H9.89838L10.0743 77.3879L15.2148 76.722L15.039 77.6603Z" fill="#F8F1E4"/>
<path d="M10.9632 78.4471C10.9632 78.4471 13.7145 80.4042 18.0173 82.9767C20.1781 84.2823 22.4357 85.4288 24.7714 86.4068C24.8119 86.4309 24.8584 86.4438 24.9058 86.4439C24.9532 86.444 24.9998 86.4314 25.0403 86.4074C25.0809 86.3835 25.114 86.3491 25.1359 86.3081C25.1577 86.267 25.1676 86.2209 25.1645 86.1747L25.03 84.379C25.0162 84.1724 24.9505 83.9723 24.8387 83.7964C24.7269 83.6204 24.5723 83.4741 24.3887 83.3702L15.2246 78.215C15.0948 78.1445 14.9491 78.1063 14.8005 78.1041H11.0873C11.0406 78.088 10.9894 78.0907 10.9448 78.1115C10.9002 78.1323 10.8659 78.1695 10.8494 78.215C10.8329 78.2605 10.8356 78.3105 10.857 78.354C10.8783 78.3975 10.9165 78.431 10.9632 78.4471Z" fill="#583045"/>
<path d="M11.0267 78.3564C11.0267 78.3564 12.8264 79.6376 15.7225 81.4434C16.1156 81.6956 16.5293 81.9579 16.9741 82.2202C17.1706 82.3514 17.3878 82.4724 17.5947 82.5935L17.8326 82.7448L18.0705 82.886C19.1048 83.4913 20.046 84.0159 20.9045 84.4699C21.3182 84.6818 21.7113 84.8936 22.0837 85.0651L22.6629 85.3476C23.2525 85.6301 23.6972 85.8419 24.1006 86.0033L24.7625 86.2858H24.8557C24.8857 86.2966 24.9187 86.2966 24.9488 86.2858C24.9599 86.2694 24.9658 86.2501 24.9658 86.2303C24.9658 86.2106 24.9599 86.1913 24.9488 86.1748V85.5292L24.8764 84.5204V84.3589C24.859 84.1359 24.7764 83.9223 24.6384 83.7436C24.5513 83.6237 24.4384 83.5238 24.3075 83.451L23.8834 83.2089L22.9628 82.6944L21.8664 82.0689L21.432 81.847L20.8115 81.4939L19.4771 80.7473L16.7569 79.2139L16.3225 78.9718L15.6915 78.6086L15.1537 78.3059C15.039 78.2465 14.9112 78.2154 14.7813 78.2151H11.0888C11.0267 78.2151 11.006 78.2151 11.006 78.2151C10.9938 78.2238 10.9843 78.2355 10.9785 78.249C10.9726 78.2625 10.9706 78.2773 10.9727 78.2918C10.9749 78.3064 10.981 78.3201 10.9905 78.3314C11 78.3428 11.0125 78.3514 11.0267 78.3564Z" fill="#6F92B2"/>
<path d="M31.2167 81.0398L27.1931 83.1583C27.0379 83.24 26.9144 83.3691 26.8416 83.5258C26.7687 83.6825 26.7505 83.8582 26.7897 84.0259L27.1311 85.5089C27.1601 85.6285 27.2171 85.7399 27.2976 85.8344C27.378 85.929 27.4798 86.0041 27.595 86.0539C27.7101 86.1037 27.8356 86.1269 27.9614 86.1216C28.0873 86.1163 28.2102 86.0827 28.3205 86.0234L32.9026 83.4912C33.0054 83.4341 33.0939 83.3555 33.1621 83.2613C33.2303 83.167 33.2764 83.0592 33.2971 82.9456C33.3178 82.8321 33.3127 82.7154 33.2821 82.604C33.2514 82.4925 33.196 82.389 33.1198 82.3008L32.22 81.2314C32.1 81.093 31.9353 80.9985 31.7529 80.9637C31.5705 80.9288 31.3813 80.9557 31.2167 81.0398Z" fill="#583045"/>
<path d="M26.8938 84.0058L27.2351 85.4888C27.2722 85.6382 27.3596 85.7711 27.4834 85.8662C27.6072 85.9613 27.7602 86.0131 27.9178 86.0134C28.0365 86.013 28.1534 85.9853 28.2591 85.9326L28.4349 85.8318L28.6935 85.6905L29.1486 85.4383L30.183 84.8633L32.8101 83.4005C32.8936 83.3489 32.9651 83.2809 33.0202 83.201C33.0753 83.121 33.1128 83.0308 33.1303 82.9359C33.1478 82.8411 33.1449 82.7438 33.1219 82.6501C33.0988 82.5564 33.056 82.4684 32.9963 82.3916L32.0861 81.3223C32.0229 81.2421 31.9414 81.1775 31.848 81.1337C31.7545 81.0899 31.6519 81.0681 31.5483 81.0701C31.4362 81.0705 31.3259 81.0982 31.2276 81.1508L31.1035 81.2214L29.9968 81.7964L29.4796 82.0688L29.1383 82.2504L27.2041 83.2592C27.0794 83.3369 26.9825 83.4505 26.9269 83.5843C26.8714 83.718 26.8598 83.8653 26.8938 84.0058Z" fill="#6F92B2"/>
<path d="M6.61021 77.5694C6.61021 77.5694 6.50678 77.8619 7.26184 78.4773C7.37562 78.548 7.47908 78.5681 7.55148 78.4773C7.62388 78.3865 7.68591 78.1949 7.779 78.0133C7.80869 77.9597 7.81561 77.8968 7.79819 77.8383C7.78078 77.7798 7.74046 77.7303 7.68595 77.7005C7.5422 77.6086 7.41324 77.4964 7.30325 77.3676C7.18894 77.1891 7.12799 76.9829 7.12737 76.7724L7.01361 76.9338L6.61021 77.5694Z" fill="#ECE3DD"/>
<path d="M9.7438 78.8204H9.86791C10.1289 78.7676 10.365 78.633 10.5402 78.437C10.6208 78.3332 10.6837 78.2173 10.7264 78.094C10.7553 78.0147 10.7794 77.9339 10.7988 77.8519C10.8181 77.8125 10.8281 77.7694 10.8281 77.7258C10.8281 77.6821 10.8181 77.639 10.7988 77.5997C10.7742 77.5696 10.7426 77.5457 10.7066 77.5299C10.6706 77.5141 10.6314 77.5069 10.592 77.5089H10.5299C10.347 77.5381 10.1755 77.6148 10.0334 77.7308C9.90145 77.8093 9.7875 77.9133 9.69853 78.0366C9.60957 78.1598 9.54749 78.2995 9.51621 78.4471C9.49378 78.5194 9.49378 78.5967 9.51621 78.669C9.53525 78.7081 9.56268 78.7427 9.59658 78.7705C9.63048 78.7983 9.67006 78.8188 9.71274 78.8304L9.7438 78.8204Z" fill="#F8F1E4"/>
<path d="M9.74441 78.8203H9.85817C10.0939 78.7026 10.2857 78.5155 10.4064 78.2856C10.4603 78.1671 10.4952 78.0412 10.5098 77.9124C10.515 77.8284 10.515 77.7441 10.5098 77.6601C10.5122 77.6163 10.5041 77.5725 10.4862 77.5322C10.4682 77.4919 10.4409 77.4563 10.4064 77.4281C10.3706 77.4125 10.3318 77.4045 10.2926 77.4045C10.2534 77.4045 10.2146 77.4125 10.1788 77.4281C10.0107 77.4974 9.86445 77.6087 9.75476 77.7509C9.64517 77.8599 9.55932 77.9893 9.50243 78.1315C9.44555 78.2737 9.4188 78.4256 9.42377 78.5782C9.43192 78.6516 9.46049 78.7213 9.50647 78.78C9.53206 78.8153 9.56626 78.844 9.60596 78.8633C9.64567 78.8827 9.68968 78.8922 9.73406 78.8909L9.74441 78.8203Z" fill="#F8F1E4"/>
<path d="M9.57867 78.6588C9.60728 78.7112 9.65541 78.751 9.71314 78.7698C9.75779 78.7752 9.80295 78.7752 9.8476 78.7698H9.95108H10.0855L10.2407 78.6891C10.319 78.6395 10.3888 78.5782 10.4475 78.5075C10.5188 78.4122 10.5746 78.3067 10.613 78.1948C10.613 78.1141 10.613 78.0334 10.6854 77.9627C10.7578 77.8921 10.6854 77.7004 10.4889 77.7105C10.4128 77.7152 10.3388 77.7358 10.2717 77.7711L10.1062 77.8619H10.0338H9.97172C9.75929 78.0089 9.61157 78.2286 9.55803 78.4772C9.55398 78.5385 9.56094 78.5999 9.57867 78.6588Z" fill="#6F92B2"/>
<g opacity="0.32">
<path d="M10.1161 78.6589L10.2713 78.5782L10.5195 77.5694C10.4435 77.574 10.3694 77.5947 10.3023 77.6299L10.1161 78.6589Z" fill="white"/>
</g>
<g opacity="0.32">
<path d="M9.95147 78.7195V77.862H10.0135H10.0859L9.95147 78.8103V78.7195Z" fill="white"/>
</g>
<g opacity="0.11">
<path d="M22.9947 82.7144L24.1532 86.0335L24.8151 86.316H24.9082L23.8739 83.2087L22.9947 82.7144Z" fill="#F8F1E4"/>
</g>
<g opacity="0.11">
<path d="M24.3591 83.4811L25.0107 85.4988L24.9383 84.49L24.6901 83.7132C24.5966 83.6152 24.4841 83.5363 24.3591 83.4811Z" fill="#F8F1E4"/>
</g>
<g opacity="0.11">
<path d="M19.5075 80.7473L20.9039 84.4698C21.3176 84.6817 21.7106 84.8936 22.083 85.0651L20.8418 81.4938L19.5075 80.7473Z" fill="#F8F1E4"/>
</g>
<g opacity="0.11">
<path d="M21.4633 81.8469L22.6631 85.3475L22.7148 85.5089V84.5001L21.8977 82.089L21.4633 81.8469Z" fill="#F8F1E4"/>
</g>
<g opacity="0.11">
<path d="M14.5129 78.2151L15.7231 81.4434C16.1161 81.6956 16.5298 81.9579 16.9746 82.2202L15.7231 78.6086L15.1852 78.3059C15.0706 78.2465 14.9427 78.2154 14.8128 78.2151H14.5129Z" fill="#F8F1E4"/>
</g>
<g opacity="0.11">
<path d="M16.351 78.9717L17.5921 82.5935L17.8301 82.7448V82.2908L16.7958 79.2643L16.351 78.9717Z" fill="#F8F1E4"/>
</g>
<path d="M22.7661 85.408L23.1592 82.7245L23.0351 82.7043L22.6524 85.3979L22.7661 85.408Z" fill="#583045"/>
<path d="M18.8447 80.2933L18.3689 83.1079L17.4691 82.6035L18.462 80.0915L18.8447 80.2933Z" fill="#583045"/>
<g opacity="0.11">
<path d="M29.1576 85.4383L30.1919 84.8632L31.1436 81.2012L30.0368 81.7762L29.1576 85.4383Z" fill="#F8F1E4"/>
</g>
<g opacity="0.11">
<path d="M28.4448 85.8317L28.7034 85.6905L29.5205 82.0486L29.1792 82.2302L28.4448 85.8317Z" fill="#F8F1E4"/>
</g>
<g opacity="0.11">
<path d="M15.0721 74.7245L15.7237 76.2377L16.6133 75.7837L15.4858 74.674L15.0721 74.7245Z" fill="#F8F1E4"/>
</g>
<g opacity="0.11">
<path d="M12.6915 76.8936L14.5947 76.6817L14.3051 74.9465L13.9741 75.0878L13.1983 75.4711L12.6915 76.8936Z" fill="#F8F1E4"/>
</g>
<path d="M26.0755 89.0298C26.5917 89.0776 27.1113 88.9832 27.5753 88.7574L33.9467 85.176C34.0981 85.013 34.23 84.8336 34.3398 84.6414C34.3536 84.8174 34.3198 84.994 34.2417 85.1533C34.1637 85.3126 34.0441 85.4492 33.895 85.5493L27.3891 89.2114H27.3063C26.8871 89.3002 26.449 89.2356 26.0755 89.0298Z" fill="#F8F1E4"/>
<path d="M18.6693 87.234L23.7686 90.1092C23.4372 88.6272 22.5238 87.3307 21.2241 86.4976C20.0036 85.8116 18.9796 86.1546 18.6693 87.234ZM13.7046 84.4396C13.3616 82.9838 12.4532 81.7145 11.1705 80.8986C9.98098 80.2226 8.96732 80.5455 8.63634 81.5947L13.7046 84.4396Z" fill="#583045"/>
<path d="M20.1703 88.2025C20.1756 88.4039 20.2311 88.601 20.332 88.7767C20.4329 88.9525 20.5762 89.1017 20.7495 89.2113C21.0598 89.3828 21.3184 89.2113 21.3184 88.8885C21.315 88.6878 21.2615 88.491 21.1623 88.3152C21.0631 88.1394 20.9215 87.9898 20.7495 87.8797C20.3978 87.6981 20.1703 87.8393 20.1703 88.2025ZM10.4372 82.5631C10.4425 82.7645 10.4981 82.9616 10.599 83.1373C10.6999 83.3131 10.8432 83.4623 11.0164 83.5719C11.3267 83.7535 11.5853 83.5719 11.5853 83.2491C11.5794 83.049 11.5248 82.8531 11.4258 82.6777C11.3269 82.5022 11.1866 82.3523 11.0164 82.2403C10.6958 82.0587 10.4372 82.21 10.4372 82.5631Z" fill="white"/>
<path d="M33.9465 83.8646C34.0913 83.7839 34.2051 83.8646 34.2051 84.0563V84.2177C34.2039 84.3125 34.1799 84.4058 34.1349 84.4899C34.09 84.574 34.0255 84.6466 33.9465 84.7019L33.8327 84.7625V83.9251L33.9465 83.8646Z" fill="#F4B259"/>
<path d="M33.1814 84.3185L33.833 83.9452V84.7825L33.1814 85.1558C33.0366 85.2365 32.9228 85.1558 32.9228 84.9641V84.8027C32.9232 84.7077 32.9468 84.6142 32.9918 84.53C33.0368 84.4457 33.1018 84.3732 33.1814 84.3185ZM28.258 86.9515L28.3821 86.8809C28.5165 86.8002 28.6407 86.8809 28.6407 87.0726V87.234C28.6379 87.3285 28.6132 87.4212 28.5684 87.5051C28.5237 87.589 28.4599 87.6618 28.3821 87.7182L28.258 87.7888L27.7408 88.0713V87.2441L28.258 86.9515Z" fill="#DD7369"/>
<path d="M27.637 87.3148L27.7715 87.2441V88.0714L27.637 88.1521C27.4922 88.2328 27.3784 88.1521 27.3784 87.9604V87.799C27.3796 87.7042 27.4037 87.6109 27.4486 87.5268C27.4935 87.4427 27.558 87.3701 27.637 87.3148Z" fill="#F4B259"/>
</svg>
