<svg width="563" height="480" viewBox="0 0 563 480" fill="none" xmlns="http://www.w3.org/2000/svg">
<path d="M398.361 480L638.564 349.668L240.197 133.522L-0.00732422 263.852L398.361 480Z" fill="#2516DF"/>
<path d="M629.579 349.669L240.201 138.4L8.9834 263.851L398.364 475.124L629.579 349.669Z" fill="#A9A2F6"/>
<path d="M323.66 432.726L395.521 393.735L470.215 434.262L398.351 473.253L323.66 432.726ZM241.017 309.905L307.293 345.865L235.432 384.855L169.155 348.894L241.017 309.905ZM463.164 261.292L393.41 299.138L327.134 263.178L396.888 225.331L463.164 261.292ZM481.637 347.01L551.39 309.162L626.083 349.689L556.327 387.536L481.637 347.01ZM476.363 349.872L551.056 390.397L475.487 431.4L400.795 390.874L476.363 349.872ZM398.683 302L468.436 264.152L546.116 306.301L476.363 344.148L398.683 302ZM312.567 343.003L246.29 307.043L321.861 266.04L388.136 302L312.567 343.003ZM390.249 390.874L318.385 429.865L240.705 387.718L312.567 348.725L390.249 390.874ZM317.84 345.865L393.41 304.861L471.09 347.01L395.521 388.012L317.84 345.865ZM468.468 258.444L468.452 258.42L468.437 258.429L396.888 219.606L158.607 348.894L398.351 478.977L636.632 349.689L468.468 258.444Z" fill="#F0EFFB"/>
<path d="M66.6177 191.598V196.075C66.7675 197.314 67.7571 198.609 69.6441 199.622C72.2212 201.03 75.7265 201.565 78.6927 201.143C79.9498 200.974 81.1186 200.636 82.0775 200.101L135.826 170.931C137.234 170.2 137.894 169.187 137.954 168.143L137.983 163.78L134.567 164.034C130.912 162.204 125.61 162.034 122.523 163.723L76.9835 188.417L69.465 192.499L69.3152 191.598H66.6177Z" fill="#C7784C"/>
<path d="M66.6177 191.598V196.075C66.7675 197.314 67.7571 198.609 69.6441 199.622C72.2213 201.03 75.7265 201.565 78.6927 201.143V188.417H76.9835L69.465 192.499L69.3152 191.598H66.6177Z" fill="#DFCFB5"/>
<path d="M82.0774 195.888L135.838 166.718C139.024 164.989 138.624 161.97 134.945 159.975V159.973C131.266 157.978 125.702 157.762 122.516 159.49L68.7551 188.66C65.569 190.389 65.9694 193.408 69.6482 195.404C73.327 197.399 78.8913 197.616 82.0774 195.888Z" fill="white"/>
<path d="M324.181 184.875L324.164 184.847L324.146 184.855L240.978 139.729L11.1392 264.101L300.021 420.783L529.858 296.412L324.181 184.875Z" fill="#E8E6F9"/>
<path d="M529.859 256.304L467.101 222.252V183.201L473.757 185.467L467.097 181.876V177.976L422.572 157.482L422.393 157.777L334.319 110.299L330.29 108.928V106.207L281.368 34.3017L263.254 44.1368L223.091 54.21L62.0003 141.674L66.358 140.581L66.2306 140.651V167.755L11.1396 197.646V124.38L240.99 6.10352e-05L529.859 156.674V256.304Z" fill="url(#paint0_linear_59_5091)"/>
<path d="M529.859 290.179L467.101 256.127V221.746L529.859 255.797V290.179ZM11.1401 257.297V197.139L66.2311 167.249V204.268V227.944L11.1401 257.297Z" fill="url(#paint1_linear_59_5091)"/>
<path d="M529.858 296.395L467.101 262.357V257.703L468.437 258.429L468.453 258.42L468.468 258.443L529.858 291.755V296.395Z" fill="url(#paint2_linear_59_5091)"/>
<path d="M166.578 195.099L66.2305 140.652L227.32 53.1879L327.668 107.636L166.578 195.099Z" fill="#A8A2F6"/>
<path d="M166.578 307.996V195.099L327.668 107.636V220.533L166.578 307.996Z" fill="#6115E7"/>
<path d="M211.219 278.545L176.06 297.623V222.6L211.219 203.523V278.545Z" fill="#F7F7FD"/>
<path d="M66.2305 253.549V140.653L166.578 195.099V307.996L66.2305 253.549Z" fill="#A8A2F6"/>
<path d="M79.8267 167.528V240.115L93.261 247.389V174.8L79.8267 167.528Z" fill="#F7F7FD"/>
<path d="M98.6201 177.718V250.305L112.053 257.579V184.991L98.6201 177.718Z" fill="#F7F7FD"/>
<path d="M117.413 187.908V260.496L130.847 267.769V195.182L117.413 187.908Z" fill="#F7F7FD"/>
<path d="M136.206 198.098V270.684L149.639 277.958V205.371L136.206 198.098Z" fill="#F7F7FD"/>
<path d="M358.747 241.561L219.309 166.394L327.662 107.629L467.1 182.797L358.747 241.561Z" fill="#6115E7"/>
<path d="M358.747 354.55V241.562L467.1 182.799V295.785L358.747 354.55Z" fill="#6115E7"/>
<path d="M219.309 279.382V166.396L358.747 241.562V354.55L219.309 279.382Z" fill="#A8A2F6"/>
<path d="M349.134 341.389L228.92 276.164V201.487L349.134 266.713V341.389Z" fill="#F7F7FD"/>
<path d="M193.468 194.613L187.981 188.765L212.956 175.204L219.308 178.629V181.161L193.468 194.613Z" fill="#5245ED"/>
<path d="M219.309 181.161V178.629L219.319 178.636L219.32 181.155L219.309 181.161Z" fill="#013BA1"/>
<path d="M61.9995 141.675L120.276 127.058L281.368 39.5937L223.091 54.2108L61.9995 141.675Z" fill="#5598E9"/>
<path d="M169.199 198.962L120.276 127.057L281.367 39.5925L330.289 111.498L169.199 198.962Z" fill="#3F461D"/>
<path d="M330.29 106.207V111.498L169.201 198.962V193.67L330.29 106.207Z" fill="#6115E7"/>
<path d="M134.658 166.093L116.349 141.704L81.5644 148.973L66.2305 140.653L69.0694 139.903L120.277 127.06L144.917 163.274L134.658 166.093Z" fill="#5245ED"/>
<path d="M66.2347 152.174L66.2305 140.651L81.5643 148.971L66.2347 152.174Z" fill="#5245ED"/>
<path d="M69.0688 139.903L120.053 126.443L120.276 126.774V127.059L69.0688 139.903Z" fill="#073CAE"/>
<path d="M61.9995 136.383L120.276 121.768L281.368 34.3031L223.091 48.9189L61.9995 136.383Z" fill="#CBC7FA"/>
<path d="M169.199 193.671L120.276 121.767L281.367 34.3023L330.289 106.208L169.199 193.671Z" fill="#A8A2F6"/>
<path d="M201.984 154.387L174.373 145.114L174.376 128.076L197.339 136.043L207.74 147.085L201.984 154.387Z" fill="#5245ED"/>
<path d="M174.373 126.757L164.391 121.341L174.312 115.958L184.294 121.375L174.373 126.757Z" fill="#A8A2F6"/>
<path d="M174.376 126.707L163.653 120.887L174.308 115.105L185.033 120.924L174.376 126.707Z" fill="#CBC7FA"/>
<path d="M174.377 128.456L185.034 122.673V120.923L174.377 126.706V128.456Z" fill="#2516DF"/>
<path d="M163.653 122.637L174.376 128.456V126.706L163.653 120.886V122.637Z" fill="#A8A2F6"/>
<path d="M181.378 121.363L174.361 125.18L174.338 125.157L167.319 121.342L174.314 117.548L174.338 117.571L181.378 121.363Z" fill="#2516DF"/>
<path d="M181.378 121.363L174.361 125.18L174.338 125.157V117.571L181.378 121.363Z" fill="#A8A2F6"/>
<path d="M174.373 145.113L184.294 139.731V121.375L174.373 126.757V145.113Z" fill="#2516DF"/>
<path d="M164.393 130.539L174.373 145.113V126.757L164.393 121.341V130.539Z" fill="#A8A2F6"/>
<path d="M174.378 117.075L172.969 116.309L174.369 115.55L175.778 116.314L174.378 117.075Z" fill="#A8A2F6"/>
<path d="M174.379 126.261L175.779 125.502V116.314L174.379 117.075V126.261Z" fill="#2516DF"/>
<path d="M172.969 125.497L174.378 126.261V117.075L172.969 116.309V125.497Z" fill="#A8A2F6"/>
<path d="M174.38 117.075L173.429 116.559L174.363 116.055L175.322 116.563L174.38 117.075Z" fill="#096EA8"/>
<path d="M174.389 119.894L174.379 119.888V117.076L175.321 116.565L175.775 116.804V119.145L174.389 119.894Z" fill="#093B7D"/>
<path d="M174.379 119.888L172.975 119.12V116.803L173.428 116.56L174.379 117.076V119.888Z" fill="#096EA8"/>
<path d="M182.898 112.447L181.489 111.683L182.889 110.922L184.3 111.687L182.898 112.447Z" fill="#A8A2F6"/>
<path d="M182.898 121.633L184.299 120.874V111.686L182.898 112.447V121.633Z" fill="#2516DF"/>
<path d="M181.489 120.869L182.898 121.633V112.447L181.489 111.682V120.869Z" fill="#A8A2F6"/>
<path d="M182.899 112.447L181.941 111.929L182.555 111.591L183.506 112.117L182.899 112.447Z" fill="#096EA8"/>
<path d="M182.898 115.272V112.448L183.505 112.118L184.299 112.556V114.512L182.898 115.272Z" fill="#093B7D"/>
<path d="M182.893 115.273L181.501 114.666V112.171L181.941 111.929L182.899 112.447V115.271L182.893 115.273Z" fill="#096EA8"/>
<path d="M165.802 112.423L164.391 111.659L165.792 110.899L167.202 111.664L165.802 112.423Z" fill="#A8A2F6"/>
<path d="M165.802 121.611L167.202 120.851V111.664L165.802 112.424V121.611Z" fill="#2516DF"/>
<path d="M164.391 120.846L165.802 121.611V112.423L164.391 111.659V120.846Z" fill="#A8A2F6"/>
<path d="M165.802 112.423L165.175 112.084L166.12 111.566L166.741 111.914L165.802 112.423Z" fill="#096EA8"/>
<path d="M165.802 115.246V112.424L166.742 111.915L167.198 112.172V114.513L165.802 115.246Z" fill="#093B7D"/>
<path d="M165.798 115.247L164.399 114.486V112.508L165.175 112.085L165.802 112.424V115.245L165.798 115.247Z" fill="#096EA8"/>
<path d="M174.381 117.061L162.585 110.66L174.306 104.301L186.101 110.7L174.381 117.061Z" fill="white"/>
<path d="M174.381 118.987L186.102 112.626V110.701L174.381 117.062V118.987Z" fill="#A8A2F6"/>
<path d="M162.585 112.587L174.381 118.987V117.062L162.585 110.662V112.587Z" fill="#CBC7FA"/>
<path d="M352.316 250.331L212.878 175.163L256.496 137.011L395.934 212.18L352.316 250.331Z" fill="#5598E9"/>
<path d="M334.317 110.299L283.13 92.8827L422.57 168.051L473.755 185.467L334.317 110.299Z" fill="#DDB79B"/>
<path d="M422.571 168.051L395.934 212.18L256.495 137.012L283.131 92.8828L422.571 168.051Z" fill="#433E44"/>
<path d="M358.751 256.302L358.747 244.707V256.193L358.751 256.189V256.302Z" fill="#02288E"/>
<path d="M358.751 256.302L219.321 181.155V178.637L352.316 250.331L358.747 244.707V256.3" fill="#5245ED"/>
<path d="M219.321 169.527V166.458L219.545 166.337L221.664 167.479L219.321 169.527Z" fill="#02288E"/>
<path d="M219.321 166.458V166.216L219.544 166.337L219.321 166.458Z" fill="#0852BE"/>
<path d="M352.316 250.331L219.321 178.637V169.527L221.664 167.478L358.751 241.362L358.747 244.707L352.316 250.331Z" fill="#073CAE"/>
<path d="M368.211 236.431L395.935 212.18L422.572 168.051L420.198 166.771L422.572 168.051L466.644 183.047L453.537 190.155L422.572 179.632L398.058 220.242L368.211 236.431Z" fill="#5245ED"/>
<path d="M358.751 256.189V244.703L368.21 236.431L398.058 220.242L395.934 223.761L358.751 256.189ZM467.097 194.764L453.536 190.155L466.643 183.047L467.097 183.201V194.764Z" fill="#5245ED"/>
<path d="M358.751 244.703V241.363L358.747 234.045L388.446 208.143L395.934 212.18L368.21 236.431L358.751 244.703Z" fill="#033093"/>
<path d="M467.096 181.877L422.392 157.778L422.571 157.483L467.096 177.977V181.877Z" fill="url(#paint3_linear_59_5091)"/>
<path d="M467.096 183.203L466.643 183.049L422.571 168.053L420.197 166.773L422.571 162.841L420.131 161.525L422.392 157.78L467.096 181.879V183.203Z" fill="#073962"/>
<path d="M395.935 212.18L388.447 208.142L392.14 204.92L395.935 206.966L420.198 166.771L422.572 168.051L395.935 212.18Z" fill="#02132B"/>
<path d="M358.747 256.194V244.708L358.751 244.704V256.19L358.747 256.194Z" fill="#000D5A"/>
<path d="M358.747 244.709V241.363L358.751 241.365V244.705L358.747 244.709Z" fill="#00136E"/>
<path d="M352.316 245.12L212.878 169.95L256.496 131.801L395.934 206.969L352.316 245.12Z" fill="#A8A2F6"/>
<path d="M334.317 105.085L283.13 87.6697L422.57 162.838L473.755 180.253L334.317 105.085Z" fill="#A8A2F6"/>
<path d="M422.571 162.839L395.934 206.966L256.495 131.8L283.131 87.6708L422.571 162.839Z" fill="#CBC7FA"/>
<path d="M120.276 121.767V127.058L61.9995 141.675V136.383L120.276 121.767Z" fill="#A8A2F6"/>
<path d="M120.276 121.766V127.057L169.199 198.962V193.67L120.276 121.766Z" fill="#A8A2F6"/>
<path d="M473.757 185.467V180.254L422.571 162.838L395.934 206.967L352.316 245.118V250.331L395.934 212.18L422.571 168.051L473.757 185.467Z" fill="#2516DF"/>
<path d="M352.316 250.331V245.118L212.878 169.949V175.162L352.316 250.331Z" fill="#A8A2F6"/>
<path d="M295.493 146.578V119.614L287.622 115.34L285.984 100.867H295.493L324.746 116.174L324.249 120.136L316.741 131.612L295.493 146.578Z" fill="#5245ED"/>
<path d="M305.088 115.495V130.786L295.493 146.578V119.614L305.088 115.495Z" fill="#2516DF"/>
<path d="M295.493 146.578L276.473 136.249V109.287L295.493 119.614V146.578Z" fill="#A8A2F6"/>
<path d="M292.831 119.005L271.447 107.392L286.338 99.565L307.724 111.177L292.831 119.005Z" fill="#CBC7FA"/>
<path d="M292.831 118.112L271.447 106.498L286.338 98.6706L307.724 110.283L292.831 118.112Z" fill="white"/>
<path d="M294.261 121.168L305.089 115.494L307.723 111.178L292.831 119.006L294.261 121.168Z" fill="#2516DF"/>
<path d="M271.447 107.393L272.877 109.555L294.261 121.168L292.831 119.006L271.447 107.393Z" fill="#A8A2F6"/>
<path d="M292.831 119.005V118.11L307.723 110.281V111.177L292.831 119.005Z" fill="#A8A2F6"/>
<path d="M292.831 119.005V118.11L271.447 106.497V107.393L292.831 119.005Z" fill="#CBC7FA"/>
<path d="M278.164 135.8V114.406L293.805 122.888V144.281L278.164 135.8Z" fill="#A8A2F6"/>
<path d="M279.997 117.398V134.808L291.972 141.292V123.882L279.997 117.398Z" fill="white"/>
<path d="M282.06 118.517V133.983L291.972 139.346V141.292L279.997 134.809V117.398L282.06 118.517Z" fill="#2516DF"/>
<path d="M282.06 133.983L279.997 134.809L291.972 141.292V139.346L282.06 133.983Z" fill="#CBC7FA"/>
<path d="M283.586 134.809H279.997L282.06 133.982V118.517L283.626 119.363L283.586 134.809Z" fill="#0C59BE"/>
<path d="M335.668 168.195L328.848 146.257L326.159 122.485H335.668L364.92 137.791L364.423 141.754L356.915 153.229L335.668 168.195Z" fill="#5245ED"/>
<path d="M345.262 137.111V152.403L335.668 168.195V141.233L345.262 137.111Z" fill="#2516DF"/>
<path d="M335.669 168.195L316.647 157.866V130.904L335.669 141.233V168.195Z" fill="#A8A2F6"/>
<path d="M333.005 140.625L311.62 129.013L326.513 121.185L347.897 132.799L333.005 140.625Z" fill="#CBC7FA"/>
<path d="M333.005 139.728L311.62 128.115L326.513 120.288L347.897 131.9L333.005 139.728Z" fill="white"/>
<path d="M334.434 142.787L345.262 137.112L347.896 132.798L333.005 140.624L334.434 142.787Z" fill="#2516DF"/>
<path d="M311.62 129.012L313.049 131.173L334.435 142.787L333.005 140.624L311.62 129.012Z" fill="#A8A2F6"/>
<path d="M333.005 140.625V139.729L347.896 131.902V132.799L333.005 140.625Z" fill="#A8A2F6"/>
<path d="M333.005 140.625V139.729L311.62 128.117V129.013L333.005 140.625Z" fill="#CBC7FA"/>
<path d="M318.336 157.42V136.026L333.98 144.507V165.901L318.336 157.42Z" fill="#A8A2F6"/>
<path d="M320.17 139.016V156.426L332.146 162.91V145.5L320.17 139.016Z" fill="white"/>
<path d="M322.234 140.135V155.602L332.146 160.964V162.91L320.17 156.427V139.016L322.234 140.135Z" fill="#2516DF"/>
<path d="M322.234 155.602L320.17 156.427L332.146 162.91V160.964L322.234 155.602Z" fill="#CBC7FA"/>
<path d="M320.17 156.427H323.761L323.801 140.981L322.234 140.135V155.602L320.17 156.427Z" fill="#2516DF"/>
<path d="M375.843 189.814L369.023 167.876L366.332 144.104H375.843L405.094 159.41L404.597 163.373L397.087 174.848L375.843 189.814Z" fill="#5245ED"/>
<path d="M385.436 158.731V174.023L375.843 189.814V162.852L385.436 158.731Z" fill="#2516DF"/>
<path d="M375.844 189.814L356.823 179.486V152.523L375.844 162.852V189.814Z" fill="#A8A2F6"/>
<path d="M373.178 162.243L351.794 150.63L366.687 142.803L388.071 154.416L373.178 162.243Z" fill="#CBC7FA"/>
<path d="M373.178 161.348L351.794 149.735L366.687 141.908L388.071 153.521L373.178 161.348Z" fill="white"/>
<path d="M374.608 164.406L385.436 158.732L388.07 154.417L373.177 162.244L374.608 164.406Z" fill="#2516DF"/>
<path d="M351.794 150.631L353.225 152.793L374.609 164.406L373.178 162.243L351.794 150.631Z" fill="#A8A2F6"/>
<path d="M373.177 162.243V161.347L388.07 153.521V154.416L373.177 162.243Z" fill="#A8A2F6"/>
<path d="M373.178 162.243V161.347L351.794 149.734V150.63L373.178 162.243Z" fill="#CBC7FA"/>
<path d="M358.51 179.038V157.643L374.154 166.125V187.518L358.51 179.038Z" fill="#A8A2F6"/>
<path d="M360.344 160.636V178.044L372.319 184.529V167.119L360.344 160.636Z" fill="white"/>
<path d="M362.407 161.754V177.221L372.318 182.583V184.529L360.344 178.046V160.634L362.407 161.754Z" fill="#2516DF"/>
<path d="M362.407 177.221L360.344 178.046L372.318 184.529V182.583L362.407 177.221Z" fill="#CBC7FA"/>
<path d="M360.344 178.045H363.934L363.974 162.599L362.407 161.753V177.22L360.344 178.045Z" fill="#2516DF"/>
<path d="M616.978 300.901L504.759 240.014V234.59L616.978 295.477V300.901Z" fill="#2516DF"/>
<path d="M619.514 294.102L616.978 295.477L504.759 234.589L507.297 233.215L619.514 294.102Z" fill="#A8A2F6"/>
<path d="M616.978 352.693L504.759 291.807V286.383L616.978 347.269V352.693Z" fill="#2516DF"/>
<path d="M619.514 345.894L616.978 347.269L504.759 286.382L507.297 285.007L619.514 345.894Z" fill="#A8A2F6"/>
<path d="M519.63 307.446L510.65 302.573V226.689L515.14 223.991L519.63 231.561V307.446Z" fill="#A8A2F6"/>
<path d="M519.631 307.446L522.257 306.029V230.145L519.631 231.561V307.446Z" fill="#2516DF"/>
<path d="M519.631 231.561L522.258 230.145L517.768 222.577L515.141 223.991L519.631 231.561Z" fill="#CBC7FA"/>
<path d="M517.079 246.087C517.079 247.241 516.211 247.706 515.14 247.125C514.069 246.545 513.201 245.138 513.201 243.984C513.201 242.829 514.069 242.364 515.14 242.945C516.211 243.526 517.079 244.933 517.079 246.087Z" fill="#004899"/>
<path d="M517.079 296.305C517.079 297.46 516.211 297.924 515.14 297.343C514.069 296.761 513.201 295.355 513.201 294.2C513.201 293.047 514.069 292.583 515.14 293.163C516.211 293.743 517.079 295.15 517.079 296.305Z" fill="#004899"/>
<path d="M534.109 315.31L525.13 310.438V234.554L529.62 231.858L534.109 239.426V315.31Z" fill="#A8A2F6"/>
<path d="M534.109 315.31L536.735 313.894V238.01L534.109 239.426V315.31Z" fill="#2516DF"/>
<path d="M534.109 239.426L536.735 238.011L532.246 230.441L529.62 231.858L534.109 239.426Z" fill="#CBC7FA"/>
<path d="M531.559 253.95C531.559 255.105 530.691 255.571 529.62 254.989C528.549 254.409 527.682 253.002 527.682 251.847C527.682 250.694 528.549 250.228 529.62 250.809C530.691 251.391 531.559 252.797 531.559 253.95Z" fill="#004899"/>
<path d="M531.559 304.17C531.559 305.325 530.691 305.79 529.62 305.209C528.549 304.629 527.682 303.223 527.682 302.068C527.682 300.913 528.549 300.448 529.62 301.029C530.691 301.609 531.559 303.017 531.559 304.17Z" fill="#004899"/>
<path d="M548.59 323.175L539.611 318.302V242.419L544.1 239.722L548.59 247.292V323.175Z" fill="#A8A2F6"/>
<path d="M548.59 323.175L551.218 321.758V245.875L548.59 247.292V323.175Z" fill="#2516DF"/>
<path d="M548.589 247.291L551.217 245.874L546.728 238.306L544.1 239.721L548.589 247.291Z" fill="#CBC7FA"/>
<path d="M546.039 261.817C546.039 262.971 545.171 263.437 544.1 262.856C543.029 262.276 542.16 260.868 542.16 259.713C542.16 258.56 543.029 258.094 544.1 258.676C545.171 259.256 546.039 260.663 546.039 261.817Z" fill="#004899"/>
<path d="M546.039 312.037C546.039 313.192 545.171 313.656 544.1 313.076C543.029 312.493 542.16 311.087 542.16 309.932C542.16 308.777 543.029 308.313 544.1 308.893C545.171 309.475 546.039 310.882 546.039 312.037Z" fill="#004899"/>
<path d="M563.07 331.042L554.091 326.17V250.285L558.581 247.588L563.07 255.157V331.042Z" fill="#A8A2F6"/>
<path d="M563.069 255.157L565.696 253.741L561.207 246.173L558.58 247.588L563.069 255.157Z" fill="#CBC7FA"/>
<path d="M560.519 269.683C560.519 270.838 559.65 271.304 558.58 270.722C557.51 270.141 556.642 268.735 556.642 267.581C556.642 266.425 557.51 265.961 558.58 266.542C559.65 267.122 560.519 268.528 560.519 269.683Z" fill="#004899"/>
<path d="M560.519 319.902C560.519 321.057 559.65 321.522 558.58 320.941C557.51 320.361 556.642 318.954 556.642 317.799C556.642 316.645 557.51 316.18 558.58 316.761C559.65 317.341 560.519 318.747 560.519 319.902Z" fill="#004899"/>
<defs>
<linearGradient id="paint0_linear_59_5091" x1="270.5" y1="96.1314" x2="270.5" y2="227.704" gradientUnits="userSpaceOnUse">
<stop stop-color="#F7F7FD"/>
<stop offset="1" stop-color="#E8E6F9"/>
</linearGradient>
<linearGradient id="paint1_linear_59_5091" x1="270.5" y1="96.1338" x2="270.5" y2="227.706" gradientUnits="userSpaceOnUse">
<stop stop-color="#FFFCF7"/>
<stop offset="1" stop-color="#E8E6F9"/>
</linearGradient>
<linearGradient id="paint2_linear_59_5091" x1="270.499" y1="96.132" x2="270.499" y2="227.704" gradientUnits="userSpaceOnUse">
<stop stop-color="#E8E6F9"/>
<stop offset="1" stop-color="#D1CEF3"/>
</linearGradient>
<linearGradient id="paint3_linear_59_5091" x1="270.499" y1="96.1325" x2="270.499" y2="227.705" gradientUnits="userSpaceOnUse">
<stop stop-color="#0850A1"/>
<stop offset="1" stop-color="#074CA1"/>
</linearGradient>
</defs>
</svg>
