<svg width="78" height="40" viewBox="0 0 78 40" fill="none" xmlns="http://www.w3.org/2000/svg">
<g clip-path="url(#clip0_59_9815)">
<path d="M68.6114 15.5194C70.6201 13.4844 72.8459 14.083 72.8459 16.0567C72.8459 17.9831 70.5651 20.0626 67.8145 21.6744C67.5479 21.8275 67.2319 22.0057 66.9131 22.1644C66.806 21.68 66.7455 21.1427 66.7455 20.5442C66.7455 18.899 67.4352 16.7109 68.6114 15.5194ZM57.8973 36.2923C55.229 38.9954 51.8189 35.549 55.7979 31.518C56.6992 30.6049 58.1775 29.6 59.7164 28.6841C60.593 30.8889 59.8977 34.2573 57.8973 36.2923ZM40.9014 25.4688C38.8542 25.4688 37.5298 22.9828 37.9392 19.9123C38.3404 16.8417 40.3271 14.3558 42.3716 14.3558C44.2649 14.3558 45.5399 16.491 45.3943 19.2469C45.3421 19.645 45.2953 20.0292 45.2569 20.3994C44.7183 23.2362 42.8332 25.4688 40.9014 25.4688ZM13.8785 24.4471C13.2108 25.1236 12.3946 25.4827 11.5675 25.4827C10.7954 25.4827 10.1276 25.1292 9.57528 24.5696C7.68197 22.6516 7.84685 17.9441 10.2787 15.4721C10.9685 14.7733 11.8011 14.3669 12.6584 14.3669C13.4251 14.3669 14.0983 14.7121 14.6507 15.2717C16.4341 17.0784 16.5385 21.7524 13.8785 24.4471ZM77.2261 25.4521C77.2261 25.4521 76.4676 24.3775 76.234 24.0713C76.0747 23.8709 75.8768 23.6259 75.3547 23.9878C74.2033 24.77 72.9063 25.4855 71.3071 25.4855C70.087 25.4855 69.018 25.1709 68.2239 24.4889C68.5564 24.3358 68.9054 24.166 69.2626 23.9739C71.1504 22.9383 72.725 21.6243 73.4834 20.856C77.1573 17.134 76.006 11.5831 71.5296 11.5831C67.3006 11.5831 63.9591 15.7588 63.9591 20.3967C63.9591 21.0954 64.0416 22.092 64.3384 23.1526C64.0883 23.2751 62.4148 24.0964 60.4061 25.2182C58.5183 23.7818 55.5725 24.4276 55.5725 24.4276C58.3067 20.4969 62.4231 14.3558 62.7721 13.8491C63.0221 13.4872 62.9836 13.1281 62.7418 12.5602C62.4313 11.8782 62.1208 11.7529 61.6949 11.7529H53.1489C52.8686 11.7529 52.6488 11.8837 52.5663 12.2067C52.4894 12.5212 52.308 13.6181 52.2778 13.9939C52.2393 14.3697 52.5883 14.6008 52.951 14.6008H59.1421L53.5418 22.7156C53.5033 22.7462 53.4649 22.7852 53.4347 22.8381C52.624 24.0268 51.3737 25.6943 49.8734 25.6943C48.9418 25.6943 47.7905 25.0178 47.7905 22.8075C47.7905 20.6416 48.6533 16.0678 49.2826 12.5045C49.3513 12.1204 49.2221 11.7446 48.6148 11.7446H47.1007C46.7517 11.7446 46.5539 11.9589 46.5017 12.2596C46.411 12.8052 46.3203 13.3425 46.2296 13.8575C45.4795 12.4071 44.2814 11.5859 42.5474 11.5859C40.9399 11.5859 39.3736 12.1927 38.0931 13.4817C34.8945 16.722 35.5018 22.0029 32.7429 24.7979C31.5531 26.0033 30.2038 25.6358 30.2038 23.264C30.2038 20.5553 31.2261 17.5377 32.4022 14.6731C32.6055 14.1665 32.3857 13.7433 32.1686 13.4148C31.8581 12.9555 31.7372 12.7078 31.1766 12.7078C30.3055 12.7078 28.9123 13.2673 26.1232 13.2673C25.5324 13.2673 24.9636 13.245 24.4552 13.2061C24.4854 12.7829 24.4937 12.499 24.5019 12.3932C24.5184 11.9951 24.381 11.7418 23.9633 11.7418H22.5399C22.0233 11.7418 21.8969 11.9867 21.8365 12.3932C21.5946 14.1192 21.133 20.4607 17.9949 23.6398C17.6321 24.0073 17.4123 24.1242 17.4123 24.1242C18.1927 22.5736 18.6159 20.5386 18.6159 18.9268C18.6159 14.3892 15.9642 11.5803 12.6365 11.5803C11.6197 11.5803 10.5453 11.9116 9.53681 12.5463C10.0067 9.78196 10.4381 7.19579 10.5893 6.32167C10.7184 5.58396 10.4519 5.19979 10.2623 4.89357C9.94075 4.3897 9.65772 4.16699 9.23454 4.16699H4.32403C4.04374 4.16699 3.83215 4.36743 3.76345 4.682C3.68102 5.04946 3.50515 6.01823 3.48317 6.46364C3.46668 6.85616 3.73323 7.00092 4.04374 7.00092H7.63526C7.0582 10.5698 5.96728 17.4876 5.63478 19.2219C5.21985 21.4322 3.66453 24.1409 1.05127 25.1013C0.724266 25.2238 0.589619 25.5245 0.710527 25.878C0.831435 26.2316 1.27934 27.153 1.41399 27.3896C1.55139 27.6346 1.85366 27.7961 2.14219 27.6958C3.49965 27.2115 4.74171 26.4292 5.72546 25.4382C5.96728 25.1932 6.2036 24.9148 6.42893 24.6169C7.60228 27.2894 9.99022 28.2637 12.4386 28.2637C15.203 28.2637 18.19 27.2894 20.2811 25.1626C22.7295 22.6905 23.7517 18.5927 24.1832 15.6892C24.7905 15.7727 25.4802 15.8423 26.1369 15.8423C27.8186 15.8423 29.2283 15.4804 29.2283 15.4804C29.2283 15.4804 27.5329 20.0403 27.5329 23.4032C27.5329 27.1948 29.3218 28.2693 31.3057 28.2693C33.3447 28.2693 34.7764 26.7187 35.7986 24.8007C36.0651 25.3992 36.4581 26.1146 36.9967 26.6575C37.92 27.5928 39.0658 28.2693 40.7173 28.2693C42.6051 28.2693 44.2264 27.1641 45.3778 25.4688C45.5811 26.1814 45.8999 26.7827 46.3313 27.2198C46.9139 27.81 47.9828 28.2721 49.3238 28.2721C51.6265 28.2721 52.962 26.5211 56.5453 26.5211C56.9987 26.5211 57.4081 26.5907 57.7791 26.7215C56.1358 27.7348 54.575 28.8261 53.6188 29.7921C50.6648 32.7847 50.5274 36.7238 52.4674 38.6891C54.8169 41.0693 58.1666 39.8778 60.2577 37.7593C62.7061 35.279 63.4178 30.591 61.9999 27.3813C63.7118 26.4682 65.1435 25.7917 65.4842 25.6302C66.5532 27.1112 68.3256 28.2721 71.2493 28.2721C73.3405 28.2721 75.4481 27.5205 77.0914 26.2622C77.3552 26.084 77.4074 25.7138 77.2261 25.4521Z" fill="#232323"/>
</g>
<defs>
<clipPath id="clip0_59_9815">
<rect width="76.6667" height="40" fill="white" transform="translate(0.666748)"/>
</clipPath>
</defs>
</svg>
