<svg width="112" height="40" viewBox="0 0 112 40" fill="none" xmlns="http://www.w3.org/2000/svg">
<g clip-path="url(#clip0_59_9813)">
<path d="M12.7791 5H0.583252V34.1667L12.7791 5Z" fill="#232323"/>
<path d="M21.3601 5H33.54V34.1667L21.3601 5Z" fill="#232323"/>
<path d="M17.0697 15.75L24.8321 34.1669H19.7393L17.4193 28.3033H11.7385L17.0697 15.75Z" fill="#232323"/>
<path d="M53.4361 23.5479L54.8742 27.6715C54.9219 27.7747 54.9934 27.8224 55.1205 27.8224H57.8854C58.0364 27.8224 58.0602 27.7509 58.0364 27.6L52.3238 11.7335C52.3 11.6064 52.2761 11.5825 52.149 11.5825H48.7167C48.6214 11.5825 48.5658 11.654 48.5658 11.7573C48.5181 12.5916 48.4466 12.8458 48.3433 13.0921L43.2505 27.5761C43.2266 27.7509 43.2822 27.8224 43.4253 27.8224H45.8962C46.0472 27.8224 46.1187 27.7747 46.1743 27.6238L47.5329 23.5479H53.4361ZM48.3195 20.8545C49.0663 18.5981 50.0515 15.7061 50.4488 14.0535H50.4726C50.9652 15.7855 52.1252 19.2178 52.6496 20.8545H48.3195Z" fill="#232323"/>
<path d="M65.3805 28.0689C66.8662 28.0689 68.4473 27.7988 70.0523 27.1076C70.1794 27.0599 70.2032 27.0043 70.2032 26.8851C70.1555 26.4402 70.0999 25.7966 70.0999 25.304V10.3671C70.0999 10.2718 70.0999 10.2241 69.9808 10.2241H67.2874C67.1841 10.2241 67.1364 10.2718 67.1364 10.3989V15.46C66.7153 15.4123 66.4213 15.3885 66.0717 15.3885C61.7257 15.3885 59.0562 18.2567 59.0562 21.8399C59.0562 25.9953 61.7972 28.0689 65.3805 28.0689ZM67.1364 25.304C66.6915 25.447 66.1989 25.5027 65.6983 25.5027C63.7279 25.5027 62.115 24.3903 62.115 21.689C62.115 19.2975 63.7756 17.8833 65.9764 17.8833C66.4213 17.8833 66.8106 17.9309 67.1364 18.058V25.304Z" fill="#232323"/>
<path d="M78.7956 15.3887C75.0852 15.3887 72.7891 18.233 72.7891 21.7448C72.7891 24.8831 74.6164 28.0691 78.74 28.0691C82.2279 28.0691 84.675 25.5029 84.675 21.6653C84.675 18.2807 82.6013 15.3887 78.7956 15.3887ZM78.6446 17.8835C80.7422 17.8835 81.632 19.687 81.632 21.7448C81.632 24.2872 80.3211 25.5505 78.7956 25.5505C76.9126 25.5505 75.8003 23.9694 75.8003 21.6892C75.8003 19.3454 76.9841 17.8835 78.6446 17.8835Z" fill="#232323"/>
<path d="M87.4597 10.2241C87.3564 10.2241 87.2849 10.2718 87.2849 10.3989V27.3062C87.2849 27.3777 87.3564 27.5048 87.4597 27.5287C88.6435 27.8941 89.883 28.0689 91.1621 28.0689C94.8249 28.0689 98.3843 25.7966 98.3843 21.2202C98.3843 17.9071 96.112 15.3885 92.5525 15.3885C91.7342 15.3885 90.9715 15.5156 90.3041 15.7381L90.2723 10.4227C90.2723 10.248 90.2246 10.2241 90.0498 10.2241H87.4597ZM95.3413 21.5221C95.3413 24.2632 93.4662 25.5503 91.4402 25.5503C91.0191 25.5503 90.6457 25.5265 90.3041 25.4232V18.209C90.6934 18.058 91.1621 17.9309 92.0282 17.9309C93.9827 17.9309 95.3413 19.1704 95.3413 21.5221Z" fill="#232323"/>
<path d="M108.436 22.4122C109.644 22.4122 110.637 22.3884 110.979 22.3089C111.106 22.2851 111.153 22.2374 111.177 22.1341C111.249 21.864 111.28 21.2999 111.28 20.6086C111.28 18.2569 109.866 15.3887 106.211 15.3887C102.477 15.3887 100.404 18.4317 100.404 21.864C100.404 24.907 102.008 28.0691 106.505 28.0691C108.19 28.0691 109.278 27.799 110.216 27.3541C110.311 27.3064 110.359 27.227 110.359 27.0839V25.0261C110.359 24.907 110.287 24.8831 110.216 24.9308C109.278 25.3281 108.261 25.5267 107.149 25.5267C104.63 25.5267 103.486 24.1363 103.415 22.4122H108.436ZM103.415 20.2829C103.613 19.0752 104.376 17.7643 106.084 17.7643C107.967 17.7643 108.46 19.3454 108.46 20.0604C108.46 20.0843 108.46 20.1875 108.46 20.2591C108.357 20.2829 108.039 20.2829 107.101 20.2829H103.415Z" fill="#232323"/>
</g>
<defs>
<clipPath id="clip0_59_9813">
<rect width="110.833" height="40" fill="white" transform="translate(0.583252)"/>
</clipPath>
</defs>
</svg>
