<svg width="120" height="40" viewBox="0 0 120 40" fill="none" xmlns="http://www.w3.org/2000/svg">
<g clip-path="url(#clip0_59_9822)">
<path fill-rule="evenodd" clip-rule="evenodd" d="M2.86567 29.8763C0.155745 27.1894 0.155788 22.833 2.86575 20.1461L10.2261 12.8482C12.517 10.5768 16.0111 10.2255 18.6741 11.7944C19.4979 12.2796 19.4907 13.3928 18.8132 14.0645C18.1357 14.7363 17.0297 14.6784 16.1101 14.4118C14.9326 14.0703 13.6083 14.36 12.6796 15.2808L5.31918 22.5786C3.9642 23.9221 3.96418 26.1002 5.31915 27.4438C6.67413 28.7873 8.87104 28.7873 10.226 27.4438L24.9466 12.8483C27.6567 10.1614 32.0503 10.1614 34.7604 12.8483L42.1208 20.1461C44.8308 22.8329 44.8308 27.1894 42.1208 29.8763C39.4108 32.5632 35.0171 32.5632 32.3071 29.8763L29.8537 27.4438L26.7868 30.4845C24.496 32.7559 21.0018 33.1072 18.3387 31.5383C17.515 31.0531 17.5223 29.9399 18.1998 29.2682C18.8772 28.5964 19.9832 28.6542 20.9028 28.9209C22.0804 29.2624 23.4047 28.9727 24.3334 28.0519L27.4879 24.9243C28.7944 23.6288 30.9128 23.6288 32.2195 24.9243L34.7605 27.4438C36.1155 28.7872 38.3123 28.7872 39.6673 27.4438C41.0223 26.1002 41.0223 23.9221 39.6673 22.5786L32.3069 15.2809C30.9519 13.9374 28.7551 13.9374 27.4001 15.2809L12.6795 29.8764C9.96945 32.5633 5.57564 32.5633 2.86567 29.8763Z" fill="#232323"/>
<path d="M71.8707 14.7326C70.1655 14.7326 68.8736 15.3432 68.021 16.5645C67.2718 15.3432 66.0833 14.7326 64.5073 14.7326C62.8796 14.7326 61.6911 15.2924 60.916 16.4373V15.0888H57.5831V27.8098H60.916V20.6606C60.916 18.8034 61.872 17.7857 63.3447 17.7857C64.714 17.7857 65.5149 18.6761 65.5149 20.2027V27.8098H68.8478V20.6606C68.8478 18.8034 69.7263 17.7857 71.2506 17.7857C72.62 17.7857 73.4208 18.6761 73.4208 20.2027V27.8098H76.7538V19.9736C76.7538 16.7934 74.8419 14.7326 71.8707 14.7326Z" fill="#232323"/>
<path d="M89.1439 16.5899C88.1363 15.3432 86.7411 14.7326 84.9326 14.7326C83.2015 14.7326 81.7289 15.3941 80.4887 16.6917C79.2744 17.9892 78.6543 19.5666 78.6543 21.4493C78.6543 23.332 79.2744 24.9349 80.4887 26.2324C81.7289 27.5299 83.2015 28.166 84.9326 28.166C86.7411 28.166 88.1363 27.5554 89.1439 26.3087V27.8098H92.477V15.0888H89.1439V16.5899ZM82.9949 24.0444C82.3231 23.3574 81.9872 22.4924 81.9872 21.4493C81.9872 20.4062 82.3231 19.5412 82.9949 18.8797C83.6666 18.1927 84.5192 17.862 85.5526 17.862C86.5861 17.862 87.4387 18.1927 88.1104 18.8797C88.808 19.5412 89.1439 20.4062 89.1439 21.4493C89.1439 22.4924 88.808 23.3574 88.1104 24.0444C87.4387 24.7059 86.5861 25.0366 85.5526 25.0366C84.5192 25.0366 83.6666 24.7059 82.9949 24.0444Z" fill="#232323"/>
<path d="M104.775 17.2768V15.0888H95.0859V18.1673H100.279L94.8268 25.6217V27.8097H105.033V24.7312H99.2964L104.775 17.2768Z" fill="#232323"/>
<path d="M118.968 22.7977C119.046 22.3144 119.097 21.8819 119.097 21.4493C119.097 19.5412 118.478 17.9638 117.237 16.6662C116.023 15.3687 114.447 14.7326 112.561 14.7326C110.571 14.7326 108.918 15.3687 107.652 16.6662C106.386 17.9383 105.74 19.5412 105.74 21.4493C105.74 23.3829 106.386 24.9858 107.678 26.2578C108.97 27.5299 110.675 28.166 112.819 28.166C115.299 28.166 117.186 27.25 118.452 25.4437L115.765 23.9172C115.119 24.7567 114.137 25.1893 112.871 25.1893C110.882 25.1893 109.668 24.4006 109.228 22.7977H118.968ZM109.177 20.2535C109.564 18.6253 110.778 17.6839 112.561 17.6839C114.085 17.6839 115.377 18.5235 115.765 20.2535H109.177Z" fill="#232323"/>
</g>
<defs>
<clipPath id="clip0_59_9822">
<rect width="118.333" height="40" fill="white" transform="translate(0.833252)"/>
</clipPath>
</defs>
</svg>
