<svg width="88" height="40" viewBox="0 0 88 40" fill="none" xmlns="http://www.w3.org/2000/svg">
<g clip-path="url(#clip0_59_9825)">
<path d="M6.57748 25.7319H0.716529V28.6625H6.57748V25.7319Z" fill="#232323"/>
<path d="M15.3663 25.7319H9.50902V28.6625H15.3663V25.7319Z" fill="#232323"/>
<path d="M15.3678 19.871H0.713135V22.8016H15.3678V19.871Z" fill="#232323"/>
<path d="M9.50879 14.0105H0.716532V16.9409H9.50879V14.0105Z" fill="#232323"/>
<path d="M15.3693 14.0105H12.4389V16.9409H15.3693V14.0105Z" fill="#232323"/>
<path d="M57.9117 13.9938C53.2053 13.9938 50.7746 17.3221 50.7746 21.4277C50.7746 25.5335 53.1454 28.862 57.9117 28.862C62.6781 28.862 65.0489 25.5335 65.0489 21.4277C65.049 17.3221 62.618 13.9938 57.9117 13.9938ZM61.4724 21.441C61.469 24.0811 60.5794 26.2195 57.9117 26.2195C55.2441 26.2195 54.3543 24.0813 54.3515 21.441V21.4278C54.3543 18.7879 55.2443 16.6497 57.9119 16.6497C60.5794 16.6497 61.469 18.7879 61.4724 21.4278V21.4345C61.4724 21.4367 61.4724 21.4388 61.4724 21.441Z" fill="#232323"/>
<path d="M36.8385 28.6622V8.10864C36.8385 8.10864 39.5494 7.72356 39.7596 7.69527C39.9977 7.6631 40.3138 7.83263 40.3138 8.1678V15.7871C40.8764 15.2522 41.4959 14.8211 42.1711 14.4926C42.8468 14.1644 43.6391 14.0001 44.5494 14.0001C45.3375 14.0001 46.0358 14.1338 46.6455 14.4013C47.2556 14.6682 47.7645 15.0439 48.1725 15.5266C48.5805 16.01 48.8902 16.5868 49.1013 17.2575C49.3122 17.9282 49.4178 18.667 49.4178 19.4737V28.662H45.9422V19.4737C45.9422 18.5921 45.7381 17.9096 45.3301 17.4261C44.9219 16.9432 44.3098 16.7016 43.4934 16.7016C42.8932 16.7016 42.3306 16.8377 41.8056 17.11C41.28 17.3821 40.7829 17.7522 40.3138 18.2216V28.6622H36.8385Z" fill="#232323"/>
<path d="M83.2375 28.8601C80.8458 28.8601 79.3469 27.4682 79.3469 24.8715V17.1758H76.6515C76.6515 17.1758 77.2244 15.1943 77.2697 15.0383C77.3152 14.8824 77.4337 14.7149 77.6716 14.6818C77.9095 14.6488 79.3436 14.4487 79.3436 14.4487L80.006 10.2348C80.006 10.2348 81.9521 9.96044 82.2606 9.9144C82.552 9.87077 82.8162 10.0806 82.8162 10.398V14.4487H86.2252V17.1758H82.8162V24.7678C82.8162 25.8044 83.4473 26.2006 84.0522 26.2006C84.422 26.2006 84.9283 26.0042 85.3062 25.829C85.5397 25.721 85.9015 25.8011 85.995 26.127C86.0777 26.4158 86.5171 27.9485 86.5171 27.9485C86.1379 28.1933 84.9394 28.8601 83.2375 28.8601Z" fill="#232323"/>
<path d="M74.7424 17.2217C74.0651 17.0017 72.7919 16.6495 71.5808 16.6495C70.3468 16.6495 69.3758 17.0758 69.3758 18.1019C69.3758 19.3834 71.4684 19.7565 72.9007 20.2789C73.8584 20.6281 76.4264 21.309 76.4264 24.071C76.4264 27.426 73.6402 28.8604 70.6681 28.8604C67.6955 28.8604 65.9394 27.7549 65.9394 27.7549C65.9394 27.7549 66.4005 26.1262 66.4939 25.8047C66.5784 25.5154 66.9146 25.4139 67.1289 25.4961C67.8939 25.791 69.2753 26.2009 70.8367 26.2009C72.4175 26.2009 73.1823 25.7182 73.1823 24.6892C73.1823 23.3197 71.0476 22.9011 69.6357 22.4558C68.6631 22.1492 66.0888 21.4343 66.0888 18.3967C66.0888 15.4044 68.7164 14.0005 71.5246 14.0005C73.9016 14.0005 75.0676 14.4976 75.9385 14.9413C75.9385 14.9413 75.4533 16.6327 75.3811 16.8847C75.2961 17.1842 75.0504 17.3215 74.7424 17.2217Z" fill="#232323"/>
<path d="M35.4823 14.4959C35.4823 14.1722 35.2058 13.9869 34.9419 14.0171C33.7756 14.1507 32.9435 14.6996 32.4052 15.2106C31.3481 14.3824 29.8807 13.9869 28.2339 13.9869C24.9321 13.9869 22.3524 15.5805 22.3524 19.0553C22.3524 21.0501 23.2016 22.4246 24.55 23.2338C23.5486 23.7078 22.8815 24.7137 22.8815 25.7026C22.8815 27.3568 24.1884 27.8748 24.1884 27.8748C24.1884 27.8748 21.9034 28.9838 21.9034 31.2026C21.9034 34.043 24.5173 35.1914 27.7113 35.1914C32.3153 35.1914 35.4829 33.2898 35.4829 29.7982C35.4829 27.6492 33.8385 26.4629 30.2549 26.3219C28.1284 26.2379 26.7509 26.1614 26.4096 26.0484C25.9587 25.8987 25.7371 25.5377 25.7371 25.1391C25.7371 24.6991 26.0985 24.2802 26.6682 23.9925C27.1652 24.0805 27.6897 24.1239 28.2343 24.1239C31.5388 24.1239 34.1159 22.535 34.1159 19.0555C34.1159 18.2118 33.9636 17.4793 33.6867 16.8535C34.1721 16.5945 34.7695 16.4123 35.4827 16.4123C35.4827 16.4123 35.4823 14.7911 35.4823 14.4959ZM26.3832 28.6805C26.3832 28.6805 28.1171 28.7461 29.8497 28.8263C31.7962 28.9163 32.4027 29.3358 32.4027 30.3437C32.4027 31.5752 30.7112 32.7729 28.3472 32.7729C26.1033 32.7729 24.9824 31.9922 24.9824 30.6924C24.9824 29.9466 25.3762 29.1123 26.3832 28.6805ZM28.2402 21.6984C26.676 21.6984 25.4557 20.8676 25.4557 19.0553C25.4557 17.2429 26.6771 16.4121 28.2402 16.4121C29.8035 16.4121 31.0247 17.2407 31.0247 19.0553C31.0247 20.87 29.8049 21.6984 28.2402 21.6984Z" fill="#232323"/>
</g>
<defs>
<clipPath id="clip0_59_9825">
<rect width="86.6667" height="40" fill="white" transform="translate(0.666748)"/>
</clipPath>
</defs>
</svg>
