<svg width="140" height="40" viewBox="0 0 140 40" fill="none" xmlns="http://www.w3.org/2000/svg">
<g clip-path="url(#clip0_59_9818)">
<path fill-rule="evenodd" clip-rule="evenodd" d="M3.78897 31.7519V28.3797H18.964V31.7519H3.78897ZM15.7407 14.8908H7.01085L11.3765 20.9327L15.7407 14.8908ZM22.3362 11.5186L11.3765 26.6936L0.416748 11.5186H22.3362Z" fill="#232323"/>
<path d="M35.7114 28.381V22.9686H30.521V28.381H27.3918V14.8921H30.521V20.171H35.7114V14.8893H38.8405V28.3782L35.7114 28.381Z" fill="#232323"/>
<path d="M42.7888 28.3811V14.8922H51.336V17.76H45.9179V20.1711H50.8512V22.8956H45.9179V25.5273H51.336V28.3811H42.7888Z" fill="#232323"/>
<path d="M55.0637 28.3811V14.8922H58.1915V25.5301H63.6039V28.3839L55.0637 28.3811Z" fill="#232323"/>
<path d="M66.2298 28.3811V14.8922H69.3632V25.5301H74.7742V28.3839L66.2298 28.3811Z" fill="#232323"/>
<path d="M83.6009 28.6017C79.4221 28.6017 76.7539 25.6018 76.7539 21.6437C76.7539 17.6855 79.5514 14.6674 83.7302 14.6674C87.9089 14.6674 90.5772 17.6686 90.5772 21.6437C90.5772 25.6187 87.7614 28.6017 83.6009 28.6017ZM83.6529 17.4663C81.5186 17.4663 80.0825 19.2142 80.0825 21.6437C80.0825 24.0731 81.5186 25.8224 83.6529 25.8224C85.7872 25.8224 87.2246 24.0548 87.2246 21.6437C87.2246 19.2325 85.7914 17.4663 83.6529 17.4663Z" fill="#232323"/>
<path d="M97.3386 28.6017C95.8112 28.6017 93.9664 27.9947 92.7931 27.2205L93.6572 24.3864C94.7434 25.1775 96.1611 25.6931 97.4313 25.6931C98.5357 25.6931 98.9587 25.1775 98.9587 24.5157C98.9587 23.8131 98.6088 23.3368 96.5475 22.5092C94.1729 21.5523 93.3481 20.1711 93.3481 18.551C93.3481 16.5839 94.9485 14.6674 98.0959 14.6674C99.5685 14.6674 101.079 15.183 101.87 15.717L101.076 18.5145C100.302 17.9806 99.0514 17.4101 98.0931 17.4101C96.9522 17.4101 96.4927 17.944 96.4927 18.4962C96.4927 19.38 97.1728 19.6751 98.8673 20.3917C101.388 21.4596 102.143 22.675 102.143 24.4047C102.143 26.5587 100.579 28.6017 97.3386 28.6017Z" fill="#232323"/>
<path d="M105.498 28.3811V14.8922H108.627V28.3811H105.498Z" fill="#232323"/>
<path d="M124.226 20.7978V27.2401C122.679 28.1583 120.908 28.6296 119.109 28.6017C115.152 28.6017 112.023 25.7676 112.023 21.6436C112.023 17.5197 115.189 14.6674 119.275 14.6674C121.043 14.6674 122.459 15.1282 123.802 15.828L122.495 18.3487C121.566 17.8595 120.533 17.6007 119.483 17.5942C116.795 17.5942 115.36 19.269 115.36 21.6436C115.36 24.2206 117.09 25.8224 119.295 25.8224C120.288 25.8224 120.785 25.7114 121.283 25.4543V23.4661H118.575V20.7964L124.226 20.7978Z" fill="#232323"/>
<path d="M139.087 28.6382L130.951 21.3317V28.3811H127.822V14.7053L128.244 14.6309L136.27 21.8825V14.8894H139.399V28.5834L139.087 28.6382Z" fill="#232323"/>
</g>
<defs>
<clipPath id="clip0_59_9818">
<rect width="139.167" height="40" fill="white" transform="translate(0.416748)"/>
</clipPath>
</defs>
</svg>
